{
.formatVersion = 3;
DisplayStrings = (
"¼"
);
classes = (
{
code = "A B C D E F G H I J K L M N O P Q R S T U V W X Y Z quoteleft";
name = aalt;
},
{
code = "A.alt1 B.alt1 C.alt1 D.alt1 E.alt1 F.alt1 G.alt1 H.alt1 I.alt1 J.alt1 K.alt1 L.alt1 M.alt1 N.alt1 O.alt1 P.alt1 Q.alt1 R.alt1 S.alt1 T.alt1 U.alt1 V.alt1 W.alt1 X.alt1 Y.alt1 Z.alt1 quoteleft.alt1";
name = aalt2;
}
);
familyName = Oceane;
customParameters = (
{
name = glyphOrder;
value = (
.notdef,
.null,
controlLF,
controlCR,
space,
exclam,
quotedbl,
numbersign,
dollar,
percent,
ampersand,
quotesingle,
parenleft,
parenright,
asterisk,
plus,
comma,
hyphen,
period,
slash,
zero,
one,
two,
three,
four,
five,
six,
seven,
eight,
nine,
colon,
semicolon,
less,
equal,
greater,
question,
at,
A,
B,
C,
D,
E,
F,
G,
H,
I,
J,
K,
L,
M,
N,
O,
P,
Q,
R,
S,
T,
U,
V,
W,
X,
Y,
Z,
bracketleft,
backslash,
bracketright,
asciicircum,
underscore,
grave,
a,
b,
c,
d,
e,
f,
g,
h,
i,
j,
k,
l,
m,
n,
o,
p,
q,
r,
s,
t,
u,
v,
w,
x,
y,
z,
braceleft,
verticalbar,
braceright,
asciitilde,
nonbreakingspace,
exclamdown,
cent,
sterling,
currency,
yen,
section,
dieresis,
copyright,
guillemotleft,
softhyphen,
registered,
degree,
plusminus,
twosuperior,
threesuperior,
acute,
paragraph,
cedilla,
onesuperior,
guillemotright,
questiondown,
Agrave,
Aacute,
Acircumflex,
Atilde,
Adieresis,
Aring,
AE,
Ccedilla,
Egrave,
Eacute,
Ecircumflex,
Edieresis,
Igrave,
Iacute,
Icircumflex,
Idieresis,
Eth,
Ntilde,
Ograve,
Oacute,
Ocircumflex,
Otilde,
Odieresis,
multiply,
Oslash,
Ugrave,
Uacute,
Ucircumflex,
Udieresis,
Yacute,
Thorn,
germandbls,
agrave,
aacute,
acircumflex,
atilde,
adieresis,
aring,
ae,
ccedilla,
egrave,
eacute,
ecircumflex,
edieresis,
igrave,
iacute,
icircumflex,
idieresis,
eth,
ntilde,
ograve,
oacute,
ocircumflex,
otilde,
divide,
oslash,
ugrave,
uacute,
ucircumflex,
udieresis,
yacute,
thorn,
ydieresis,
dotlessi,
Lslash,
lslash,
OE,
oe,
Scaron,
scaron,
Ydieresis,
Zcaron,
zcaron,
circumflex,
caron,
ilde,
endash,
emdash,
quoteleft,
quoteright,

glyphs = (
{
glyphname = .notdef;
layers = (
{
layerId = "C25E9096-038E-4D62-BE1C-C6CD040495C0";
shapes = (
{
closed = 1;
nodes = (
(50,700,l),
(50,0,l),
(477,0,l),
(477,700,l)
);
},
{
closed = 1;
nodes = (
(78,680,l),
(449,680,l),
(263,371,l)
);
},
{
closed = 1;
nodes = (
(251,350,l),
(71,49,l),
(71,650,l)
);
},
{
closed = 1;
nodes = (
(264,329,l),
(449,21,l),
(79,21,l)
);
},
{
closed = 1;
nodes = (
(276,350,l),
(457,652,l),
(457,47,l)
);
}
);
width = 527;
}
);
},
{
glyphname = exclam;
layers = (
{
layerId = "C25E9096-038E-4D62-BE1C-C6CD040495C0";
shapes = (
{
closed = 1;
nodes = (
(90.9,80,o),
(73,62.1,o),
(73,40,cs),
(73,17.91,o),
(90.9,0,o),
(112.98,0,cs),
(135.07,0,o),
(152.98,17.91,o),
(152.98,40,cs),
(152.98,62.1,o),
(135.08,80,o),
(112.98,80,cs)
);
},
{
closed = 1;
nodes = (
(134.15,639.94,l),
(110.77,639.94,o),
(91.82,621,o),
(91.82,597.62,cs),
(91.82,159.99,l),
(115.2,159.99,o),
(134.15,178.94,o),
(134.15,202.32,c)
);
}
);
width = 226;
}
);
unicode = 33;
},
{
glyphname = quotedbl;
layers = (
{
layerId = "C25E9096-038E-4D62-BE1C-C6CD040495C0";
shapes = (
{
closed = 1;
nodes = (
(40,479.62,l),
(63.38,479.62,o),
(82.33,498.57,o),
(82.33,521.95,cs),
(82.33,639.61,l),
(58.95,639.61,o),
(40,620.64,o),
(40,597.28,cs)
);
},
{
closed = 1;
nodes = (
(160.61,479.62,l),
(183.99,479.62,o),
(202.94,498.57,o),
(202.94,521.95,cs),
(202.94,639.61,l),
(179.56,639.61,o),
(160.61,620.66,o),
(160.61,597.28,cs)
);
}
);
width = 242;
}
);
rightKerningGroup = quotedbl;
unicode = 34;
},
{
glyphname = numbersign;
layers = (
{
layerId = "C25E9096-038E-4D62-BE1C-C6CD040495C0";
shapes = (
{
closed = 1;
nodes = (
(532.72,628.739,l),
(510.539,636.133,o),
(486.581,624.139,o),
(479.188,601.973,cs),
(417.402,416.6,l),
(248.734,416.6,l),
(319.424,628.739,l),
(297.244,636.133,o),
(273.285,624.139,o),
(265.892,601.973,cs),
(204.106,416.6,l),
(157.332,416.6,ls),
(133.952,416.6,o),
(115.003,397.651,o),
(115.003,374.271,c),
(189.996,374.271,l),
(150.799,256.667,l),
(117.331,256.667,ls),
(93.951,256.667,o),
(75.002,237.718,o),
(75.002,214.338,c),
(136.69,214.338,l),
(66.,2.185,l),
(88.18,-5.209,o),
(112.139,6.785,o),
(119.532,28.951,cs),
(181.304,214.324,l),
(349.971,214.324,l),
(279.268,2.185,l),
(301.448,-5.209,o),
(325.406,6.785,o),
(332.8,28.951,cs),
(394.586,214.324,l),
(432.654,214.324,ls),
(456.034,214.324,o),
(474.983,233.273,o),
(474.983,256.653,c),
(408.696,256.653,l),
(447.893,374.257,l),
(472.641,374.257,ls),
(496.021,374.257,o),
(514.97,393.206,o),
(514.97,416.586,c),
(462.002,416.586,l)
);
},
{
closed = 1;
nodes = (
(195.428,256.653,l),
(234.625,374.257,l),
(403.306,374.257,l),
(364.109,256.653,l)
);
}
);
width = 598;
}
);
unicode = 35;
},
{
glyphname = dollar;
layers = (
{
layerId = "C25E9096-038E-4D62-BE1C-C6CD040495C0";
shapes = (
{
closed = 1;
nodes = (
(329.89,340.06,l),
(329.89,544.22,l),
(379.3,542.26,o),
(426.99,531.55,o),
(460.95,511.91,cs),
(478.57,501.72,o),
(490.96,489.96,o),
(498.06,476.71,cs),
(507.06,459.9,o),
(523.33,448.29,o),
(542.39,448.25,c),
(547.47,448.25,l),
(547.56,489.11,o),
(524.97,523.79,o),
(482.16,548.55,cs),
(442.07,571.75,o),
(386.83,584.22,o),
(329.9,586.27,c),
(329.9,639.9,l),
(306.52,639.9,o),
(287.57,620.95,o),
(287.57,597.57,cs),
(287.57,585.92,l),
(231.89,582.83,o),
(177.77,569.69,o),
(137.75,546.56,cs),
(93.35,520.9,o),
(69.92,485.34,o),
(70.,443.72,c),
(70.06,442.22,l),
(77.61,338.32,o),
(185.81,317.66,o),
(287.57,303.23,c),
(287.57,95.53,l),
(238.26,97.31,o),
(190.68,107.85,o),
(156.92,127.37,cs),
(138.98,137.72,o),
(126.41,149.77,o),
(119.29,163.37,cs),
(110.42,180.31,o),
(94.01,191.93,o),
(74.9,191.96,c),
(70.,191.96,l),
(69.94,150.6,o),
(92.67,115.6,o),
(135.72,90.71,cs),
(175.63,67.65,o),
(230.75,55.38,o),
(287.57,53.53,c),
(287.57,0.14,l),
(310.95,0.14,o),
(329.9,19.09,o),
(329.9,42.47,cs),
(329.9,54.02,l),
(385.06,57.28,o),
(438.69,70.39,o),
(478.43,93.36,cs),
(523.67,119.51,o),
(547.53,155.77,o),
(547.47,198.21,c),
(547.43,199.64,l),
(540.19,304.48,o),
(432.01,325.52,o),
(329.9,340.03,c)
);
},
{
closed = 1;
nodes = (
(112.57,470.19,o),
(128.24,492.19,o),
(158.93,509.92,cs),
(192.8,529.51,o),
(239.39,540.78,o),
(287.56,543.74,c),
(287.56,346.07,l),
(184.49,361.29,o),
(117.55,379.49,o),
(112.32,444.54,c)
);
},
{
closed = 1;
nodes = (
(423.62,110.6,o),
(377.53,99.32,o),
(329.89,96.18,c),
(329.89,297.22,l),
(433.11,281.91,o),
(500.09,263.38,o),
(505.13,197.46,c),
(504.89,170.95,o),
(488.78,148.26,o),
(457.24,130.03,cs)
);
}
);
width = 618;
}
);
unicode = 36;
},
{
glyphname = percent;
layers = (
{
layerId = "C25E9096-038E-4D62-BE1C-C6CD040495C0";
shapes = (
{
closed = 1;
nodes = (
(198.15,479.57,o),
(233.96,515.38,o),
(233.96,559.56,cs),
(233.96,603.74,o),
(198.16,639.55,o),
(153.97,639.55,cs),
(109.78,639.55,o),
(73.98,603.74,o),
(73.98,559.56,cs),
(73.98,515.38,o),
(109.79,479.57,o),
(153.97,479.57,cs)
);
},
{
closed = 1;
nodes = (
(174.74,597.23,o),
(191.63,580.33,o),
(191.63,559.57,cs),
(191.63,538.82,o),
(174.74,521.91,o),
(153.97,521.91,cs),
(133.2,521.91,o),
(116.31,538.82,o),
(116.31,559.57,cs),
(116.31,580.33,o),
(133.2,597.23,o),
(153.97,597.23,cs)
);
},
{
closed = 1;
nodes = (
(584.8,159.53,o),
(548.99,123.72,o),
(548.99,79.55,cs),
(548.99,35.37,o),
(584.8,-0.44,o),
(628.97,-0.44,cs),
(673.15,-0.44,o),
(708.96,35.37,o),
(708.96,79.55,cs),
(708.96,123.72,o),
(673.15,159.53,o),
(628.97,159.53,cs)
);
},
{
closed = 1;
nodes = (
(608.21,41.87,o),
(591.32,58.78,o),
(591.32,79.53,cs),
(591.32,100.29,o),
(608.21,117.19,o),
(628.97,117.19,cs),
(649.74,117.19,o),
(666.63,100.29,o),
(666.63,79.53,cs),
(666.63,58.78,o),
(649.74,41.87,o),
(628.97,41.87,cs)
);
},
{
closed = 1;
nodes = (
(669.03,627.96,l),
(59.,16.59,l),
(75.55,0.08,o),
(102.36,0.11,o),
(118.87,16.66,cs),
(728.91,628.03,l),
(712.36,644.54,o),
(685.55,644.51,o),
(669.05,627.96,c)
);
}
);
width = 771;
}
);
unicode = 37;
},
{
glyphname = ampersand;
layers = (
{
layerId = "C25E9096-038E-4D62-BE1C-C6CD040495C0";
shapes = (
{
closed = 1;
nodes = (
(456.124,79.951,l),
(489.408,118.414,o),
(509.571,168.531,o),
(509.571,223.277,c),
(506.862,223.277,ls),
(485.458,223.277,o),
(467.863,207.742,o),
(463.461,186.804,cs),
(457.676,159.332,o),
(445.513,134.189,o),
(428.582,112.996,c),
(191.426,397.376,ls),
(173.507,419.938,o),
(164.039,447.042,o),
(164.039,475.727,cs),
(164.039,547.292,o),
(223.892,605.141,o),
(296.176,601.84,cs),
(366.104,598.651,o),
(421.4,535.919,o),
(416.193,466.105,cs),
(415.191,452.799,o),
(412.13,439.931,o),
(407.107,427.783,cs),
(398.796,407.676,o),
(405.202,384.48,o),
(422.232,370.935,c),
(446.205,401.087,o),
(458.875,437.321,o),
(458.875,475.713,cs),
(458.875,571.969,o),
(377.801,649.643,o),
(280.359,644.028,cs),
(188.195,638.708,o),
(116.024,556.519,o),
(122.077,464.411,cs),
(123.855,437.236,o),
(132.18,411.43,o),
(146.332,388.318,c),
(98.867,346.864,o),
(71.,286.615,o),
(71.,223.277,cs),
(71.,102.357,o),
(169.373,3.984,o),
(290.293,3.984,cs),
(341.229,3.984,o),
(388.157,21.438,o),
(425.421,50.687,c),
(454.995,15.23,ls),
(469.965,-2.718,o),
(496.661,-5.145,o),
(514.608,9.826,c)
);
},
{
closed = 1;
nodes = (
(213.,52.141,o),
(157.154,90.928,o),
(130.543,147.339,cs),
(95.48,221.669,o),
(116.32,304.408,o),
(171.969,354.61,c),
(398.316,83.196,l),
(364.735,57.234,o),
(321.602,43.068,o),
(275.167,46.948,cs)
);
}
);
width = 582;
}
);
unicode = 38;
},
{
glyphname = quotesingle;
layers = (
{
layerId = "C25E9096-038E-4D62-BE1C-C6CD040495C0";
shapes = (
{
closed = 1;
nodes = (
(39,480,l),
(62.38,480,o),
(81.33,498.95,o),
(81.33,522.33,cs),
(81.33,639.99,l),
(57.95,639.99,o),
(39,621.04,o),
(39,597.66,cs)
);
}
);
width = 120;
}
);
rightKerningGroup = quotedbl;
unicode = 39;
},
{
glyphname = parenleft;
layers = (
{
layerId = "C25E9096-038E-4D62-BE1C-C6CD040495C0";
shapes = (
{
closed = 1;
nodes = (
(234.549,632.815,ls),
(221.709,645.655,o),
(200.53,645.034,o),
(188.622,631.32,cs),
(34.459,453.834,o),
(34.459,188.022,o),
(188.622,10.536,cs),
(200.53,-3.178,o),
(221.709,-3.799,o),
(234.549,9.055,cs),
(241.434,15.926,l),
(72.993,184.382,o),
(72.993,457.488,o),
(241.434,625.93,c)
);
}
);
width = 307;
}
);
unicode = 40;
},
{
glyphname = parenright;
layers = (
{
layerId = "C25E9096-038E-4D62-BE1C-C6CD040495C0";
shapes = (
{
closed = 1;
nodes = (
(104.9,645.03,o),
(83.73,645.66,o),
(70.89,632.82,cs),
(64,625.93,l),
(232.46,457.49,o),
(232.46,184.37,o),
(64,15.93,c),
(70.89,9.05,ls),
(83.73,-3.79,o),
(104.9,-3.16,o),
(116.81,10.54,cs),
(270.97,188.02,o),
(270.97,453.83,o),
(116.81,631.32,cs)
);
}
);
width = 306;
}
);
unicode = 41;
},
{
glyphname = asterisk;
layers = (
{
layerId = "C25E9096-038E-4D62-BE1C-C6CD040495C0";
shapes = (
{
closed = 1;
nodes = (
(218.54,568.04,l),
(211.94,590.47,o),
(188.42,603.3,o),
(165.98,596.71,cs),
(135.46,587.73,l),
(135.35,661.94,l),
(111.97,661.89,o),
(93.05,642.92,o),
(93.09,619.54,cs),
(93.13,587.72,l),
(62.56,596.71,ls),
(40.14,603.3,o),
(16.6,590.47,o),
(10.,568.04,c),
(79.74,547.52,l),
(37.47,488.37,l),
(56.49,474.79,o),
(82.92,479.19,o),
(96.52,498.19,cs),
(114.26,523.03,l),
(131.99,498.19,ls),
(145.58,479.17,o),
(172.01,474.77,o),
(191.03,488.36,c),
(148.77,547.52,l),
(218.51,568.02,l)
);
}
);
width = 229;
}
);
leftKerningGroup = asterisk;
rightKerningGroup = quotedbl;
unicode = 42;
},
{
glyphname = plus;
layers = (
{
layerId = "C25E9096-038E-4D62-BE1C-C6CD040495C0";
shapes = (
{
closed = 1;
nodes = (
(196.15,341.14,l),
(196.15,439.96,l),
(172.77,439.96,o),
(153.82,421.01,o),
(153.82,397.64,cs),
(153.82,341.14,l),
(97.33,341.14,ls),
(73.95,341.14,o),
(55.,322.19,o),
(55.,298.81,c),
(153.82,298.81,l),
(153.82,199.99,l),
(177.2,199.99,o),
(196.15,218.94,o),
(196.15,242.32,cs),
(196.15,298.81,l),
(252.65,298.81,ls),
(276.03,298.81,o),
(294.98,317.76,o),
(294.98,341.14,c)
);
}
);
width = 350;
}
);
unicode = 43;
},
{
glyphname = comma;
layers = (
{
layerId = "C25E9096-038E-4D62-BE1C-C6CD040495C0";
shapes = (
{
closed = 1;
nodes = (
(6,-65.52,l),
(26.91,-75.98,o),
(52.34,-67.5,o),
(62.81,-46.59,cs),
(123.86,75.53,l),
(102.95,85.99,o),
(77.52,77.51,o),
(67.07,56.6,cs)
);
}
);
width = 167;
}
);
leftKerningGroup = comma2;
rightKerningGroup = comma;
unicode = 44;
},
{
glyphname = hyphen;
layers = (
{
layerId = "C25E9096-038E-4D62-BE1C-C6CD040495C0";
shapes = (
{
closed = 1;
nodes = (
(82.33,342.1,ls),
(58.95,342.1,o),
(40,323.15,o),
(40,299.77,c),
(157.66,299.77,ls),
(181.04,299.77,o),
(199.99,318.72,o),
(199.99,342.1,c)
);
}
);
width = 239;
}
);
unicode = 45;
},
{
glyphname = period;
layers = (
{
layerId = "C25E9096-038E-4D62-BE1C-C6CD040495C0";
shapes = (
{
closed = 1;
nodes = (
(108.093,0,o),
(126.002,17.909,o),
(126.002,40.001,cs),
(126.002,62.093,o),
(108.093,80.002,o),
(86.001,80.002,cs),
(63.909,80.002,o),
(46,62.093,o),
(46,40.001,cs),
(46,17.909,o),
(63.909,0,o),
(86.001,0,cs)
);
}
);
width = 172;
}
);
leftKerningGroup = period;
rightKerningGroup = comma;
unicode = 46;
},
{
glyphname = slash;
layers = (
{
layerId = "C25E9096-038E-4D62-BE1C-C6CD040495C0";
shapes = (
{
closed = 1;
nodes = (
(63,1.404,l),
(85.674,-4.282,o),
(108.673,9.489,o),
(114.373,32.163,cs),
(264.035,628.466,l),
(241.36,634.166,o),
(218.362,620.395,o),
(212.675,597.707,c)
);
}
);
width = 329;
}
);
unicode = 47;
},
{
glyphname = zero;
layers = (
{
layerId = "C25E9096-038E-4D62-BE1C-C6CD040495C0";
shapes = (
{
closed = 1;
nodes = (
(162.54,640.411,o),
(73,497.156,o),
(73,320.446,cs),
(73,143.736,o),
(162.54,0.481,o),
(272.976,0.481,cs),
(383.413,0.481,o),
(472.953,143.736,o),
(472.953,320.446,cs),
(472.953,497.156,o),
(383.427,640.411,o),
(272.976,640.411,cs)
);
},
{
closed = 1;
nodes = (
(187.514,42.81,o),
(115.329,169.952,o),
(115.329,320.446,cs),
(115.329,470.94,o),
(187.528,598.082,o),
(272.976,598.082,cs),
(358.425,598.082,o),
(430.624,470.94,o),
(430.624,320.446,cs),
(430.624,169.952,o),
(358.425,42.81,o),
(272.976,42.81,cs)
);
}
);
width = 546;
}
);
unicode = 48;
},
{
glyphname = one;
layers = (
{
layerId = "C25E9096-038E-4D62-BE1C-C6CD040495C0";
shapes = (
{
closed = 1;
nodes = (
(291.56,639.39,l),
(283.63,642.67,o),
(274.53,640.85,o),
(268.49,634.8,cs),
(57,423.31,l),
(73.52,406.77,o),
(100.33,406.77,o),
(116.85,423.31,cs),
(262.28,568.74,l),
(262.28,42.5,ls),
(262.28,19.13,o),
(281.23,0.18,o),
(304.61,0.18,c),
(304.61,619.83,ls),
(304.61,628.39,o),
(299.46,636.11,o),
(291.54,639.39,c)
);
}
);
width = 385;
}
);
unicode = 49;
},
{
glyphname = two;
layers = (
{
layerId = "C25E9096-038E-4D62-BE1C-C6CD040495C0";
shapes = (
{
closed = 1;
nodes = (
(137.279,42.11,l),
(414.909,319.68,ls),
(468.009,372.77,o),
(484.459,449.85,o),
(457.839,520.84,cs),
(432.269,589.,o),
(371.979,634.35,o),
(300.469,639.19,cs),
(295.489,639.53,o),
(290.469,639.7,o),
(285.419,639.7,cs),
(185.069,639.7,o),
(97.349,571.96,o),
(72.109,474.97,c),
(93.329,469.44,o),
(116.109,478.92,o),
(125.859,498.57,cs),
(155.439,558.16,o),
(216.759,597.37,o),
(285.399,597.37,cs),
(289.509,597.37,o),
(293.589,597.23,o),
(297.619,596.96,cs),
(353.169,593.21,o),
(398.239,559.19,o),
(418.199,505.98,cs),
(438.929,450.73,o),
(426.199,390.82,o),
(384.989,349.62,cs),
(71.199,35.92,ls),
(65.149,29.86,o),
(63.329,20.76,o),
(66.619,12.85,cs),
(69.889,4.93,o),
(77.609,-0.22,o),
(86.169,-0.22,cs),
(484.629,-0.22,l),
(484.629,23.16,o),
(465.679,42.11,o),
(442.299,42.11,c)
);
}
);
width = 553;
}
);
unicode = 50;
},
{
glyphname = three;
layers = (
{
layerId = "C25E9096-038E-4D62-BE1C-C6CD040495C0";
shapes = (
{
closed = 1;
nodes = (
(334.915,338.695,l),
(383.508,367.86,o),
(415.763,421.575,o),
(413.971,482.656,cs),
(411.502,566.51,o),
(342.59,636.381,o),
(258.779,639.937,cs),
(166.882,643.831,o),
(90.859,570.856,o),
(89.561,480.116,c),
(103.05,480.116,ls),
(118.486,480.116,o),
(131.58,490.882,o),
(135.206,505.895,cs),
(148.949,562.997,o),
(203.596,604.324,o),
(266.327,596.902,cs),
(319.789,590.567,o),
(363.543,547.518,o),
(370.64,494.156,cs),
(379.318,428.87,o),
(335.098,371.966,o),
(274.892,360.156,cs),
(267.428,358.689,o),
(262.08,352.142,o),
(262.08,344.537,cs),
(262.08,329.228,ls),
(262.08,321.467,o),
(267.625,314.723,o),
(275.287,313.509,cs),
(343.239,302.8,o),
(395.247,246.658,o),
(395.247,179.044,cs),
(395.247,103.797,o),
(330.879,42.604,o),
(251.766,42.604,cs),
(187.44,42.604,o),
(133.005,83.084,o),
(114.86,138.648,cs),
(110.585,151.756,o),
(97.689,160.137,o),
(83.889,160.137,cs),
(67.,160.137,l),
(76.849,70.428,o),
(155.933,0.26,o),
(251.752,0.26,cs),
(354.217,0.26,o),
(437.562,80.46,o),
(437.562,179.03,cs),
(437.562,248.816,o),
(395.685,309.234,o),
(334.915,338.667,c)
);
}
);
width = 510;
}
);
rightKerningGroup = three;
unicode = 51;
},
{
glyphname = four;
layers = (
{
layerId = "C25E9096-038E-4D62-BE1C-C6CD040495C0";
shapes = (
{
closed = 1;
nodes = (
(445.581,223.21,l),
(404.631,223.21,l),
(404.631,619.66,ls),
(404.631,628.83,o),
(398.741,636.96,o),
(390.001,639.8,cs),
(381.311,642.62,o),
(371.731,639.53,o),
(366.341,632.11,cs),
(63.041,214.49,ls),
(58.371,208.05,o),
(57.691,199.53,o),
(61.301,192.45,cs),
(64.921,185.37,o),
(72.201,180.89,o),
(80.151,180.89,cs),
(362.291,180.89,l),
(362.291,0.18,l),
(385.671,0.18,o),
(404.621,19.13,o),
(404.621,42.5,cs),
(404.621,180.89,l),
(487.901,180.89,l),
(487.901,204.27,o),
(468.951,223.22,o),
(445.571,223.22,c)
);
},
{
closed = 1;
nodes = (
(362.311,223.21,l),
(121.711,223.21,l),
(362.311,554.49,l)
);
}
);
width = 551;
}
);
unicode = 52;
},
{
glyphname = five;
layers = (
{
layerId = "C25E9096-038E-4D62-BE1C-C6CD040495C0";
shapes = (
{
closed = 1;
nodes = (
(197.93,418.68,o),
(166.33,411.78,o),
(137.43,398.49,c),
(137.43,596.66,l),
(383.45,596.66,ls),
(406.83,596.66,o),
(425.78,615.61,o),
(425.78,638.99,c),
(116.27,638.99,ls),
(104.58,638.99,o),
(95.1,629.51,o),
(95.1,617.83,cs),
(95.1,362.16,ls),
(95.1,354.29,o),
(99.48,347.06,o),
(106.45,343.41,cs),
(113.42,339.76,o),
(121.84,340.28,o),
(128.32,344.75,cs),
(158.2,365.42,o),
(193.56,376.36,o),
(230.55,376.36,cs),
(326.92,376.36,o),
(405.32,301.33,o),
(405.32,209.13,cs),
(405.32,116.92,o),
(326.92,41.9,o),
(230.55,41.9,cs),
(194.48,41.9,o),
(159.85,52.33,o),
(130.42,72.05,cs),
(129.54,72.64,o),
(128.68,73.22,o),
(127.82,73.83,cs),
(109.37,86.71,o),
(84.58,85.44,o),
(68.,70.23,c),
(79.5,57.69,o),
(92.58,46.47,o),
(106.84,36.89,cs),
(143.27,12.48,o),
(186.05,-0.44,o),
(230.55,-0.44,cs),
(350.26,-0.44,o),
(447.65,93.57,o),
(447.65,209.11,cs),
(447.65,324.66,o),
(350.26,418.67,o),
(230.55,418.68,c)
);
}
);
width = 518;
}
);
unicode = 53;
},
{
glyphname = six;
layers = (
{
layerId = "C25E9096-038E-4D62-BE1C-C6CD040495C0";
shapes = (
{
closed = 1;
nodes = (
(424.433,283.559,o),
(360.178,349.903,o),
(279.386,361.473,cs),
(221.466,369.769,o),
(167.976,350.354,o),
(129.597,314.84,c),
(166.254,462.414,o),
(256.105,559.065,o),
(304.05,601.958,cs),
(321.376,617.465,o),
(324.692,643.243,o),
(311.641,662.489,c),
(301.82,655.843,o),
(71.367,496.263,o),
(71.014,181.829,c),
(71.014,181.716,o),
(71.,181.617,o),
(71.,181.504,c),
(71.,181.462,o),
(71.,181.419,o),
(71.,181.377,c),
(71.,181.278,o),
(71.,181.194,o),
(71.,181.109,c),
(71.014,181.109,l),
(71.226,81.015,o),
(152.709,-0.37,o),
(252.86,-0.37,cs),
(360.051,-0.37,o),
(445.866,92.825,o),
(433.548,202.457,cs)
);
},
{
closed = 1;
nodes = (
(167.496,47.885,o),
(111.819,114.455,o),
(113.498,189.448,cs),
(114.613,238.93,o),
(142.437,284.942,o),
(187.278,305.909,cs),
(290.73,354.319,o),
(392.39,279.566,o),
(392.39,181.504,cs),
(392.39,101.079,o),
(323.986,36.315,o),
(242.306,42.354,cs)
);
}
);
width = 501;
}
);
unicode = 54;
},
{
glyphname = seven;
layers = (
{
layerId = "C25E9096-038E-4D62-BE1C-C6CD040495C0";
shapes = (
{
closed = 1;
nodes = (
(479.063,638.61,l),
(475.14,644.494,o),
(468.523,648.021,o),
(461.454,648.021,c),
(49.,647.88,l),
(49.,624.501,o),
(67.963,605.551,o),
(91.343,605.565,cs),
(429.721,605.678,l),
(200.467,55.373,ls),
(191.48,33.799,o),
(201.681,9.008,o),
(223.269,0.02,c),
(481.01,618.716,ls),
(483.733,625.248,o),
(483.014,632.712,o),
(479.077,638.596,c)
);
}
);
width = 541;
}
);
unicode = 55;
},
{
glyphname = eight;
layers = (
{
layerId = "C25E9096-038E-4D62-BE1C-C6CD040495C0";
shapes = (
{
closed = 1;
nodes = (
(385.7,368.227,o),
(418.618,420.305,o),
(418.618,480.145,cs),
(418.618,568.499,o),
(346.998,640.12,o),
(258.643,640.12,cs),
(170.288,640.12,o),
(98.667,568.499,o),
(98.667,480.145,cs),
(98.667,420.305,o),
(131.585,368.227,o),
(180.235,340.783,c),
(116.389,312.409,o),
(72,250.651,o),
(72,178.818,cs),
(72,80.149,o),
(155.558,0.162,o),
(258.643,0.162,cs),
(361.728,0.162,o),
(445.286,80.149,o),
(445.286,178.818,cs),
(445.286,250.637,o),
(400.911,312.395,o),
(337.05,340.783,c)
);
},
{
closed = 1;
nodes = (
(140.982,545.021,o),
(193.752,597.791,o),
(258.629,597.791,cs),
(323.505,597.791,o),
(376.275,545.021,o),
(376.275,480.145,cs),
(376.275,415.268,o),
(323.505,362.498,o),
(258.629,362.498,cs),
(193.752,362.498,o),
(140.982,415.268,o),
(140.982,480.145,cs)
);
},
{
closed = 1;
nodes = (
(179.05,42.505,o),
(114.315,103.656,o),
(114.315,178.832,cs),
(114.315,254.009,o),
(179.05,315.16,o),
(258.629,315.16,cs),
(338.207,315.16,o),
(402.942,254.009,o),
(402.942,178.832,cs),
(402.942,103.656,o),
(338.207,42.505,o),
(258.629,42.505,cs)
);
}
);
width = 518;
}
);
rightKerningGroup = three;
unicode = 56;
},
{
glyphname = nine;
layers = (
{
layerId = "C25E9096-038E-4D62-BE1C-C6CD040495C0";
shapes = (
{
closed = 1;
nodes = (
(429.71,461.01,l),
(429.5,561.1,o),
(348.02,642.49,o),
(247.87,642.49,cs),
(140.68,642.49,o),
(54.86,549.28,o),
(67.18,439.66,cs),
(76.29,358.56,o),
(140.55,292.22,o),
(221.34,280.65,cs),
(279.26,272.35,o),
(332.75,291.76,o),
(371.13,327.28,c),
(334.47,179.71,o),
(244.62,83.07,o),
(196.68,40.16,cs),
(179.35,24.65,o),
(176.04,-1.12,o),
(189.09,-20.37,c),
(198.91,-13.72,o),
(429.36,145.86,o),
(429.71,460.29,c),
(429.71,460.4,o),
(429.73,460.5,o),
(429.73,460.62,c),
(429.73,460.66,o),
(429.73,460.7,o),
(429.73,460.74,c),
(429.73,460.84,o),
(429.73,460.93,o),
(429.73,461.01,c)
);
},
{
closed = 1;
nodes = (
(209.98,287.8,o),
(108.31,362.55,o),
(108.31,460.62,cs),
(108.31,541.04,o),
(176.71,605.8,o),
(258.39,599.76,cs),
(333.2,594.23,o),
(388.88,527.66,o),
(387.2,452.67,cs),
(386.1,403.19,o),
(358.26,357.18,o),
(313.44,336.21,cs)
);
}
);
width = 501;
}
);
unicode = 57;
},
{
glyphname = colon;
layers = (
{
layerId = "C25E9096-038E-4D62-BE1C-C6CD040495C0";
shapes = (
{
closed = 1;
nodes = (
(142.09,224,o),
(160,241.91,o),
(160,264,cs),
(160,286.09,o),
(142.09,304,o),
(120,304,cs),
(97.91,304,o),
(80,286.09,o),
(80,264,cs),
(80,241.91,o),
(97.91,224,o),
(120,224,cs)
);
},
{
closed = 1;
nodes = (
(142.09,463.98,o),
(160,481.89,o),
(160,503.98,cs),
(160,526.07,o),
(142.09,543.98,o),
(120,543.98,cs),
(97.91,543.98,o),
(80,526.07,o),
(80,503.98,cs),
(80,481.89,o),
(97.91,463.98,o),
(120,463.98,cs)
);
}
);
width = 240;
}
);
unicode = 58;
},
{
glyphname = semicolon;
layers = (
{
layerId = "C25E9096-038E-4D62-BE1C-C6CD040495C0";
shapes = (
{
closed = 1;
nodes = (
(90.74,244.97,o),
(72.84,227.07,o),
(72.84,204.97,cs),
(72.84,182.88,o),
(90.74,164.97,o),
(112.82,164.97,cs),
(134.9,164.97,o),
(152.82,182.88,o),
(152.82,204.97,cs),
(152.82,227.07,o),
(134.92,244.97,o),
(112.82,244.97,cs)
);
},
{
closed = 1;
nodes = (
(15,-65.52,l),
(35.91,-75.98,o),
(61.34,-67.5,o),
(71.81,-46.59,cs),
(132.86,75.53,l),
(111.95,85.99,o),
(86.52,77.51,o),
(76.07,56.6,cs)
);
}
);
width = 206;
}
);
unicode = 59;
},
{
glyphname = less;
layers = (
{
layerId = "C25E9096-038E-4D62-BE1C-C6CD040495C0";
shapes = (
{
closed = 1;
nodes = (
(487.6,505.83,l),
(477.13,526.75,o),
(451.7,535.2,o),
(430.81,524.73,cs),
(68.68,343.36,ls),
(61.53,339.78,o),
(57.,332.46,o),
(57.,324.44,cs),
(57.,316.43,o),
(61.52,309.12,o),
(68.68,305.52,cs),
(430.81,124.04,ls),
(451.7,113.57,o),
(477.13,122.02,o),
(487.6,142.92,c),
(125.4,324.44,l),
(487.6,505.85,l)
);
}
);
width = 545;
}
);
unicode = 60;
},
{
glyphname = equal;
layers = (
{
layerId = "C25E9096-038E-4D62-BE1C-C6CD040495C0";
shapes = (
{
closed = 1;
nodes = (
(47,272.33,l),
(47,248.95,o),
(65.95,230,o),
(89.33,230,cs),
(286.98,230,l),
(286.98,253.38,o),
(268.03,272.33,o),
(244.65,272.33,cs)
);
},
{
closed = 1;
nodes = (
(286.98,379.51,l),
(286.98,402.89,o),
(268.03,421.84,o),
(244.65,421.84,cs),
(47.,421.84,l),
(47.,398.46,o),
(65.95,379.51,o),
(89.33,379.51,cs)
);
}
);
width = 334;
}
);
unicode = 61;
},
{
glyphname = greater;
layers = (
{
layerId = "C25E9096-038E-4D62-BE1C-C6CD040495C0";
shapes = (
{
closed = 1;
nodes = (
(113.79,524.73,ls),
(92.9,535.2,o),
(67.47,526.75,o),
(57,505.85,c),
(419.2,324.33,l),
(57,142.92,l),
(67.47,122.01,o),
(92.9,113.56,o),
(113.79,124.01,cs),
(475.92,305.39,ls),
(483.07,308.98,o),
(487.6,316.3,o),
(487.6,324.31,cs),
(487.6,332.33,o),
(483.08,339.64,o),
(475.92,343.25,c)
);
}
);
width = 545;
}
);
unicode = 62;
},
{
glyphname = question;
layers = (
{
layerId = "C25E9096-038E-4D62-BE1C-C6CD040495C0";
shapes = (
{
closed = 1;
nodes = (
(210.088,79.995,o),
(192.183,62.09,o),
(192.183,40.008,cs),
(192.183,17.926,o),
(210.088,0.007,o),
(232.184,0.007,cs),
(254.28,0.007,o),
(272.185,17.912,o),
(272.185,40.008,cs),
(272.185,62.104,o),
(254.28,79.995,o),
(232.184,79.995,cs)
);
},
{
closed = 1;
nodes = (
(147.342,638.174,o),
(60.766,590.187,o),
(58,489.556,c),
(79.644,488.964,o),
(99.257,502.354,o),
(106.453,522.785,cs),
(124.047,572.705,o),
(176.352,596.564,o),
(227.669,597.862,cs),
(289.06,599.584,o),
(358.169,567.103,o),
(363.968,493.168,c),
(365.351,461.93,o),
(348.363,432.85,o),
(308.856,398.888,c),
(307.784,397.9,l),
(209.199,300.529,o),
(210.314,250.694,o),
(211.499,197.924,cs),
(211.767,186.283,o),
(212.035,174.247,o),
(211.09,161.535,c),
(214.561,161.281,ls),
(236.064,159.686,o),
(254.308,176.942,o),
(253.828,198.488,c),
(253.828,198.615,o),
(253.828,198.742,o),
(253.828,198.869,c),
(252.77,245.911,o),
(251.952,283.09,o),
(337.033,367.282,c),
(368.173,394.147,o),
(408.851,436.476,o),
(406.227,495.751,c),
(398.213,597.905,o),
(307.614,642.449,o),
(226.597,640.177,cs)
);
}
);
width = 470;
}
);
unicode = 63;
},
{
glyphname = at;
layers = (
{
layerId = "C25E9096-038E-4D62-BE1C-C6CD040495C0";
shapes = (
{
closed = 1;
nodes = (
(361.13,332.1,o),
(333.26,344.94,o),
(302.35,344.94,cs),
(241.82,344.94,o),
(192.76,295.87,o),
(192.76,235.35,cs),
(192.76,174.83,o),
(241.83,125.75,o),
(302.35,125.75,cs),
(332.06,125.75,o),
(358.96,137.61,o),
(378.71,156.81,c),
(378.71,125.75,l),
(402.09,125.75,o),
(421.04,144.69,o),
(421.04,168.07,cs),
(421.04,340.54,l),
(402.34,340.54,o),
(386.65,328.33,o),
(381.05,311.51,c)
);
},
{
closed = 1;
nodes = (
(265.26,168.07,o),
(235.09,198.26,o),
(235.09,235.35,cs),
(235.09,272.44,o),
(265.27,302.61,o),
(302.35,302.61,cs),
(339.43,302.61,o),
(369.61,272.43,o),
(369.61,235.35,cs),
(369.61,198.27,o),
(339.43,168.07,o),
(302.35,168.07,cs)
);
},
{
closed = 1;
nodes = (
(169.87,467.26,o),
(80.83,378.21,o),
(68.54,268.04,cs),
(52.37,123.15,o),
(165.85,-0.,o),
(307.54,-0.,cs),
(334.97,-0.,o),
(361.89,4.59,o),
(387.54,13.63,c),
(379.95,35.18,o),
(358.04,47.45,o),
(335.41,44.26,cs),
(326.22,42.96,o),
(316.91,42.33,o),
(307.53,42.33,cs),
(190.77,42.33,o),
(97.25,143.82,o),
(110.58,263.22,cs),
(120.7,353.9,o),
(194.2,427.38,o),
(284.88,437.5,cs),
(404.28,450.82,o),
(505.75,357.31,o),
(505.75,240.56,cs),
(505.75,218.8,o),
(502.18,197.25,o),
(495.27,176.85,cs),
(488.03,155.47,o),
(495.85,131.97,o),
(515.39,120.68,c),
(515.96,120.36,l),
(536.98,156.74,o),
(548.1,198.3,o),
(548.1,240.56,c),
(548.08,382.25,o),
(424.93,495.72,o),
(280.04,479.55,cs)
);
}
);
width = 616;
}
);
unicode = 64;
},
{
glyphname = A;
layers = (
{
layerId = "C25E9096-038E-4D62-BE1C-C6CD040495C0";
shapes = (
{
closed = 1;
nodes = (
(367.402,627.239,ls),
(363.818,634.407,o),
(356.495,638.936,o),
(348.466,638.936,cs),
(340.438,638.936,o),
(333.129,634.407,o),
(329.531,627.239,cs),
(16.,0.205,l),
(45.009,0.205,o),
(71.536,16.601,o),
(84.502,42.534,cs),
(168.159,209.847,l),
(528.76,209.847,l),
(612.416,42.534,ls),
(625.383,16.587,o),
(651.895,0.205,o),
(680.904,0.205,c)
);
},
{
closed = 1;
nodes = (
(189.323,252.176,l),
(348.466,570.448,l),
(507.595,252.176,l)
);
}
);
width = 697;
}
);
leftKerningGroup = A2;
rightKerningGroup = A;
unicode = 65;
},
{
glyphname = B;
layers = (
{
layerId = "C25E9096-038E-4D62-BE1C-C6CD040495C0";
shapes = (
{
closed = 1;
nodes = (
(465.845,367.861,o),
(489.803,414.776,o),
(489.803,467.193,cs),
(489.803,468.689,ls),
(489.803,562.024,o),
(413.865,637.963,o),
(320.529,637.963,cs),
(100.165,637.963,ls),
(88.482,637.963,o),
(79,628.495,o),
(79,616.798,cs),
(79,21.37,ls),
(79,9.673,o),
(88.482,0.205,o),
(100.165,0.205,cs),
(394.224,0.205,ls),
(487.56,0.205,o),
(563.498,76.144,o),
(563.498,169.479,cs),
(563.498,170.975,ls),
(563.498,252.627,o),
(505.38,320.961,o),
(428.327,336.792,c)
);
},
{
closed = 1;
nodes = (
(121.329,595.634,l),
(320.529,595.634,ls),
(390.528,595.634,o),
(447.474,538.687,o),
(447.474,468.689,cs),
(447.474,467.193,ls),
(447.474,397.195,o),
(390.528,340.249,o),
(320.529,340.249,cs),
(121.329,340.249,l)
);
},
{
closed = 1;
nodes = (
(521.169,169.479,l),
(521.169,99.481,o),
(464.222,42.534,o),
(394.224,42.534,cs),
(121.329,42.534,l),
(121.329,297.92,l),
(394.224,297.92,ls),
(464.222,297.92,o),
(521.169,240.973,o),
(521.169,170.975,c)
);
}
);
width = 606;
}
);
leftKerningGroup = B;
unicode = 66;
},
{
glyphname = C;
layers = (
{
layerId = "C25E9096-038E-4D62-BE1C-C6CD040495C0";
shapes = (
{
closed = 1;
nodes = (
(471.15,63.29,l),
(437.95,49.63,o),
(402.17,42.53,o),
(365.88,42.53,cs),
(213.39,42.53,o),
(89.34,166.59,o),
(89.34,319.08,cs),
(89.34,471.58,o),
(213.39,595.63,o),
(365.88,595.63,cs),
(402.17,595.63,o),
(437.95,588.52,o),
(471.15,574.88,cs),
(492.09,566.27,o),
(516.13,574.46,o),
(527.61,593.95,c),
(478.78,622.75,o),
(422.85,637.98,o),
(365.86,637.98,cs),
(190.04,637.98,o),
(47.,494.93,o),
(47.,319.1,cs),
(47.,143.26,o),
(190.04,0.22,o),
(365.86,0.22,cs),
(422.85,0.22,o),
(478.78,15.44,o),
(527.61,44.24,c),
(516.12,63.74,o),
(492.06,71.91,o),
(471.12,63.3,c)
);
}
);
width = 555;
}
);
leftKerningGroup = C2;
rightKerningGroup = C;
unicode = 67;
},
{
glyphname = D;
layers = (
{
layerId = "C25E9096-038E-4D62-BE1C-C6CD040495C0";
shapes = (
{
closed = 1;
nodes = (
(79,639.936,l),
(79,0.006,l),
(238.99,0.006,ls),
(415.699,0.006,o),
(558.955,143.262,o),
(558.955,319.971,cs),
(558.955,496.681,o),
(415.699,639.936,o),
(238.99,639.936,c)
);
},
{
closed = 1;
nodes = (
(121.329,42.335,l),
(121.329,597.607,l),
(238.99,597.607,ls),
(392.08,597.607,o),
(516.626,473.061,o),
(516.626,319.971,cs),
(516.626,166.881,o),
(392.08,42.335,o),
(238.99,42.335,c)
);
}
);
width = 606;
}
);
rightKerningGroup = D;
unicode = 68;
},
{
glyphname = E;
layers = (
{
layerId = "C25E9096-038E-4D62-BE1C-C6CD040495C0";
shapes = (
{
closed = 1;
nodes = (
(121.329,42.569,l),
(121.329,298.758,l),
(356.622,298.758,ls),
(380.002,298.758,o),
(398.951,317.708,o),
(398.951,341.087,c),
(121.329,341.087,l),
(121.329,597.277,l),
(427.848,597.277,ls),
(451.227,597.277,o),
(470.177,616.226,o),
(470.177,639.606,c),
(100.165,639.606,ls),
(88.468,639.606,o),
(79,630.124,o),
(79,618.441,cs),
(79,21.404,ls),
(79,9.722,o),
(88.468,0.24,o),
(100.165,0.24,cs),
(470.177,0.24,l),
(470.177,23.62,o),
(451.227,42.569,o),
(427.848,42.569,c)
);
}
);
width = 500;
}
);
leftKerningGroup = B;
rightKerningGroup = E;
unicode = 69;
},
{
glyphname = F;
layers = (
{
layerId = "C25E9096-038E-4D62-BE1C-C6CD040495C0";
shapes = (
{
closed = 1;
nodes = (
(256.029,639.936,l),
(155.497,639.936,o),
(74,558.439,o),
(74,457.907,cs),
(74,0.006,l),
(97.38,0.006,o),
(116.329,18.955,o),
(116.329,42.335,cs),
(116.329,277.642,l),
(292.813,277.642,ls),
(316.193,277.642,o),
(335.142,296.591,o),
(335.142,319.971,c),
(116.329,319.971,l),
(116.329,457.907,ls),
(116.329,535.073,o),
(178.877,597.607,o),
(256.029,597.607,cs),
(372.801,597.607,ls),
(396.18,597.607,o),
(415.13,616.557,o),
(415.13,639.936,c)
);
}
);
width = 433;
}
);
unicode = 70;
},
{
glyphname = G;
layers = (
{
layerId = "C25E9096-038E-4D62-BE1C-C6CD040495C0";
shapes = (
{
closed = 1;
nodes = (
(663.071,271.335,l),
(431.221,271.335,l),
(431.221,247.955,o),
(450.17,229.006,o),
(473.55,229.006,cs),
(634.993,229.006,l),
(596.374,117.864,o),
(490.876,42.335,o),
(369.829,42.335,cs),
(215.159,42.335,o),
(89.329,166.811,o),
(89.329,319.802,cs),
(89.329,472.793,o),
(215.159,597.269,o),
(369.829,597.269,cs),
(483.003,597.269,o),
(584.014,529.867,o),
(627.656,429.293,cs),
(635.077,412.192,o),
(651.741,401.61,o),
(669.589,401.61,cs),
(673.54,401.61,o),
(677.561,402.132,o),
(681.54,403.218,c),
(643.684,542.382,o),
(515.498,639.598,o),
(369.829,639.598,cs),
(191.822,639.598,o),
(47.,496.145,o),
(47.,319.802,cs),
(47.,143.459,o),
(191.822,0.006,o),
(369.829,0.006,cs),
(519.491,0.006,o),
(648.538,100.523,o),
(683.643,244.456,cs),
(684.038,246.093,o),
(684.235,248.492,o),
(684.235,250.185,cs),
(684.235,261.882,o),
(674.768,271.349,o),
(663.071,271.349,c)
);
}
);
width = 730;
}
);
leftKerningGroup = C2;
unicode = 71;
},
{
glyphname = H;
layers = (
{
layerId = "C25E9096-038E-4D62-BE1C-C6CD040495C0";
shapes = (
{
closed = 1;
nodes = (
(516.626,341.13,l),
(121.329,341.13,l),
(121.329,639.93,l),
(97.949,639.93,o),
(79,620.981,o),
(79,597.601,cs),
(79,0,l),
(102.38,0,o),
(121.329,18.949,o),
(121.329,42.329,cs),
(121.329,298.801,l),
(516.626,298.801,l),
(516.626,0,l),
(540.005,0,o),
(558.955,18.949,o),
(558.955,42.329,cs),
(558.955,639.93,l),
(535.575,639.93,o),
(516.626,620.981,o),
(516.626,597.601,cs)
);
}
);
width = 638;
}
);
leftKerningGroup = B;
rightKerningGroup = H;
unicode = 72;
},
{
glyphname = I;
layers = (
{
layerId = "C25E9096-038E-4D62-BE1C-C6CD040495C0";
shapes = (
{
closed = 1;
nodes = (
(79,0.006,l),
(102.38,0.006,o),
(121.329,18.955,o),
(121.329,42.335,cs),
(121.329,639.936,l),
(97.949,639.936,o),
(79,620.987,o),
(79,597.607,cs)
);
}
);
width = 201;
}
);
leftKerningGroup = B;
rightKerningGroup = H;
unicode = 73;
},
{
glyphname = J;
layers = (
{
layerId = "C25E9096-038E-4D62-BE1C-C6CD040495C0";
shapes = (
{
closed = 1;
nodes = (
(195.304,638.965,l),
(195.304,615.585,o),
(214.253,596.636,o),
(237.633,596.636,cs),
(323.25,596.636,l),
(323.25,174.968,ls),
(323.25,106.875,o),
(271.99,47.332,o),
(204.052,42.788,cs),
(142.167,38.64,o),
(88.776,78.782,o),
(72.451,134.586,cs),
(66.257,155.765,o),
(47.068,170.453,o),
(25.,170.453,c),
(25.,71.149,o),
(110.462,-8.585,o),
(211.699,0.939,cs),
(299.927,9.25,o),
(365.565,86.811,o),
(365.565,175.433,cs),
(365.565,617.8,ls),
(365.565,629.483,o),
(356.084,638.965,o),
(344.401,638.965,cs)
);
}
);
width = 440;
}
);
unicode = 74;
},
{
glyphname = K;
layers = (
{
layerId = "C25E9096-038E-4D62-BE1C-C6CD040495C0";
shapes = (
{
closed = 1;
nodes = (
(599.788,639.936,l),
(551.618,639.936,o),
(504.604,625.163,o),
(465.083,597.607,cs),
(121.329,357.898,l),
(121.329,639.908,l),
(97.949,639.908,o),
(79.,620.959,o),
(79.,597.579,cs),
(79.,-0.022,l),
(102.38,-0.022,o),
(121.329,18.927,o),
(121.329,42.307,cs),
(121.329,277.12,l),
(463.051,42.279,ls),
(503.179,14.708,o),
(550.715,-0.05,o),
(599.393,-0.05,c),
(137.372,317.46,l)
);
}
);
width = 619;
}
);
leftKerningGroup = B;
unicode = 75;
},
{
glyphname = L;
layers = (
{
layerId = "C25E9096-038E-4D62-BE1C-C6CD040495C0";
shapes = (
{
closed = 1;
nodes = (
(121.343,42.335,l),
(121.343,597.607,ls),
(121.343,620.987,o),
(102.38,639.936,o),
(79,639.936,c),
(79,21.171,ls),
(79,9.474,o),
(88.482,0.006,o),
(100.179,0.006,cs),
(398.979,0.006,l),
(398.979,23.386,o),
(380.03,42.335,o),
(356.65,42.335,c)
);
}
);
width = 412;
}
);
unicode = 76;
},
{
glyphname = M;
layers = (
{
layerId = "C25E9096-038E-4D62-BE1C-C6CD040495C0";
shapes = (
{
closed = 1;
nodes = (
(542.702,624.966,l),
(540.373,633.926,o),
(532.514,640.331,o),
(523.273,640.797,cs),
(514.228,641.361,o),
(505.565,635.661,o),
(502.362,626.984,cs),
(364.115,251.723,l),
(225.869,626.984,ls),
(222.652,635.718,o),
(213.96,641.22,o),
(204.831,640.797,cs),
(195.547,640.289,o),
(187.688,633.77,o),
(185.459,624.74,cs),
(31.,-0.445,l),
(56.609,-0.445,o),
(78.916,17.022,o),
(85.054,41.884,cs),
(209.995,547.603,l),
(344.249,183.178,ls),
(347.311,174.853,o),
(355.24,169.336,o),
(364.115,169.336,cs),
(372.99,169.336,o),
(380.906,174.867,o),
(383.982,183.178,cs),
(518.687,548.858,l),
(649.893,41.898,ls),
(656.341,16.98,o),
(678.832,-0.431,o),
(704.568,-0.431,c),
(542.716,624.98,l)
);
}
);
width = 735;
}
);
unicode = 77;
},
{
glyphname = N;
layers = (
{
layerId = "C25E9096-038E-4D62-BE1C-C6CD040495C0";
shapes = (
{
closed = 1;
nodes = (
(559.941,597.607,l),
(559.941,80.953,l),
(117.659,631.16,ls),
(112.043,638.144,o),
(102.632,640.839,o),
(94.138,637.862,cs),
(85.658,634.885,o),
(80,626.871,o),
(80,617.897,cs),
(80,0.006,l),
(103.38,0.006,o),
(122.329,18.955,o),
(122.329,42.335,cs),
(122.329,557.79,l),
(564.625,7.583,ls),
(568.717,2.489,o),
(574.826,-0.319,o),
(581.119,-0.319,cs),
(583.461,-0.319,o),
(585.832,0.077,o),
(588.146,0.881,cs),
(596.626,3.858,o),
(602.284,11.872,o),
(602.284,20.846,cs),
(602.284,639.936,l),
(578.904,639.936,o),
(559.955,620.987,o),
(559.955,597.607,c)
);
}
);
width = 683;
}
);
leftKerningGroup = B;
rightKerningGroup = H;
unicode = 78;
},
{
glyphname = O;
layers = (
{
layerId = "C25E9096-038E-4D62-BE1C-C6CD040495C0";
shapes = (
{
closed = 1;
nodes = (
(190.256,639.485,o),
(47.,496.229,o),
(47.,319.52,cs),
(47.,142.81,o),
(190.256,-0.445,o),
(366.965,-0.445,cs),
(543.675,-0.445,o),
(686.93,142.81,o),
(686.93,319.52,cs),
(686.93,496.229,o),
(543.689,639.485,o),
(366.965,639.485,cs)
);
},
{
closed = 1;
nodes = (
(213.875,41.884,o),
(89.329,166.43,o),
(89.329,319.52,cs),
(89.329,472.61,o),
(213.875,597.156,o),
(366.965,597.156,cs),
(520.055,597.156,o),
(644.601,472.61,o),
(644.601,319.52,cs),
(644.601,166.43,o),
(520.055,41.884,o),
(366.965,41.884,cs)
);
}
);
width = 734;
}
);
leftKerningGroup = C2;
rightKerningGroup = D;
unicode = 79;
},
{
glyphname = P;
layers = (
{
layerId = "C25E9096-038E-4D62-BE1C-C6CD040495C0";
shapes = (
{
closed = 1;
nodes = (
(109.024,639.88,l),
(109.024,639.485,l),
(104.071,639.485,ls),
(90.78,639.485,o),
(80,628.705,o),
(80,615.414,cs),
(80,-0.431,l),
(103.38,-0.431,o),
(122.329,18.518,o),
(122.329,41.898,cs),
(122.329,277.614,l),
(395.027,277.614,ls),
(494.909,277.614,o),
(576.167,358.872,o),
(576.167,458.754,cs),
(576.167,558.636,o),
(494.909,639.88,o),
(395.041,639.88,cs)
);
},
{
closed = 1;
nodes = (
(122.343,319.929,l),
(122.343,597.551,l),
(395.041,597.551,ls),
(471.586,597.551,o),
(533.852,535.285,o),
(533.852,458.74,cs),
(533.852,382.195,o),
(471.586,319.929,o),
(395.041,319.929,c)
);
}
);
width = 613;
}
);
leftKerningGroup = B;
unicode = 80;
},
{
glyphname = Q;
layers = (
{
layerId = "C25E9096-038E-4D62-BE1C-C6CD040495C0";
shapes = (
{
closed = 1;
nodes = (
(470.789,50.9,o),
(457.484,62.173,o),
(447.819,77.299,c),
(499.291,135.925,o),
(531.955,222.981,o),
(531.955,320.253,cs),
(531.955,496.78,o),
(424.51,639.88,o),
(291.977,639.88,cs),
(159.445,639.88,o),
(52.,496.78,o),
(52.,320.253,cs),
(52.,143.727,o),
(159.445,0.641,o),
(291.977,0.641,cs),
(337.777,0.641,o),
(380.572,17.742,o),
(416.975,47.386,c),
(436.291,21.128,o),
(468.235,0.006,o),
(531.729,0.006,c),
(531.729,0.006,o),
(531.743,0.556,o),
(531.757,1.544,c),
(531.898,23.16,o),
(516.392,41.122,o),
(495.255,45.651,cs)
);
},
{
closed = 1;
nodes = (
(291.977,42.956,l),
(182.994,42.956,o),
(94.329,167.347,o),
(94.329,320.239,cs),
(94.329,473.132,o),
(182.994,597.537,o),
(291.977,597.537,cs),
(400.96,597.537,o),
(489.626,473.146,o),
(489.626,320.239,cs),
(489.626,241.352,o),
(465.907,170.239,o),
(428.093,119.698,c),
(411.063,160.405,o),
(386.117,206.586,o),
(292.189,206.586,c),
(292.189,206.586,o),
(292.175,206.078,o),
(292.161,205.189,c),
(291.935,183.517,o),
(307.47,165.442,o),
(328.677,160.899,cs),
(369.256,152.193,o),
(379.274,127.36,o),
(392.354,95.289,cs),
(393.68,92.029,o),
(395.077,88.685,o),
(396.488,85.327,c),
(366.124,58.632,o),
(330.37,42.956,o),
(291.963,42.956,c)
);
}
);
width = 589;
}
);
leftKerningGroup = Q;
unicode = 81;
},
{
glyphname = R;
layers = (
{
layerId = "C25E9096-038E-4D62-BE1C-C6CD040495C0";
shapes = (
{
closed = 1;
nodes = (
(601.169,467.454,l),
(601.169,562.426,o),
(523.905,639.69,o),
(428.932,639.69,cs),
(101.165,639.69,ls),
(89.468,639.69,o),
(80,630.223,o),
(80,618.526,cs),
(80,-0.,l),
(103.38,-0.,o),
(122.329,18.949,o),
(122.329,42.329,cs),
(122.329,286.144,l),
(428.932,286.144,ls),
(432.135,286.144,o),
(435.268,286.455,o),
(438.428,286.624,c),
(438.428,286.144,l),
(504.828,286.144,o),
(558.84,227.787,o),
(558.84,156.067,cs),
(558.84,42.329,ls),
(558.84,18.949,o),
(577.789,0,o),
(601.169,0,c),
(601.169,156.067,ls),
(601.169,222.298,o),
(565.683,279.837,o),
(513.844,308.706,c),
(565.909,338.364,o),
(601.169,394.281,o),
(601.169,458.381,c)
);
},
{
closed = 1;
nodes = (
(122.329,328.459,l),
(122.329,597.361,l),
(428.932,597.361,ls),
(500.567,597.361,o),
(558.84,539.088,o),
(558.84,467.454,cs),
(558.84,458.367,ls),
(558.84,386.732,o),
(500.567,328.459,o),
(428.932,328.459,c)
);
}
);
width = 669;
}
);
unicode = 82;
},
{
glyphname = S;
layers = (
{
layerId = "C25E9096-038E-4D62-BE1C-C6CD040495C0";
shapes = (
{
closed = 1;
nodes = (
(324.22,342.35,l),
(189.29,362.25,o),
(100.38,381.94,o),
(94.34,469.64,c),
(94.29,504.56,o),
(114.35,533.88,o),
(154.01,556.79,cs),
(199.56,583.12,o),
(263.62,596.34,o),
(327.11,596.34,cs),
(388.59,596.34,o),
(449.54,583.94,o),
(492.62,559.02,cs),
(517.69,544.52,o),
(534.51,527.13,o),
(542.92,507.11,cs),
(550.83,488.27,o),
(568.09,475.08,o),
(588.52,475.04,c),
(591.53,475.04,l),
(591.61,524.49,o),
(564.75,566.22,o),
(513.8,595.68,cs),
(464.27,624.32,o),
(395.92,638.57,o),
(327.03,638.57,cs),
(256.2,638.57,o),
(184.79,623.49,o),
(132.82,593.45,cs),
(79.87,562.84,o),
(51.93,519.99,o),
(52.06,468.17,c),
(60.92,338.39,o),
(197.53,318.24,o),
(318.04,300.48,cs),
(453.87,280.45,o),
(543.37,260.54,o),
(549.2,171.36,c),
(549.25,135.39,o),
(528.65,105.23,o),
(487.99,81.7,cs),
(442.3,55.29,o),
(378.1,42.01,o),
(314.65,42.01,cs),
(253.9,42.01,o),
(193.82,54.2,o),
(151.37,78.73,cs),
(126.1,93.33,o),
(109.16,110.91,o),
(100.68,131.26,cs),
(92.69,150.4,o),
(75.17,163.82,o),
(54.41,163.85,c),
(52.,163.85,l),
(51.93,113.79,o),
(78.98,71.69,o),
(130.2,42.08,cs),
(179.04,13.85,o),
(246.56,-0.2,o),
(314.74,-0.2,cs),
(385.54,-0.2,o),
(457.06,14.94,o),
(509.17,45.06,cs),
(563.12,76.26,o),
(591.6,119.96,o),
(591.47,172.75,c),
(582.93,304.2,o),
(445.46,324.46,o),
(324.19,342.35,c)
);
}
);
width = 644;
}
);
leftKerningGroup = S2;
rightKerningGroup = S;
unicode = 83;
},
{
glyphname = T;
layers = (
{
layerId = "C25E9096-038E-4D62-BE1C-C6CD040495C0";
shapes = (
{
closed = 1;
nodes = (
(122.329,640.989,l),
(98.949,640.989,o),
(80,622.039,o),
(80,598.659,c),
(298.799,598.659,l),
(298.799,0,l),
(322.178,0,o),
(341.128,18.949,o),
(341.128,42.329,cs),
(341.128,598.659,l),
(517.626,598.659,ls),
(541.005,598.659,o),
(559.955,617.609,o),
(559.955,640.988,c)
);
}
);
width = 640;
}
);
unicode = 84;
},
{
glyphname = U;
layers = (
{
layerId = "C25E9096-038E-4D62-BE1C-C6CD040495C0";
shapes = (
{
closed = 1;
nodes = (
(518.153,245.262,ls),
(518.153,129.704,o),
(421.29,36.34,o),
(304.49,42.097,cs),
(195.225,47.487,o),
(111.329,141.753,o),
(111.329,251.16,cs),
(111.329,639.458,l),
(87.949,639.458,o),
(69,620.509,o),
(69,597.129,cs),
(69,251.766,ls),
(69,114.31,o),
(181.468,-2.744,o),
(318.911,-0.444,cs),
(452.501,1.785,o),
(560.482,111.149,o),
(560.482,245.276,cs),
(560.482,639.458,l),
(537.103,639.458,o),
(518.153,620.509,o),
(518.153,597.129,c)
);
}
);
width = 630;
}
);
leftKerningGroup = U2;
rightKerningGroup = U;
unicode = 85;
},
{
glyphname = V;
layers = (
{
layerId = "C25E9096-038E-4D62-BE1C-C6CD040495C0";
shapes = (
{
closed = 1;
nodes = (
(579.454,597.593,l),
(331.575,70.865,l),
(83.711,597.593,ls),
(71.548,623.442,o),
(45.558,639.922,o),
(17.,639.922,c),
(312.414,12.14,ls),
(315.914,4.719,o),
(323.363,-0.008,o),
(331.561,-0.008,cs),
(339.759,-0.008,o),
(347.223,4.719,o),
(350.708,12.14,cs),
(646.179,639.936,l),
(617.621,639.936,o),
(591.631,623.442,o),
(579.468,597.607,c)
);
}
);
width = 664;
}
);
unicode = 86;
},
{
glyphname = W;
layers = (
{
layerId = "C25E9096-038E-4D62-BE1C-C6CD040495C0";
shapes = (
{
closed = 1;
nodes = (
(549.612,104.256,l),
(427.874,566.32,ls),
(425.419,575.618,o),
(417.01,582.095,o),
(407.401,582.095,cs),
(397.792,582.095,o),
(389.383,575.618,o),
(386.928,566.32,cs),
(265.19,104.256,l),
(134.929,598.659,ls),
(128.354,623.605,o),
(105.807,640.989,o),
(80.,640.989,c),
(244.716,15.789,ls),
(247.171,6.49,o),
(255.581,0.014,o),
(265.19,0.014,cs),
(274.798,0.014,o),
(283.208,6.49,o),
(285.663,15.789,cs),
(407.401,477.852,l),
(529.139,15.775,ls),
(531.594,6.476,o),
(540.004,0.,o),
(549.612,0.,cs),
(559.221,0.,o),
(567.63,6.476,o),
(570.085,15.775,cs),
(734.802,640.989,l),
(708.995,640.989,o),
(686.448,623.605,o),
(679.873,598.659,cs)
);
}
);
width = 815;
}
);
unicode = 87;
},
{
glyphname = X;
layers = (
{
layerId = "C25E9096-038E-4D62-BE1C-C6CD040495C0";
shapes = (
{
closed = 1;
nodes = (
(632.182,640.974,l),
(598.347,640.974,o),
(566.403,625.355,o),
(545.633,598.645,cs),
(356.098,354.971,l),
(166.549,598.645,ls),
(145.779,625.355,o),
(113.835,640.974,o),
(80,640.974,c),
(329.276,320.487,l),
(80,0,l),
(113.835,0,o),
(145.779,15.619,o),
(166.549,42.329,cs),
(356.084,286.017,l),
(545.619,42.329,ls),
(566.389,15.619,o),
(598.333,0,o),
(632.168,0,c),
(382.892,320.487,l)
);
}
);
width = 712;
}
);
unicode = 88;
},
{
glyphname = Y;
layers = (
{
layerId = "C25E9096-038E-4D62-BE1C-C6CD040495C0";
shapes = (
{
closed = 1;
nodes = (
(530.869,639.936,l),
(497.951,639.936,o),
(467.023,624.204,o),
(447.636,597.607,cs),
(271.435,355.894,l),
(95.233,597.607,ls),
(75.846,624.204,o),
(44.918,639.936,o),
(12,639.936,c),
(250.27,313.072,l),
(250.27,0.006,l),
(273.65,0.006,o),
(292.599,18.955,o),
(292.599,42.335,cs),
(292.599,313.072,l)
);
}
);
width = 543;
}
);
leftKerningGroup = Y2;
rightKerningGroup = Y;
unicode = 89;
},
{
glyphname = Z;
layers = (
{
layerId = "C25E9096-038E-4D62-BE1C-C6CD040495C0";
shapes = (
{
closed = 1;
nodes = (
(144.449,42.456,l),
(581.454,606.547,ls),
(586.406,612.924,o),
(587.281,621.574,o),
(583.725,628.826,cs),
(580.17,636.078,o),
(572.804,640.678,o),
(564.72,640.678,cs),
(147.948,640.678,l),
(124.568,640.664,o),
(105.619,621.715,o),
(105.619,598.335,c),
(521.558,598.335,l),
(84.44,34.131,ls),
(79.488,27.74,o),
(78.599,19.09,o),
(82.183,11.824,cs),
(85.738,4.586,o),
(93.104,-0.,o),
(101.174,-0.,c),
(101.231,-0.,l),
(585.63,1.34,l),
(585.574,24.72,o),
(566.568,43.613,o),
(543.188,43.557,c)
);
}
);
width = 666;
}
);
leftKerningGroup = Z2;
rightKerningGroup = Z;
unicode = 90;
},
{
glyphname = bracketleft;
layers = (
{
layerId = "C25E9096-038E-4D62-BE1C-C6CD040495C0";
shapes = (
{
closed = 1;
nodes = (
(157.591,594.538,l),
(167.665,597.98,o),
(174.819,606.898,o),
(174.819,617.536,cs),
(174.819,639.604,l),
(174.819,639.604,o),
(174.776,639.703,o),
(174.72,639.703,c),
(121.936,639.646,o),
(79,596.682,o),
(79,543.87,cs),
(79,95.986,ls),
(79,43.188,o),
(121.936,0.21,o),
(174.72,0.153,c),
(174.776,0.153,o),
(174.819,0.196,o),
(174.819,0.252,c),
(174.819,22.334,ls),
(174.819,32.972,o),
(167.665,41.89,o),
(157.605,45.332,cs),
(136.539,52.514,o),
(121.329,72.508,o),
(121.329,95.986,cs),
(121.329,543.87,ls),
(121.329,567.348,o),
(136.525,587.342,o),
(157.591,594.523,c)
);
}
);
width = 246;
}
);
unicode = 91;
},
{
glyphname = backslash;
layers = (
{
layerId = "C25E9096-038E-4D62-BE1C-C6CD040495C0";
shapes = (
{
closed = 1;
nodes = (
(115.373,597.707,ls),
(109.687,620.381,o),
(86.688,634.152,o),
(64.,628.466,c),
(213.661,32.163,ls),
(219.362,9.489,o),
(242.346,-4.282,o),
(265.035,1.404,c)
);
}
);
width = 329;
}
);
unicode = 92;
},
{
glyphname = bracketright;
layers = (
{
layerId = "C25E9096-038E-4D62-BE1C-C6CD040495C0";
shapes = (
{
closed = 1;
nodes = (
(71.099,639.703,l),
(71.099,639.703,o),
(71,639.66,o),
(71,639.604,c),
(71,617.522,ls),
(71,606.883,o),
(78.154,597.966,o),
(88.228,594.523,cs),
(109.294,587.342,o),
(124.49,567.348,o),
(124.49,543.87,cs),
(124.49,95.986,ls),
(124.49,72.508,o),
(109.294,52.514,o),
(88.228,45.332,cs),
(78.154,41.89,o),
(71,32.972,o),
(71,22.334,cs),
(71,0.266,l),
(71,0.266,o),
(71.042,0.167,o),
(71.099,0.167,c),
(123.897,0.224,o),
(166.819,43.188,o),
(166.819,96.,cs),
(166.819,543.884,ls),
(166.819,596.682,o),
(123.897,639.66,o),
(71.099,639.717,c)
);
}
);
width = 246;
}
);
unicode = 93;
},
{
glyphname = asciicircum;
layers = (
{
layerId = "C25E9096-038E-4D62-BE1C-C6CD040495C0";
shapes = (
{
closed = 1;
nodes = (
(207.86,544.66,l),
(204.27,551.82,o),
(196.95,556.37,o),
(188.92,556.37,cs),
(180.89,556.37,o),
(173.57,551.84,o),
(169.99,544.66,cs),
(50.,304.52,l),
(70.91,294.08,o),
(96.33,302.56,o),
(106.79,323.47,cs),
(188.92,487.85,l),
(271.07,323.47,ls),
(281.51,302.56,o),
(306.93,294.08,o),
(327.84,304.52,c),
(207.84,544.66,l)
);
}
);
width = 378;
}
);
unicode = 94;
},
{
glyphname = underscore;
layers = (
{
layerId = "C25E9096-038E-4D62-BE1C-C6CD040495C0";
shapes = (
{
closed = 1;
nodes = (
(82.329,42.329,ls),
(58.949,42.329,o),
(40,23.38,o),
(40,0,c),
(477.626,0,ls),
(501.005,0,o),
(519.955,18.949,o),
(519.955,42.329,c)
);
}
);
width = 559;
}
);
unicode = 95;
},
{
glyphname = grave;
layers = (
{
layerId = "C25E9096-038E-4D62-BE1C-C6CD040495C0";
shapes = (
{
closed = 1;
nodes = (
(80.81,526.33,ls),
(70.35,547.24,o),
(44.92,555.72,o),
(24,545.26,c),
(45.07,503.14,ls),
(55.52,482.23,o),
(80.95,473.75,o),
(101.87,484.21,c)
);
}
);
width = 141;
}
);
unicode = 96;
},
{
glyphname = a;
layers = (
{
layerId = "C25E9096-038E-4D62-BE1C-C6CD040495C0";
shapes = (
{
closed = 1;
nodes = (
(484.626,376.334,l),
(441.351,439.122,o),
(369.011,480.336,o),
(286.977,480.336,c),
(154.431,480.322,o),
(47,372.891,o),
(47,240.359,cs),
(47,107.827,o),
(154.431,0.382,o),
(286.977,0.382,cs),
(368.997,0.382,o),
(441.337,41.596,o),
(484.626,104.384,c),
(484.626,0.382,l),
(508.005,0.382,o),
(526.955,19.331,o),
(526.955,42.711,cs),
(526.955,480.336,l),
(503.575,480.336,o),
(484.626,461.387,o),
(484.626,438.007,c)
);
},
{
closed = 1;
nodes = (
(177.994,42.711,o),
(89.329,131.376,o),
(89.329,240.359,cs),
(89.329,349.342,o),
(177.994,438.007,o),
(286.977,438.007,cs),
(395.96,438.007,o),
(484.626,349.342,o),
(484.626,240.359,cs),
(484.626,131.376,o),
(395.96,42.711,o),
(286.977,42.711,cs)
);
}
);
width = 599;
}
);
leftKerningGroup = a2;
rightKerningGroup = a;
unicode = 97;
},
{
glyphname = b;
layers = (
{
layerId = "C25E9096-038E-4D62-BE1C-C6CD040495C0";
shapes = (
{
closed = 1;
nodes = (
(314.263,483.92,l),
(230.776,483.92,o),
(157.307,441.239,o),
(114.329,376.56,c),
(114.329,640.326,l),
(90.949,640.326,o),
(72.,621.377,o),
(72.,597.997,cs),
(72.,0.396,l),
(95.38,0.396,o),
(114.329,19.345,o),
(114.329,42.725,cs),
(114.329,111.34,l),
(157.321,46.661,o),
(230.776,3.98,o),
(314.263,3.98,cs),
(446.795,3.98,o),
(554.241,111.425,o),
(554.241,243.957,cs),
(554.241,376.489,o),
(446.795,483.934,o),
(314.263,483.934,c)
);
},
{
closed = 1;
nodes = (
(205.28,46.295,o),
(116.615,134.96,o),
(116.615,243.943,cs),
(116.615,352.926,o),
(205.28,441.591,o),
(314.263,441.591,cs),
(423.246,441.591,o),
(511.911,352.926,o),
(511.911,243.943,cs),
(511.911,134.96,o),
(423.246,46.295,o),
(314.263,46.295,cs)
);
}
);
width = 602;
}
);
unicode = 98;
},
{
glyphname = c;
layers = (
{
layerId = "C25E9096-038E-4D62-BE1C-C6CD040495C0";
shapes = (
{
closed = 1;
nodes = (
(405.005,81.369,l),
(371.113,55.986,o),
(329.603,41.919,o),
(286.653,41.919,cs),
(167.976,41.919,o),
(73.442,147.219,o),
(91.572,269.282,cs),
(101.181,334.003,o),
(143.524,390.696,o),
(202.968,418.04,cs),
(272.543,450.055,o),
(349.131,438.951,o),
(405.005,397.102,cs),
(423.235,383.458,o),
(448.307,383.824,o),
(465.267,399.021,c),
(419.834,449.773,o),
(354.746,478.895,o),
(286.653,478.895,cs),
(154.502,478.895,o),
(47.,371.394,o),
(47.,239.243,cs),
(47.,107.091,o),
(154.502,-0.396,o),
(286.653,-0.396,cs),
(354.732,-0.396,o),
(419.82,28.712,o),
(465.253,79.465,c),
(448.293,94.647,o),
(423.22,95.042,o),
(404.991,81.383,c)
);
}
);
width = 502;
}
);
leftKerningGroup = a2;
rightKerningGroup = c;
unicode = 99;
},
{
glyphname = d;
layers = (
{
layerId = "C25E9096-038E-4D62-BE1C-C6CD040495C0";
shapes = (
{
closed = 1;
nodes = (
(526.955,240.345,o),
(526.955,240.387,o),
(526.955,240.415,c),
(526.955,640.326,l),
(503.575,640.326,o),
(484.626,621.377,o),
(484.626,597.997,cs),
(484.626,376.32,l),
(441.351,439.108,o),
(369.011,480.322,o),
(286.977,480.322,cs),
(154.445,480.322,o),
(47,372.877,o),
(47,240.345,cs),
(47,107.813,o),
(154.445,0.368,o),
(286.977,0.368,cs),
(369.011,0.368,o),
(441.337,41.582,o),
(484.626,104.37,c),
(484.626,0.368,l),
(508.005,0.368,o),
(526.955,19.317,o),
(526.955,42.697,c),
(526.955,42.697,o),
(526.955,240.317,o),
(526.955,240.345,c)
);
},
{
closed = 1;
nodes = (
(177.994,42.697,o),
(89.329,131.362,o),
(89.329,240.345,cs),
(89.329,349.328,o),
(177.994,437.993,o),
(286.977,437.993,cs),
(395.961,437.993,o),
(484.583,349.37,o),
(484.626,240.415,c),
(484.626,240.274,l),
(484.583,131.319,o),
(395.946,42.697,o),
(286.977,42.697,c)
);
}
);
width = 599;
}
);
rightKerningGroup = H;
unicode = 100;
},
{
glyphname = e;
layers = (
{
layerId = "C25E9096-038E-4D62-BE1C-C6CD040495C0";
shapes = (
{
closed = 1;
nodes = (
(449.152,127.58,l),
(413.442,76.25,o),
(354.102,42.56,o),
(286.962,42.56,cs),
(177.982,42.56,o),
(89.312,131.21,o),
(89.312,240.19,c),
(493.782,240.19,l),
(526.942,240.2,l),
(526.942,381.74,o),
(404.402,494.66,o),
(259.632,478.66,cs),
(149.592,466.49,o),
(60.642,377.55,o),
(48.512,267.51,cs),
(32.522,122.74,o),
(145.442,0.23,o),
(286.982,0.23,cs),
(391.472,0.23,o),
(480.122,67.13,o),
(513.062,160.36,c),
(509.572,160.36,ls),
(485.182,160.36,o),
(463.092,147.59,o),
(449.152,127.57,c)
);
},
{
closed = 1;
nodes = (
(381.412,437.85,o),
(460.482,371.23,o),
(479.932,282.52,c),
(93.982,282.52,l),
(113.432,371.21,o),
(192.512,437.85,o),
(286.962,437.85,cs)
);
}
);
width = 571;
}
);
leftKerningGroup = a2;
rightKerningGroup = e;
unicode = 101;
},
{
glyphname = f;
layers = (
{
layerId = "C25E9096-038E-4D62-BE1C-C6CD040495C0";
shapes = (
{
closed = 1;
nodes = (
(257.044,597.983,o),
(274.991,615.916,o),
(274.991,638.054,cs),
(274.991,640.326,l),
(234.92,640.326,ls),
(157.006,640.326,o),
(93.837,577.157,o),
(93.837,499.243,cs),
(93.837,480.336,l),
(77.329,480.336,ls),
(53.949,480.336,o),
(35,461.387,o),
(35,438.007,c),
(93.837,438.007,l),
(93.837,0.368,l),
(117.217,0.368,o),
(136.166,19.317,o),
(136.166,42.697,cs),
(136.166,437.993,l),
(232.634,437.993,ls),
(256.014,437.993,o),
(274.963,456.943,o),
(274.963,480.322,c),
(136.166,480.322,l),
(136.166,499.229,ls),
(136.166,553.763,o),
(180.386,597.983,o),
(234.92,597.983,cs)
);
}
);
width = 295;
}
);
unicode = 102;
},
{
glyphname = g;
layers = (
{
layerId = "C25E9096-038E-4D62-BE1C-C6CD040495C0";
shapes = (
{
closed = 1;
nodes = (
(179.162,160.92,l),
(297.09,160.92,l),
(297.09,161.4,l),
(429.622,161.4,o),
(537.068,233.02,o),
(537.068,321.389,cs),
(537.068,368.092,o),
(506.859,409.998,o),
(458.971,439.247,c),
(496.107,439.247,ls),
(519.487,439.247,o),
(538.436,458.197,o),
(538.436,481.576,c),
(298.459,481.576,l),
(298.459,481.322,l),
(297.993,481.322,o),
(297.542,481.365,o),
(297.076,481.365,c),
(164.544,481.365,o),
(57.099,409.73,o),
(57.099,321.375,cs),
(57.099,271.751,o),
(90.99,227.419,o),
(144.17,198.071,c),
(93.812,182.987,o),
(57,136.298,o),
(57,81.101,cs),
(57,29.982,o),
(88.592,-13.829,o),
(133.263,-32.016,c),
(86.489,-53.914,o),
(57.099,-84.97,o),
(57.099,-119.538,cs),
(57.099,-185.811,o),
(164.544,-239.527,o),
(297.076,-239.527,cs),
(429.608,-239.527,o),
(537.054,-185.811,o),
(537.054,-119.538,cs),
(537.054,-53.265,o),
(429.608,0.45,o),
(297.076,0.45,c),
(297.076,1.297,l),
(179.147,1.297,ls),
(135.139,1.297,o),
(99.343,37.093,o),
(99.343,81.101,cs),
(99.343,125.109,o),
(135.139,160.906,o),
(179.147,160.906,c)
);
},
{
closed = 1;
nodes = (
(99.456,385.165,o),
(189.97,439.05,o),
(297.104,439.05,cs),
(404.239,439.05,o),
(494.753,385.165,o),
(494.753,321.389,cs),
(494.753,257.613,o),
(404.239,203.729,o),
(297.104,203.729,cs),
(189.97,203.729,o),
(99.456,257.613,o),
(99.456,321.389,cs)
);
},
{
closed = 1;
nodes = (
(415.922,-41.85,o),
(494.753,-88.596,o),
(494.753,-119.51,cs),
(494.753,-150.424,o),
(415.922,-197.17,o),
(297.104,-197.17,cs),
(178.287,-197.17,o),
(99.456,-150.424,o),
(99.456,-119.51,cs),
(99.456,-88.596,o),
(178.287,-41.85,o),
(297.104,-41.85,cs)
);
}
);
width = 579;
}
);
unicode = 103;
},
{
glyphname = h;
layers = (
{
layerId = "C25E9096-038E-4D62-BE1C-C6CD040495C0";
shapes = (
{
closed = 1;
nodes = (
(282.051,480.941,l),
(212.264,477.499,o),
(152.171,440.559,o),
(114.329,386.661,c),
(114.329,641.326,l),
(90.949,641.326,o),
(72.,622.377,o),
(72.,598.997,cs),
(72.,0.493,l),
(95.38,0.493,o),
(114.329,19.442,o),
(114.329,42.822,cs),
(114.329,220.096,l),
(114.385,220.096,l),
(114.385,260.097,ls),
(114.385,364.381,o),
(204.123,448.094,o),
(310.439,438.09,cs),
(403.084,429.371,o),
(472.023,347.915,o),
(472.023,254.848,cs),
(472.023,1.396,l),
(495.403,1.396,o),
(514.352,20.345,o),
(514.352,43.725,cs),
(514.352,260.097,ls),
(514.352,385.729,o),
(409.038,487.234,o),
(282.051,480.955,c)
);
}
);
width = 576;
}
);
unicode = 104;
},
{
glyphname = i;
layers = (
{
layerId = "C25E9096-038E-4D62-BE1C-C6CD040495C0";
shapes = (
{
closed = 1;
nodes = (
(72.42,0.48,l),
(95.8,0.48,o),
(114.75,19.43,o),
(114.75,42.81,cs),
(114.75,480.21,l),
(91.37,480.21,o),
(72.42,461.26,o),
(72.42,437.88,cs)
);
},
{
closed = 1;
nodes = (
(71.92,640.33,o),
(54,622.42,o),
(54,600.33,cs),
(54,578.23,o),
(71.9,560.32,o),
(94,560.32,cs),
(116.09,560.32,o),
(133.98,578.23,o),
(133.98,600.33,cs),
(133.98,622.42,o),
(116.08,640.33,o),
(94,640.33,cs)
);
}
);
width = 187;
}
);
rightKerningGroup = i;
unicode = 105;
},
{
glyphname = j;
layers = (
{
layerId = "C25E9096-038E-4D62-BE1C-C6CD040495C0";
shapes = (
{
closed = 1;
nodes = (
(116.082,557.31,o),
(133.991,575.219,o),
(133.991,597.311,cs),
(133.991,619.403,o),
(116.082,637.312,o),
(93.99,637.312,cs),
(71.898,637.312,o),
(53.989,619.403,o),
(53.989,597.311,cs),
(53.989,575.219,o),
(71.898,557.31,o),
(93.99,557.31,cs)
);
},
{
closed = 1;
nodes = (
(72.825,-58.563,ls),
(72.825,-122.932,o),
(28.803,-177.197,o),
(-30.712,-192.845,cs),
(-51.749,-198.376,o),
(-66,-217.974,o),
(-66,-239.717,c),
(33.897,-239.717,o),
(115.154,-158.46,o),
(115.154,-58.563,cs),
(115.154,477.322,l),
(91.774,477.322,o),
(72.825,458.373,o),
(72.825,434.993,c)
);
}
);
width = 188;
}
);
rightKerningGroup = i;
unicode = 106;
},
{
glyphname = k;
layers = (
{
layerId = "C25E9096-038E-4D62-BE1C-C6CD040495C0";
shapes = (
{
closed = 1;
nodes = (
(427.07,466.407,l),
(411.676,484.001,o),
(384.939,485.779,o),
(367.344,470.386,cs),
(114.329,249.005,l),
(114.329,642.326,l),
(90.949,642.326,o),
(72.,623.377,o),
(72.,599.997,cs),
(72.,2.396,l),
(95.38,2.396,o),
(114.329,21.345,o),
(114.329,44.725,cs),
(114.329,164.191,l),
(366.032,6.883,ls),
(385.856,-5.506,o),
(411.973,0.519,o),
(424.361,20.343,c),
(128.566,205.222,l),
(427.084,466.435,l)
);
}
);
width = 455;
}
);
unicode = 107;
},
{
glyphname = l;
layers = (
{
layerId = "C25E9096-038E-4D62-BE1C-C6CD040495C0";
shapes = (
{
closed = 1;
nodes = (
(72,0.382,l),
(95.38,0.382,o),
(114.329,19.331,o),
(114.329,42.711,cs),
(114.329,640.326,l),
(90.949,640.326,o),
(72,621.377,o),
(72,597.997,cs)
);
}
);
width = 187;
}
);
rightKerningGroup = H;
unicode = 108;
},
{
glyphname = m;
layers = (
{
layerId = "C25E9096-038E-4D62-BE1C-C6CD040495C0";
shapes = (
{
closed = 1;
nodes = (
(622.969,480.082,l),
(548.173,476.4,o),
(485.456,430.557,o),
(453.907,366.838,c),
(421.257,433.887,o),
(352.613,480.322,o),
(273.148,480.322,cs),
(208.568,480.322,o),
(151.155,449.606,o),
(114.329,402.155,c),
(114.329,480.322,l),
(90.949,480.322,o),
(72,461.373,o),
(72,437.993,cs),
(72,0.368,l),
(95.38,0.368,o),
(114.329,19.317,o),
(114.329,42.697,cs),
(114.329,279.175,ls),
(114.329,366.754,o),
(185.569,437.993,o),
(273.148,437.993,cs),
(360.726,437.993,o),
(431.966,366.754,o),
(431.966,279.175,c),
(432.248,279.175,l),
(432.192,277.228,o),
(431.966,275.309,o),
(431.966,273.347,cs),
(431.966,0.438,l),
(455.346,0.438,o),
(474.295,19.387,o),
(474.295,42.767,cs),
(474.295,279.175,ls),
(474.295,371.805,o),
(554.001,446.163,o),
(648.437,437.274,cs),
(730.724,429.527,o),
(791.932,357.173,o),
(791.932,274.533,cs),
(791.932,0.368,l),
(815.312,0.368,o),
(834.261,19.317,o),
(834.261,42.697,cs),
(834.261,279.175,ls),
(834.261,393.449,o),
(738.471,485.769,o),
(622.969,480.068,c)
);
}
);
width = 898;
}
);
leftKerningGroup = m2;
rightKerningGroup = m;
unicode = 109;
},
{
glyphname = n;
layers = (
{
layerId = "C25E9096-038E-4D62-BE1C-C6CD040495C0";
shapes = (
{
closed = 1;
nodes = (
(281.994,480.054,l),
(212.236,476.611,o),
(152.171,439.715,o),
(114.329,385.858,c),
(114.329,480.322,l),
(90.949,480.322,o),
(72.,461.373,o),
(72.,437.993,cs),
(72.,0.368,l),
(95.38,0.368,o),
(114.329,19.317,o),
(114.329,42.697,cs),
(114.329,259.181,ls),
(114.329,363.466,o),
(204.067,447.179,o),
(310.383,437.175,cs),
(403.027,428.455,o),
(471.967,347.,o),
(471.967,253.933,cs),
(471.967,0.353,l),
(495.347,0.353,o),
(514.296,19.303,o),
(514.296,42.682,cs),
(514.296,259.167,ls),
(514.296,384.8,o),
(408.981,486.305,o),
(282.008,480.026,c)
);
}
);
width = 576;
}
);
leftKerningGroup = m2;
rightKerningGroup = m;
unicode = 110;
},
{
glyphname = o;
layers = (
{
layerId = "C25E9096-038E-4D62-BE1C-C6CD040495C0";
shapes = (
{
closed = 1;
nodes = (
(154.445,480.336,o),
(47,372.891,o),
(47,240.359,cs),
(47,107.827,o),
(154.445,0.382,o),
(286.977,0.382,cs),
(419.51,0.382,o),
(526.955,107.827,o),
(526.955,240.359,cs),
(526.955,372.891,o),
(419.51,480.336,o),
(286.977,480.336,cs)
);
},
{
closed = 1;
nodes = (
(177.994,42.711,o),
(89.329,131.376,o),
(89.329,240.359,cs),
(89.329,349.342,o),
(177.994,438.007,o),
(286.977,438.007,cs),
(395.961,438.007,o),
(484.626,349.342,o),
(484.626,240.359,cs),
(484.626,131.376,o),
(395.961,42.711,o),
(286.977,42.711,cs)
);
}
);
width = 574;
}
);
leftKerningGroup = a2;
rightKerningGroup = o;
unicode = (111,246);
},
{
glyphname = p;
layers = (
{
layerId = "C25E9096-038E-4D62-BE1C-C6CD040495C0";
shapes = (
{
closed = 1;
nodes = (
(229.958,480.322,o),
(157.618,439.108,o),
(114.329,376.32,c),
(114.329,480.322,l),
(90.949,480.322,o),
(72.,461.373,o),
(72.,437.993,cs),
(72.,-239.61,l),
(95.38,-239.61,o),
(114.329,-220.661,o),
(114.329,-197.281,cs),
(114.329,104.37,l),
(157.603,41.582,o),
(229.944,0.368,o),
(311.977,0.368,cs),
(444.51,0.368,o),
(551.955,107.813,o),
(551.955,240.345,cs),
(551.955,372.877,o),
(444.51,480.322,o),
(311.977,480.322,c)
);
},
{
closed = 1;
nodes = (
(202.994,42.697,o),
(114.329,131.362,o),
(114.329,240.345,cs),
(114.329,349.328,o),
(202.994,437.993,o),
(311.977,437.993,cs),
(420.961,437.993,o),
(509.626,349.328,o),
(509.626,240.345,cs),
(509.626,131.362,o),
(420.961,42.697,o),
(311.977,42.697,cs)
);
}
);
width = 599;
}
);
leftKerningGroup = m2;
rightKerningGroup = o;
unicode = 112;
},
{
glyphname = q;
layers = (
{
layerId = "C25E9096-038E-4D62-BE1C-C6CD040495C0";
shapes = (
{
closed = 1;
nodes = (
(484.626,376.334,l),
(441.351,439.122,o),
(369.011,480.336,o),
(286.977,480.336,cs),
(154.445,480.336,o),
(47.,372.891,o),
(47.,240.359,cs),
(47.,107.827,o),
(154.445,0.382,o),
(286.977,0.382,cs),
(369.011,0.382,o),
(441.337,41.596,o),
(484.626,104.384,c),
(484.626,-197.267,ls),
(484.626,-220.646,o),
(503.575,-239.596,o),
(526.955,-239.596,c),
(526.955,438.007,ls),
(526.955,461.387,o),
(508.005,480.336,o),
(484.626,480.336,c)
);
},
{
closed = 1;
nodes = (
(177.994,42.711,o),
(89.329,131.376,o),
(89.329,240.359,cs),
(89.329,349.342,o),
(177.994,438.007,o),
(286.977,438.007,cs),
(395.96,438.007,o),
(484.626,349.342,o),
(484.626,240.359,cs),
(484.626,131.376,o),
(395.96,42.711,o),
(286.977,42.711,cs)
);
}
);
width = 599;
}
);
leftKerningGroup = a2;
rightKerningGroup = a;
unicode = 113;
},
{
glyphname = r;
layers = (
{
layerId = "C25E9096-038E-4D62-BE1C-C6CD040495C0";
shapes = (
{
closed = 1;
nodes = (
(253.14,480.336,l),
(197.435,480.336,o),
(147.586,455.024,o),
(114.329,415.347,c),
(114.329,480.336,l),
(90.949,480.336,o),
(72,461.387,o),
(72,438.007,cs),
(72,0.382,l),
(95.38,0.382,o),
(114.329,19.331,o),
(114.329,42.711,cs),
(114.329,295.26,ls),
(114.329,344.884,o),
(138.682,392.504,o),
(181.251,418.014,cs),
(215.538,438.572,o),
(254.89,442.734,o),
(290.22,432.984,cs),
(311.004,427.242,o),
(332.958,437.415,o),
(343.752,456.082,c),
(316.323,471.955,o),
(285.,480.336,o),
(253.154,480.336,c)
);
}
);
width = 365;
}
);
leftKerningGroup = m2;
unicode = 114;
},
{
glyphname = s;
layers = (
{
layerId = "C25E9096-038E-4D62-BE1C-C6CD040495C0";
shapes = (
{
closed = 1;
nodes = (
(268.51,262.95,l),
(162.9,277.59,o),
(98.29,290.9,o),
(93.35,351.52,c),
(93.61,373.47,o),
(107.18,392.38,o),
(133.74,407.73,cs),
(201.87,447.11,o),
(334.05,448,o),
(400.63,409.49,cs),
(414.74,401.34,o),
(424.99,392.02,o),
(431.3,381.67,cs),
(440.99,365.75,o),
(457.,354.77,o),
(475.63,354.75,c),
(481.17,354.75,l),
(481.24,392.04,o),
(460.71,423.64,o),
(421.8,446.15,cs),
(341.7,492.47,o),
(194.28,491.64,o),
(112.54,444.39,cs),
(72.22,421.08,o),
(50.93,388.68,o),
(51.,350.71,c),
(51.05,349.23,l),
(58.31,249.38,o),
(166.87,234.32,o),
(262.67,221.03,cs),
(369.03,206.28,o),
(434.07,192.84,o),
(438.83,131.16,c),
(438.58,108.45,o),
(424.61,88.92,o),
(397.29,73.13,cs),
(328.04,33.1,o),
(199.08,31.96,o),
(131.9,70.77,cs),
(117.67,79.,o),
(107.34,88.43,o),
(100.96,98.97,cs),
(91.15,115.18,o),
(74.88,126.34,o),
(55.95,126.37,c),
(51.,126.37,l),
(50.94,88.64,o),
(71.6,56.74,o),
(110.72,34.13,cs),
(149.72,11.6,o),
(204.88,0.38,o),
(260.61,0.38,cs),
(318.46,0.38,o),
(376.92,12.46,o),
(418.47,36.49,cs),
(459.54,60.23,o),
(481.22,93.24,o),
(481.14,131.94,cs),
(481.1,133.37,l),
(474.12,234.45,o),
(364.87,249.6,o),
(268.47,262.98,c)
);
}
);
width = 533;
}
);
unicode = 115;
},
{
glyphname = t;
layers = (
{
layerId = "C25E9096-038E-4D62-BE1C-C6CD040495C0";
shapes = (
{
closed = 1;
nodes = (
(232.835,42.711,l),
(178.344,42.711,o),
(134.166,86.888,o),
(134.166,141.38,cs),
(134.166,437.993,l),
(230.648,437.993,ls),
(254.028,437.993,o),
(272.977,456.943,o),
(272.977,480.322,c),
(134.166,480.322,l),
(134.166,640.326,l),
(110.787,640.326,o),
(91.837,621.377,o),
(91.837,597.997,cs),
(91.837,480.336,l),
(75.329,480.336,ls),
(51.949,480.336,o),
(33.,461.387,o),
(33.,438.007,c),
(91.837,438.007,l),
(91.837,141.394,ls),
(91.837,63.522,o),
(154.964,0.396,o),
(232.835,0.396,cs),
(272.991,0.396,l),
(272.991,2.569,ls),
(272.991,24.749,o),
(255.016,42.725,o),
(232.849,42.725,c)
);
}
);
width = 302;
}
);
unicode = 116;
},
{
glyphname = u;
layers = (
{
layerId = "C25E9096-038E-4D62-BE1C-C6CD040495C0";
shapes = (
{
closed = 1;
nodes = (
(433.748,207.413,ls),
(433.748,111.354,o),
(351.079,34.231,o),
(253.158,43.459,cs),
(167.823,51.501,o),
(104.329,126.522,o),
(104.329,212.238,cs),
(104.329,480.322,l),
(80.949,480.322,o),
(62.,461.373,o),
(62.,437.993,cs),
(62.,213.41,ls),
(62.,102.07,o),
(147.392,6.11,o),
(258.604,0.622,cs),
(330.027,-2.906,o),
(393.944,30.153,o),
(433.748,82.486,c),
(433.748,0.368,l),
(457.127,0.368,o),
(476.077,19.317,o),
(476.077,42.697,cs),
(476.077,437.993,ls),
(476.077,461.373,o),
(457.127,480.322,o),
(433.748,480.322,c)
);
}
);
width = 548;
}
);
rightKerningGroup = a;
unicode = 117;
},
{
glyphname = v;
layers = (
{
layerId = "C25E9096-038E-4D62-BE1C-C6CD040495C0";
shapes = (
{
closed = 1;
nodes = (
(388.665,438.022,l),
(238.072,76.602,l),
(87.494,438.022,ls),
(76.813,463.659,o),
(51.768,480.351,o),
(24,480.351,c),
(218.544,13.419,ls),
(221.832,5.532,o),
(229.536,0.396,o),
(238.086,0.396,cs),
(246.637,0.396,o),
(254.34,5.532,o),
(257.628,13.419,cs),
(452.186,480.351,l),
(424.419,480.351,o),
(399.36,463.645,o),
(388.679,438.022,c)
);
}
);
width = 477;
}
);
leftKerningGroup = v2;
rightKerningGroup = v;
unicode = 118;
},
{
glyphname = w;
layers = (
{
layerId = "C25E9096-038E-4D62-BE1C-C6CD040495C0";
shapes = (
{
closed = 1;
nodes = (
(708.63,437.762,l),
(557.699,75.51,l),
(417.491,400.682,ls),
(414.147,408.442,o),
(406.499,413.465,o),
(398.062,413.465,cs),
(389.624,413.465,o),
(381.977,408.442,o),
(378.633,400.682,cs),
(238.411,75.51,l),
(87.494,437.762,ls),
(76.813,463.399,o),
(51.768,480.091,o),
(24.,480.091,c),
(218.53,13.146,ls),
(221.804,5.301,o),
(229.437,0.179,o),
(237.931,0.122,c),
(238.058,0.122,l),
(246.51,0.122,o),
(254.143,5.145,o),
(257.487,12.906,cs),
(398.033,338.853,l),
(538.58,12.906,ls),
(541.952,5.103,o),
(549.19,0.376,o),
(558.15,0.122,c),
(566.644,0.179,o),
(574.292,5.301,o),
(577.551,13.146,cs),
(772.095,480.091,l),
(744.327,480.091,o),
(719.283,463.399,o),
(708.602,437.762,c)
);
}
);
width = 797;
}
);
leftKerningGroup = v2;
rightKerningGroup = v;
unicode = 119;
},
{
glyphname = x;
layers = (
{
layerId = "C25E9096-038E-4D62-BE1C-C6CD040495C0";
shapes = (
{
closed = 1;
nodes = (
(563.752,480.294,l),
(525.43,480.294,o),
(488.674,465.07,o),
(461.569,437.965,cs),
(293.876,270.272,l),
(126.182,437.965,ls),
(99.078,465.07,o),
(62.322,480.294,o),
(24,480.294,c),
(263.949,240.345,l),
(24,0.396,l),
(62.322,0.396,o),
(99.078,15.62,o),
(126.182,42.725,cs),
(293.876,210.418,l),
(461.569,42.725,ls),
(488.674,15.62,o),
(525.43,0.396,o),
(563.752,0.396,c),
(323.802,240.345,l)
);
}
);
width = 588;
}
);
unicode = 120;
},
{
glyphname = y;
layers = (
{
layerId = "C25E9096-038E-4D62-BE1C-C6CD040495C0";
shapes = (
{
closed = 1;
nodes = (
(408.32,455.79,l),
(244.45,73.07,l),
(80.58,455.79,ls),
(71.38,477.27,o),
(46.49,487.24,o),
(25.,478.04,c),
(222.13,17.65,l),
(164.89,-116.97,ls),
(149.2,-154.67,o),
(117.39,-182.06,o),
(79.37,-192.55,cs),
(58.49,-198.32,o),
(44.46,-217.94,o),
(44.46,-239.6,c),
(114.45,-239.6,o),
(177.05,-197.86,o),
(203.9,-133.39,cs),
(463.89,478.02,l),
(463.89,478.06,l),
(442.4,487.24,o),
(417.52,477.26,o),
(408.32,455.77,c)
);
}
);
width = 489;
}
);
leftKerningGroup = v2;
rightKerningGroup = v;
unicode = 121;
},
{
glyphname = z;
layers = (
{
layerId = "C25E9096-038E-4D62-BE1C-C6CD040495C0";
shapes = (
{
closed = 1;
nodes = (
(535.75,469.02,l),
(532.53,477.06,o),
(524.75,482.32,o),
(516.09,482.32,cs),
(83.45,482.32,ls),
(60.07,482.32,o),
(41.12,463.37,o),
(41.12,440,c),
(463.12,440,l),
(38.58,36.25,ls),
(32.3,30.28,o),
(30.29,21.08,o),
(33.53,13.04,cs),
(36.74,5.01,o),
(44.52,-0.26,o),
(53.17,-0.26,c),
(53.21,-0.26,l),
(478.78,0.63,ls),
(502.16,0.68,o),
(521.07,19.67,o),
(521.03,43.05,c),
(106.25,42.17,l),
(530.68,445.81,ls),
(536.96,451.78,o),
(538.96,460.96,o),
(535.75,469,c)
);
}
);
width = 569;
}
);
unicode = 122;
},
{
glyphname = braceleft;
layers = (
{
layerId = "C25E9096-038E-4D62-BE1C-C6CD040495C0";
shapes = (
{
closed = 1;
nodes = (
(184.872,56.396,o),
(175.503,68.206,o),
(175.503,81.257,cs),
(175.503,237.254,ls),
(175.503,271.216,o),
(157.542,302.215,o),
(127.135,322.9,c),
(157.528,343.584,o),
(175.503,374.583,o),
(175.503,408.545,cs),
(175.503,564.542,ls),
(175.503,577.608,o),
(184.886,589.417,o),
(198.954,596.599,cs),
(217.705,606.166,o),
(229.854,625.072,o),
(229.854,646.124,c),
(176.548,646.124,o),
(133.174,609.524,o),
(133.174,564.542,cs),
(133.174,408.545,ls),
(133.174,383.19,o),
(114.507,359.966,o),
(84.482,347.958,cs),
(73.871,343.711,o),
(67.,333.877,o),
(67.,322.928,cs),
(67.,311.951,o),
(73.857,302.102,o),
(84.496,297.841,cs),
(114.521,285.834,o),
(133.174,262.609,o),
(133.174,237.254,cs),
(133.174,81.257,ls),
(133.174,36.276,o),
(176.548,-0.311,o),
(229.854,-0.311,c),
(229.854,20.741,o),
(217.691,39.634,o),
(198.94,49.214,cs)
);
}
);
width = 299;
}
);
unicode = 123;
},
{
glyphname = verticalbar;
layers = (
{
layerId = "C25E9096-038E-4D62-BE1C-C6CD040495C0";
shapes = (
{
closed = 1;
nodes = (
(80,42.578,ls),
(80,19.198,o),
(98.949,0.249,o),
(122.329,0.249,c),
(122.329,597.85,ls),
(122.329,621.23,o),
(103.38,640.179,o),
(80,640.179,c)
);
}
);
width = 203;
}
);
unicode = 124;
},
{
glyphname = braceright;
layers = (
{
layerId = "C25E9096-038E-4D62-BE1C-C6CD040495C0";
shapes = (
{
closed = 1;
nodes = (
(184.333,359.98,o),
(165.68,383.204,o),
(165.68,408.559,cs),
(165.68,564.556,ls),
(165.68,609.538,o),
(122.306,646.124,o),
(69,646.124,c),
(69,625.072,o),
(81.163,606.18,o),
(99.914,596.599,cs),
(113.982,589.417,o),
(123.35,577.608,o),
(123.35,564.556,cs),
(123.35,408.559,ls),
(123.35,374.598,o),
(141.312,343.599,o),
(171.718,322.914,c),
(141.326,302.229,o),
(123.35,271.23,o),
(123.35,237.268,cs),
(123.35,81.271,ls),
(123.35,68.206,o),
(113.968,56.396,o),
(99.914,49.214,cs),
(81.163,39.648,o),
(69.,20.741,o),
(69.,-0.311,c),
(122.306,-0.311,o),
(165.68,36.29,o),
(165.68,81.271,cs),
(165.68,237.268,ls),
(165.68,262.623,o),
(184.347,285.848,o),
(214.372,297.855,cs),
(224.983,302.102,o),
(231.854,311.936,o),
(231.854,322.886,cs),
(231.854,333.863,o),
(224.997,343.711,o),
(214.358,347.973,cs)
);
}
);
width = 299;
}
);
unicode = 125;
},
{
glyphname = asciitilde;
layers = (
{
layerId = "C25E9096-038E-4D62-BE1C-C6CD040495C0";
shapes = (
{
closed = 1;
nodes = (
(497.17,302.06,l),
(434.45,261.2,o),
(377.36,293.35,o),
(312.63,329.81,cs),
(234.25,373.95,o),
(145.41,423.98,o),
(48,326.31,c),
(63.87,310.48,o),
(88.55,308.44,o),
(107.33,320.67,cs),
(170.05,361.53,o),
(227.12,329.37,o),
(291.86,292.91,cs),
(336.99,267.5,o),
(385.59,240.13,o),
(437.3,240.13,cs),
(475.4,240.13,o),
(515.19,254.99,o),
(556.5,296.4,c),
(540.63,312.23,o),
(515.95,314.28,o),
(497.17,302.04,c)
);
}
);
width = 607;
}
);
unicode = 126;
},
{
glyphname = exclamdown;
layers = (
{
layerId = "C25E9096-038E-4D62-BE1C-C6CD040495C0";
shapes = (
{
closed = 1;
nodes = (
(94.47,-0.11,l),
(117.85,-0.11,o),
(136.8,18.84,o),
(136.8,42.22,cs),
(136.8,479.84,l),
(113.42,479.84,o),
(94.47,460.89,o),
(94.47,437.51,cs)
);
},
{
closed = 1;
nodes = (
(90.9,642.03,o),
(73,624.13,o),
(73,602.03,cs),
(73,579.94,o),
(90.9,562.03,o),
(113,562.03,cs),
(135.09,562.03,o),
(152.98,579.94,o),
(152.98,602.03,cs),
(152.98,624.13,o),
(135.08,642.03,o),
(113,642.03,cs)
);
}
);
width = 227;
}
);
unicode = 161;
},
{
glyphname = cent;
layers = (
{
layerId = "C25E9096-038E-4D62-BE1C-C6CD040495C0";
shapes = (
{
closed = 1;
nodes = (
(327.64,155.21,l),
(311.67,149.87,o),
(294.94,147.12,o),
(278.02,147.12,cs),
(253.76,147.12,o),
(230.76,152.84,o),
(209.95,162.87,c),
(301.07,502.97,l),
(310.09,501.63,o),
(318.98,499.55,o),
(327.64,496.68,cs),
(348.92,489.58,o),
(372.28,496.68,o),
(384.21,515.67,c),
(384.57,516.25,l),
(362.24,530.26,o),
(337.62,539.57,o),
(312.08,544.01,c),
(326.96,599.56,ls),
(333.02,622.14,o),
(319.61,645.35,o),
(297.04,651.4,c),
(268.96,546.6,l),
(157.92,541.52,o),
(69.,444.64,o),
(69.,325.93,cs),
(69.,249.93,o),
(105.44,182.78,o),
(160.81,142.95,c),
(136.53,52.29,ls),
(130.47,29.72,o),
(143.88,6.51,o),
(166.45,0.45,c),
(198.85,121.37,l),
(223.3,110.75,o),
(250.01,104.78,o),
(278.03,104.78,cs),
(315.59,104.78,o),
(352.43,115.45,o),
(384.57,135.62,c),
(384.22,136.19,l),
(372.3,155.18,o),
(348.93,162.31,o),
(327.66,155.19,c)
);
},
{
closed = 1;
nodes = (
(111.31,417.03,o),
(175.16,492.26,o),
(257.33,503.24,c),
(172.72,187.48,l),
(135.27,220.3,o),
(111.31,270.16,o),
(111.31,325.95,cs)
);
}
);
width = 450;
}
);
unicode = 162;
},
{
glyphname = sterling;
layers = (
{
layerId = "C25E9096-038E-4D62-BE1C-C6CD040495C0";
shapes = (
{
closed = 1;
nodes = (
(432.489,587.89,o),
(500.449,543.08,o),
(514.169,461.63,cs),
(517.759,440.24,o),
(535.009,423.85,o),
(556.689,423.13,c),
(558.839,423.06,l),
(562.929,545.45,o),
(473.009,621.84,o),
(382.089,643.24,cs),
(290.439,664.83,o),
(175.309,636.91,o),
(124.539,525.96,c),
(123.369,522.72,l),
(98.339,430.72,o),
(122.709,377.58,o),
(144.199,330.7,cs),
(150.079,317.87,o),
(155.779,305.37,o),
(160.209,292.28,c),
(119.859,292.28,ls),
(96.479,292.28,o),
(77.529,273.33,o),
(77.529,249.95,c),
(168.479,249.95,l),
(170.539,203.29,o),
(149.799,142.19,o),
(73.559,39.78,cs),
(66.399,30.16,o),
(67.819,16.59,o),
(76.789,8.62,cs),
(85.419,0.94,o),
(98.349,0.91,o),
(107.229,8.3,cs),
(176.129,65.66,o),
(234.299,46.4,o),
(300.959,24.33,cs),
(374.779,-0.1,o),
(458.459,-27.8,o),
(552.449,63.71,c),
(536.999,79.59,o),
(512.129,82.52,o),
(493.979,69.82,cs),
(431.069,25.86,o),
(376.359,43.97,o),
(314.259,64.52,cs),
(265.029,80.81,o),
(211.439,98.56,o),
(153.369,81.46,c),
(199.279,155.65,o),
(213.009,207.73,o),
(211.529,249.96,c),
(347.209,249.96,ls),
(370.589,249.96,o),
(389.539,268.91,o),
(389.539,292.29,c),
(204.799,292.29,l),
(199.219,311.96,o),
(191.049,330.06,o),
(182.669,348.35,cs),
(162.529,392.29,o),
(143.489,433.82,o),
(163.749,509.92,c),
(204.919,597.78,o),
(298.009,619.56,o),
(372.379,602.04,cs)
);
}
);
width = 627;
}
);
unicode = 163;
},
{
glyphname = currency;
layers = (
{
layerId = "C25E9096-038E-4D62-BE1C-C6CD040495C0";
shapes = (
{
closed = 1;
nodes = (
(364.919,309.889,l),
(385.533,336.824,o),
(397.921,370.391,o),
(397.921,406.935,cs),
(397.921,443.479,o),
(385.533,477.046,o),
(364.919,503.981,c),
(412.892,551.954,l),
(396.369,568.491,o),
(369.561,568.477,o),
(353.038,551.954,cs),
(334.992,533.908,l),
(308.057,554.522,o),
(274.476,566.911,o),
(237.946,566.911,cs),
(201.416,566.911,o),
(167.835,554.522,o),
(140.9,533.908,c),
(122.853,551.954,ls),
(106.331,568.491,o),
(79.537,568.491,o),
(63.,551.954,c),
(110.973,503.981,l),
(90.359,477.046,o),
(77.97,443.479,o),
(77.97,406.935,cs),
(77.97,370.391,o),
(90.359,336.81,o),
(110.987,309.875,c),
(63.,261.916,l),
(79.537,245.393,o),
(106.331,245.393,o),
(122.853,261.916,cs),
(140.885,279.948,l),
(167.821,259.334,o),
(201.388,246.946,o),
(237.932,246.946,cs),
(274.476,246.946,o),
(308.043,259.334,o),
(334.978,279.948,c),
(362.534,252.392,ls),
(379.057,235.869,o),
(405.865,235.869,o),
(422.388,252.392,c),
(364.905,309.875,l)
);
},
{
closed = 1;
nodes = (
(334.682,340.14,l),
(326.583,328.457,o),
(316.438,318.312,o),
(304.755,310.213,cs),
(285.764,297.049,o),
(262.751,289.289,o),
(237.946,289.289,cs),
(213.141,289.289,o),
(190.142,297.049,o),
(171.151,310.199,cs),
(159.468,318.298,o),
(149.323,328.443,o),
(141.224,340.126,cs),
(128.06,359.117,o),
(120.299,382.13,o),
(120.299,406.935,cs),
(120.299,431.74,o),
(128.06,454.739,o),
(141.224,473.744,cs),
(149.323,485.427,o),
(159.468,495.572,o),
(171.151,503.671,cs),
(190.142,516.835,o),
(213.155,524.596,o),
(237.96,524.596,cs),
(262.765,524.596,o),
(285.778,516.835,o),
(304.769,503.671,cs),
(316.452,495.572,o),
(326.597,485.427,o),
(334.696,473.744,cs),
(347.86,454.753,o),
(355.621,431.754,o),
(355.621,406.949,cs),
(355.621,382.144,o),
(347.86,359.132,o),
(334.696,340.14,c)
);
}
);
width = 485;
}
);
unicode = 164;
},
{
glyphname = yen;
layers = (
{
layerId = "C25E9096-038E-4D62-BE1C-C6CD040495C0";
shapes = (
{
closed = 1;
nodes = (
(430.095,298.77,ls),
(453.475,298.77,o),
(472.424,317.72,o),
(472.424,341.1,c),
(354.058,341.1,l),
(571.869,639.9,l),
(538.951,639.9,o),
(508.023,624.168,o),
(488.636,597.571,cs),
(312.435,355.858,l),
(136.233,597.571,ls),
(116.846,624.168,o),
(85.918,639.9,o),
(53,639.9,c),
(270.811,341.1,l),
(194.774,341.1,ls),
(171.394,341.1,o),
(152.445,322.15,o),
(152.445,298.77,c),
(291.256,298.77,l),
(291.256,261.112,l),
(194.774,261.112,ls),
(171.394,261.112,o),
(152.445,242.162,o),
(152.445,218.783,c),
(291.256,218.783,l),
(291.256,-0.03,l),
(314.636,-0.03,o),
(333.585,18.919,o),
(333.585,42.299,cs),
(333.585,218.783,l),
(430.081,218.783,ls),
(453.461,218.783,o),
(472.41,237.732,o),
(472.41,261.112,c),
(333.585,261.112,l),
(333.585,298.77,l)
);
}
);
width = 625;
}
);
unicode = 165;
},
{
glyphname = section;
layers = (
{
layerId = "C25E9096-038E-4D62-BE1C-C6CD040495C0";
shapes = (
{
closed = 1;
nodes = (
(522.282,320.692,l),
(522.282,400.877,o),
(425.151,463.693,o),
(301.141,463.693,cs),
(190.352,463.693,o),
(122.329,503.116,o),
(122.329,531.377,cs),
(122.329,559.639,o),
(190.352,599.062,o),
(301.141,599.062,cs),
(384.233,599.062,o),
(443.268,576.895,o),
(467.593,553.882,cs),
(482.027,540.224,o),
(500.313,531.392,o),
(520.18,531.392,cs),
(522.282,531.392,l),
(522.282,594.109,o),
(427.211,641.391,o),
(301.141,641.391,cs),
(175.071,641.391,o),
(80.,594.095,o),
(80.,531.392,cs),
(80.,492.054,o),
(117.405,458.811,o),
(176.397,439.467,c),
(117.828,413.999,o),
(80.,370.739,o),
(80.,320.706,cs),
(80.,240.506,o),
(177.131,177.69,o),
(301.141,177.69,cs),
(411.93,177.69,o),
(479.953,138.268,o),
(479.953,110.006,cs),
(479.953,81.744,o),
(411.93,42.336,o),
(301.141,42.336,cs),
(218.049,42.336,o),
(159.014,64.502,o),
(134.689,87.515,cs),
(120.255,101.173,o),
(101.969,110.006,o),
(82.102,110.006,cs),
(80.,110.006,l),
(80.,47.289,o),
(175.071,0.007,o),
(301.141,0.007,cs),
(427.211,0.007,o),
(522.282,47.303,o),
(522.282,110.006,cs),
(522.282,149.344,o),
(484.863,182.586,o),
(425.885,201.931,c),
(484.454,227.399,o),
(522.282,270.659,o),
(522.282,320.706,c)
);
},
{
closed = 1;
nodes = (
(204.207,220.005,o),
(122.329,266.116,o),
(122.329,320.692,cs),
(122.329,375.268,o),
(204.207,421.364,o),
(301.141,421.364,cs),
(398.074,421.364,o),
(479.953,375.254,o),
(479.953,320.692,cs),
(479.953,266.13,o),
(398.074,220.005,o),
(301.141,220.005,c)
);
}
);
width = 602;
}
);
unicode = 167;
},
{
glyphname = dieresis;
layers = (
{
layerId = "C25E9096-038E-4D62-BE1C-C6CD040495C0";
shapes = (
{
closed = 1;
nodes = (
(63.9,560.2,o),
(46,542.3,o),
(46,520.2,cs),
(46,498.11,o),
(63.9,480.2,o),
(85.98,480.2,cs),
(108.07,480.2,o),
(125.98,498.11,o),
(125.98,520.2,cs),
(125.98,542.3,o),
(108.08,560.2,o),
(85.98,560.2,cs)
);
},
{
closed = 1;
nodes = (
(183.89,560.2,o),
(165.99,542.3,o),
(165.99,520.2,cs),
(165.99,498.11,o),
(183.89,480.2,o),
(205.97,480.2,cs),
(228.05,480.2,o),
(245.97,498.11,o),
(245.97,520.2,cs),
(245.97,542.3,o),
(228.07,560.2,o),
(205.97,560.2,cs)
);
}
);
width = 292;
}
);
unicode = 168;
},
{
glyphname = copyright;
layers = (
{
layerId = "C25E9096-038E-4D62-BE1C-C6CD040495C0";
shapes = (
{
closed = 1;
nodes = (
(174.445,659.911,o),
(67,552.465,o),
(67,419.933,cs),
(67,287.401,o),
(174.445,179.956,o),
(306.977,179.956,cs),
(439.51,179.956,o),
(546.955,287.401,o),
(546.955,419.933,cs),
(546.955,552.465,o),
(439.51,659.911,o),
(306.977,659.911,cs)
);
},
{
closed = 1;
nodes = (
(197.994,222.285,o),
(109.329,310.95,o),
(109.329,419.933,cs),
(109.329,528.916,o),
(197.994,617.581,o),
(306.977,617.581,cs),
(415.961,617.581,o),
(504.626,528.916,o),
(504.626,419.933,cs),
(504.626,310.95,o),
(415.961,222.285,o),
(306.977,222.285,cs)
);
},
{
closed = 1;
nodes = (
(356.178,330.689,o),
(332.445,321.123,o),
(306.977,321.123,cs),
(245.248,321.123,o),
(196.541,378.027,o),
(210.58,442.128,cs),
(217.155,472.139,o),
(238.122,497.847,o),
(266.285,510.15,cs),
(303.337,526.334,o),
(342.802,518.743,o),
(370.344,495.759,cs),
(387.29,481.621,o),
(410.712,478.305,o),
(429.943,489.141,c),
(430.014,489.183,l),
(399.142,543.943,o),
(334.548,573.094,o),
(270.828,556.43,cs),
(212.273,541.107,o),
(169.281,488.125,o),
(166.036,427.693,cs),
(161.676,346.365,o),
(226.58,278.794,o),
(306.977,278.794,cs),
(360.806,278.794,o),
(409.202,308.721,o),
(433.301,356.891,c),
(413.562,366.768,o),
(390.281,362.309,o),
(374.097,347.297,cs)
);
}
);
width = 614;
}
);
unicode = 169;
},
{
glyphname = guillemotleft;
layers = (
{
layerId = "C25E9096-038E-4D62-BE1C-C6CD040495C0";
shapes = (
{
closed = 1;
nodes = (
(253.053,542.87,l),
(236.513,559.41,o),
(209.723,559.41,o),
(193.203,542.87,cs),
(64.953,414.63,ls),
(55.683,405.36,o),
(55.683,390.33,o),
(64.953,381.08,cs),
(193.203,252.83,ls),
(209.723,236.31,o),
(236.533,236.31,o),
(253.053,252.83,c),
(108.033,397.85,l)
);
},
{
closed = 1;
nodes = (
(413.043,542.87,l),
(396.523,559.41,o),
(369.713,559.41,o),
(353.193,542.87,cs),
(224.943,414.63,ls),
(215.673,405.36,o),
(215.673,390.33,o),
(224.943,381.08,cs),
(353.193,252.83,ls),
(369.713,236.31,o),
(396.523,236.31,o),
(413.043,252.83,c),
(268.023,397.85,l)
);
}
);
width = 471;
}
);
leftKerningGroup = guillemotleft2;
rightKerningGroup = guillemotleft;
unicode = 171;
},
{
glyphname = registered;
layers = (
{
layerId = "C25E9096-038E-4D62-BE1C-C6CD040495C0";
shapes = (
{
closed = 1;
nodes = (
(174.28,659.56,o),
(67,552.28,o),
(67,419.95,cs),
(67,287.61,o),
(174.28,180.32,o),
(306.61,180.32,cs),
(438.95,180.32,o),
(546.24,287.61,o),
(546.24,419.95,cs),
(546.24,552.28,o),
(438.96,659.56,o),
(306.61,659.56,cs)
);
},
{
closed = 1;
nodes = (
(197.82,222.65,o),
(109.33,311.16,o),
(109.33,419.95,cs),
(109.33,528.73,o),
(197.82,617.23,o),
(306.61,617.23,cs),
(415.4,617.23,o),
(503.91,528.73,o),
(503.91,419.95,cs),
(503.91,311.16,o),
(415.4,222.65,o),
(306.61,222.65,cs)
);
},
{
closed = 1;
nodes = (
(340.5,550.52,l),
(214.81,550.52,ls),
(203.12,550.52,o),
(193.65,541.05,o),
(193.65,529.35,cs),
(193.65,289.38,l),
(217.03,289.38,o),
(235.98,308.32,o),
(235.98,331.7,cs),
(235.98,388.85,l),
(340.5,388.85,ls),
(341.73,388.85,o),
(342.93,388.98,o),
(344.14,389.03,c),
(344.14,388.85,l),
(362.4,388.85,o),
(377.26,372.33,o),
(377.26,352.02,cs),
(377.26,331.72,ls),
(377.26,308.34,o),
(396.21,289.39,o),
(419.59,289.39,c),
(419.59,352.02,ls),
(419.59,375.23,o),
(409.96,396.06,o),
(394.75,410.55,c),
(410.01,424.97,o),
(419.59,445.34,o),
(419.59,467.93,cs),
(419.59,471.42,ls),
(419.59,515.03,o),
(384.1,550.5,o),
(340.5,550.5,c)
);
},
{
closed = 1;
nodes = (
(235.98,508.19,l),
(340.5,508.19,ls),
(360.78,508.19,o),
(377.26,491.69,o),
(377.26,471.43,cs),
(377.26,467.95,ls),
(377.26,447.67,o),
(360.76,431.19,o),
(340.5,431.19,cs),
(235.98,431.19,l)
);
}
);
width = 614;
}
);
unicode = 174;
},
{
glyphname = degree;
layers = (
{
layerId = "C25E9096-038E-4D62-BE1C-C6CD040495C0";
shapes = (
{
closed = 1;
nodes = (
(90.81,639.82,o),
(55,604.01,o),
(55,559.832,cs),
(55,515.655,o),
(90.81,479.844,o),
(134.988,479.844,cs),
(179.165,479.844,o),
(214.976,515.655,o),
(214.976,559.832,cs),
(214.976,604.01,o),
(179.165,639.82,o),
(134.988,639.82,cs)
);
},
{
closed = 1;
nodes = (
(114.218,522.159,o),
(97.329,539.063,o),
(97.329,559.818,cs),
(97.329,580.573,o),
(114.232,597.477,o),
(134.988,597.477,cs),
(155.743,597.477,o),
(172.646,580.573,o),
(172.646,559.818,cs),
(172.646,539.063,o),
(155.743,522.159,o),
(134.988,522.159,cs)
);
}
);
width = 270;
}
);
unicode = 176;
},
{
glyphname = plusminus;
layers = (
{
layerId = "C25E9096-038E-4D62-BE1C-C6CD040495C0";
shapes = (
{
closed = 1;
nodes = (
(156.824,340.865,l),
(180.204,340.865,o),
(199.153,359.814,o),
(199.153,383.194,cs),
(199.153,439.689,l),
(255.648,439.689,ls),
(279.028,439.689,o),
(297.977,458.639,o),
(297.977,482.018,c),
(199.153,482.018,l),
(199.153,580.843,l),
(175.773,580.843,o),
(156.824,561.893,o),
(156.824,538.514,cs),
(156.824,482.018,l),
(100.329,482.018,ls),
(76.949,482.018,o),
(58,463.069,o),
(58,439.689,c),
(156.824,439.689,l)
);
},
{
closed = 1;
nodes = (
(255.648,239.713,ls),
(279.028,239.713,o),
(297.977,258.662,o),
(297.977,282.042,c),
(100.329,282.042,ls),
(76.949,282.042,o),
(58,263.093,o),
(58,239.713,c)
);
}
);
width = 356;
}
);
unicode = 177;
},
{
glyphname = twosuperior;
layers = (
{
layerId = "C25E9096-038E-4D62-BE1C-C6CD040495C0";
shapes = (
{
closed = 1;
nodes = (
(152.265,522.329,l),
(221.204,591.255,ls),
(242.947,612.984,o),
(249.692,644.491,o),
(238.813,673.5,cs),
(228.288,701.578,o),
(203.412,720.26,o),
(173.81,722.263,cs),
(171.849,722.39,o),
(169.888,722.461,o),
(167.898,722.461,cs),
(127.883,722.461,o),
(92.905,695.441,o),
(82.831,656.766,c),
(102.824,651.56,o),
(123.396,657.486,o),
(139.594,670.311,cs),
(147.439,676.52,o),
(157.316,680.146,o),
(167.884,680.146,cs),
(168.97,680.146,o),
(170.043,680.103,o),
(171.016,680.047,c),
(183.955,679.172,o),
(194.481,671.172,o),
(199.165,658.657,cs),
(203.059,648.258,o),
(203.031,632.963,o),
(191.278,621.196,cs),
(86.203,516.135,ls),
(80.15,510.082,o),
(78.33,500.981,o),
(81.618,493.066,cs),
(84.891,485.15,o),
(92.609,480,o),
(101.174,480,cs),
(241.988,480,l),
(241.988,503.38,o),
(223.039,522.329,o),
(199.659,522.329,cs)
);
}
);
width = 324;
}
);
unicode = 178;
},
{
glyphname = threesuperior;
layers = (
{
layerId = "C25E9096-038E-4D62-BE1C-C6CD040495C0";
shapes = (
{
closed = 1;
nodes = (
(207.65,609.287,l),
(221.125,624.427,o),
(228.321,645.281,o),
(223.919,667.983,cs),
(218.74,694.679,o),
(197.477,716.506,o),
(170.824,721.91,cs),
(126.774,730.828,o),
(87.916,697.218,o),
(87.916,654.692,c),
(114.95,654.692,ls),
(122.908,654.692,o),
(129.525,659.715,o),
(133.193,666.784,cs),
(137.582,675.236,o),
(146.414,681.021,o),
(156.573,681.021,cs),
(171.092,681.021,o),
(182.902,669.211,o),
(182.902,654.692,cs),
(182.902,643.08,o),
(175.339,633.203,o),
(164.884,629.718,cs),
(160.115,628.123,o),
(156.573,624.13,o),
(156.573,619.107,cs),
(156.573,596.419,ls),
(156.573,590.86,o),
(160.496,586.274,o),
(165.871,584.863,cs),
(180.235,581.082,o),
(190.803,568.764,o),
(190.803,554.203,cs),
(190.803,536.636,o),
(175.452,522.329,o),
(156.573,522.329,cs),
(142.153,522.329,o),
(129.793,530.668,o),
(124.756,542.435,cs),
(121.666,549.645,o),
(114.484,554.189,o),
(106.639,554.189,cs),
(80.,554.189,l),
(80.,513.285,o),
(114.343,480.,o),
(156.559,480.,cs),
(198.775,480.,o),
(233.118,513.285,o),
(233.118,554.203,cs),
(233.118,576.073,o),
(223.241,595.713,o),
(207.65,609.301,c)
);
}
);
width = 313;
}
);
unicode = 179;
},
{
glyphname = acute;
layers = (
{
layerId = "C25E9096-038E-4D62-BE1C-C6CD040495C0";
shapes = (
{
closed = 1;
nodes = (
(39,484.21,l),
(59.91,473.75,o),
(85.33,482.23,o),
(95.79,503.14,cs),
(116.85,545.26,l),
(95.94,555.72,o),
(70.5,547.24,o),
(60.06,526.33,c)
);
}
);
width = 141;
}
);
unicode = 180;
},
{
glyphname = paragraph;
layers = (
{
layerId = "C25E9096-038E-4D62-BE1C-C6CD040495C0";
shapes = (
{
closed = 1;
nodes = (
(464.96,597.48,l),
(464.96,620.86,o),
(446.01,639.81,o),
(422.64,639.81,cs),
(225.01,639.81,l),
(225.01,628.41,l),
(224.99,628.41,l),
(224.99,639.81,l),
(136.63,639.81,o),
(65,568.19,o),
(65,479.82,cs),
(65,398.65,o),
(125.5,331.75,o),
(203.85,321.39,c),
(203.85,-0.12,l),
(227.23,-0.12,o),
(246.18,18.49,o),
(246.18,41.46,cs),
(246.18,597.48,l),
(363.8,597.48,l),
(363.8,-0.12,l),
(387.18,-0.12,o),
(406.13,18.83,o),
(406.13,42.21,cs),
(406.13,597.48,l)
);
}
);
width = 532;
}
);
unicode = 182;
},
{
glyphname = cedilla;
layers = (
{
layerId = "C25E9096-038E-4D62-BE1C-C6CD040495C0";
shapes = (
{
closed = 1;
nodes = (
(88.782,-49.46,l),
(43.762,-49.46,l),
(83.232,-9.43,l),
(53.082,20.29,l),
(-21.908,-55.78,ls),
(-27.888,-61.86,o),
(-29.658,-70.93,o),
(-26.358,-78.81,cs),
(-23.068,-86.68,o),
(-15.358,-91.8,o),
(-6.828,-91.8,cs),
(88.782,-91.8,ls),
(102.792,-91.8,o),
(113.942,-104.36,o),
(111.552,-118.81,cs),
(109.682,-130.17,o),
(98.982,-138.,o),
(87.482,-138.,cs),
(14.732,-138.,ls),
(-8.648,-138.,o),
(-27.598,-156.95,o),
(-27.598,-180.32,c),
(85.872,-180.32,ls),
(120.022,-180.32,o),
(150.572,-155.42,o),
(153.902,-121.45,cs),
(157.712,-82.45,o),
(127.022,-49.49,o),
(88.792,-49.49,c)
);
}
);
width = 107;
}
);
unicode = 184;
},
{
glyphname = onesuperior;
layers = (
{
layerId = "C25E9096-038E-4D62-BE1C-C6CD040495C0";
shapes = (
{
closed = 1;
nodes = (
(176.186,718.936,l),
(168.256,722.224,o),
(159.155,720.404,o),
(153.116,714.351,cs),
(80,641.22,l),
(96.522,624.698,o),
(123.331,624.698,o),
(139.853,641.22,cs),
(146.922,648.289,l),
(146.922,480.003,l),
(170.302,480.003,o),
(189.251,498.952,o),
(189.251,522.332,cs),
(189.251,699.395,ls),
(189.251,707.945,o),
(184.101,715.663,o),
(176.186,718.951,c)
);
}
);
width = 269;
}
);
unicode = 185;
},
{
glyphname = guillemotright;
layers = (
{
layerId = "C25E9096-038E-4D62-BE1C-C6CD040495C0";
shapes = (
{
closed = 1;
nodes = (
(276.843,542.872,ls),
(260.32,559.409,o),
(233.512,559.409,o),
(216.99,542.872,c),
(362.009,397.853,l),
(216.99,252.834,l),
(233.526,236.311,o),
(260.32,236.311,o),
(276.843,252.834,cs),
(405.086,381.076,ls),
(414.356,390.347,o),
(414.356,405.359,o),
(405.086,414.629,cs)
);
},
{
closed = 1;
nodes = (
(116.853,542.872,ls),
(100.331,559.409,o),
(73.522,559.409,o),
(57,542.872,c),
(202.019,397.853,l),
(57,252.834,l),
(73.522,236.311,o),
(100.331,236.311,o),
(116.853,252.834,cs),
(245.096,381.077,ls),
(254.366,390.347,o),
(254.366,405.359,o),
(245.096,414.629,cs)
);
}
);
width = 471;
}
);
leftKerningGroup = guillemotright2;
rightKerningGroup = guillemotright;
unicode = 187;
},
{
glyphname = questiondown;
layers = (
{
layerId = "C25E9096-038E-4D62-BE1C-C6CD040495C0";
shapes = (
{
closed = 1;
nodes = (
(259.25,560.75,o),
(277.15,578.65,o),
(277.15,600.75,cs),
(277.15,622.85,o),
(259.25,640.75,o),
(237.16,640.75,cs),
(215.08,640.75,o),
(197.16,622.85,o),
(197.16,600.75,cs),
(197.16,578.65,o),
(215.07,560.75,o),
(237.16,560.75,cs)
);
},
{
closed = 1;
nodes = (
(362.9,117.96,l),
(345.31,68.04,o),
(293.,44.18,o),
(241.68,42.88,cs),
(180.29,41.16,o),
(111.18,73.64,o),
(105.38,147.58,c),
(104.,178.81,o),
(120.99,207.89,o),
(160.49,241.86,c),
(161.56,242.84,l),
(260.15,340.21,o),
(259.03,390.05,o),
(257.85,442.82,cs),
(257.58,454.46,o),
(257.31,466.5,o),
(258.26,479.21,c),
(254.79,479.46,ls),
(233.28,481.06,o),
(215.03,463.8,o),
(215.52,442.26,c),
(215.52,442.13,o),
(215.52,442,o),
(215.52,441.87,c),
(216.58,394.83,o),
(217.4,357.65,o),
(132.32,273.46,c),
(101.18,246.6,o),
(60.5,204.27,o),
(63.12,144.99,c),
(71.11,42.85,o),
(161.72,-1.69,o),
(242.72,0.58,cs),
(321.99,2.58,o),
(408.55,50.57,o),
(411.32,151.2,c),
(389.68,151.79,o),
(370.06,138.4,o),
(362.87,117.97,c)
);
}
);
width = 470;
}
);
unicode = 191;
},
{
glyphname = Agrave;
layers = (
{
layerId = "C25E9096-038E-4D62-BE1C-C6CD040495C0";
shapes = (
{
closed = 1;
nodes = (
(349.48,738.282,ls),
(332.944,754.805,o),
(306.15,754.805,o),
(289.627,738.282,c),
(339.688,688.221,ls),
(356.211,671.684,o),
(383.019,671.684,o),
(399.542,688.221,c)
);
},
{
closed = 1;
nodes = (
(368.402,627.366,ls),
(364.818,634.534,o),
(357.495,639.063,o),
(349.466,639.063,cs),
(341.438,639.063,o),
(334.129,634.534,o),
(330.531,627.366,cs),
(17.,0.332,l),
(46.009,0.332,o),
(72.536,16.727,o),
(85.502,42.661,cs),
(169.159,209.974,l),
(529.76,209.974,l),
(613.416,42.661,ls),
(626.383,16.713,o),
(652.895,0.332,o),
(681.904,0.332,c)
);
},
{
closed = 1;
nodes = (
(190.323,252.303,l),
(349.466,570.575,l),
(508.595,252.303,l)
);
}
);
width = 699;
}
);
leftKerningGroup = A2;
rightKerningGroup = A;
unicode = 192;
},
{
glyphname = Aacute;
layers = (
{
layerId = "C25E9096-038E-4D62-BE1C-C6CD040495C0";
shapes = (
{
closed = 1;
nodes = (
(404.42,738.28,l),
(387.9,754.8,o),
(361.09,754.8,o),
(344.57,738.28,cs),
(294.51,688.22,l),
(311.03,671.68,o),
(337.84,671.68,o),
(354.36,688.22,cs)
);
},
{
closed = 1;
nodes = (
(368.4,627.37,l),
(364.81,634.53,o),
(357.49,639.06,o),
(349.46,639.06,cs),
(341.43,639.06,o),
(334.13,634.53,o),
(330.53,627.37,cs),
(17.,0.33,l),
(46.01,0.33,o),
(72.52,16.73,o),
(85.49,42.66,cs),
(169.14,209.97,l),
(529.74,209.97,l),
(613.38,42.66,ls),
(626.35,16.71,o),
(652.88,0.33,o),
(681.87,0.33,c),
(368.37,627.37,l)
);
},
{
closed = 1;
nodes = (
(190.32,252.3,l),
(349.46,570.57,l),
(508.59,252.3,l)
);
}
);
width = 699;
}
);
leftKerningGroup = A2;
rightKerningGroup = A;
unicode = 193;
},
{
glyphname = Acircumflex;
layers = (
{
layerId = "C25E9096-038E-4D62-BE1C-C6CD040495C0";
shapes = (
{
closed = 1;
nodes = (
(349.988,708.398,l),
(370.165,688.221,ls),
(386.702,671.684,o),
(413.496,671.684,o),
(430.018,688.221,c),
(379.957,738.282,ls),
(371.689,746.55,o),
(360.839,750.685,o),
(349.988,750.67,c),
(339.138,750.67,o),
(328.302,746.55,o),
(320.019,738.282,cs),
(269.958,688.221,l),
(286.481,671.684,o),
(313.289,671.684,o),
(329.812,688.221,c)
);
},
{
closed = 1;
nodes = (
(368.402,627.366,l),
(364.818,634.534,o),
(357.495,639.063,o),
(349.466,639.063,cs),
(341.438,639.063,o),
(334.129,634.534,o),
(330.531,627.366,cs),
(17.,0.332,l),
(46.009,0.332,o),
(72.522,16.727,o),
(85.502,42.661,cs),
(169.159,209.974,l),
(529.76,209.974,l),
(613.402,42.661,ls),
(626.369,16.713,o),
(652.895,0.332,o),
(681.89,0.332,c),
(368.387,627.366,l)
);
},
{
closed = 1;
nodes = (
(190.323,252.303,l),
(349.466,570.575,l),
(508.595,252.303,l)
);
}
);
width = 699;
}
);
leftKerningGroup = A2;
rightKerningGroup = A;
unicode = 194;
},
{
glyphname = Atilde;
layers = (
{
layerId = "C25E9096-038E-4D62-BE1C-C6CD040495C0";
shapes = (
{
closed = 1;
nodes = (
(237.633,723.707,l),
(269.69,739.002,o),
(300.082,723.933,o),
(344.006,699.198,cs),
(373.932,682.337,o),
(408.078,663.106,o),
(444.848,663.106,cs),
(471.811,663.106,o),
(500.2,673.462,o),
(529.365,702.683,c),
(528.8,703.234,l),
(513.548,718.458,o),
(490.605,720.829,o),
(471.148,711.544,cs),
(439.091,696.249,o),
(408.699,711.319,o),
(364.775,736.067,cs),
(312.894,765.288,o),
(248.328,801.635,o),
(179.416,732.568,c),
(179.981,732.003,l),
(195.233,716.779,o),
(218.176,714.409,o),
(237.619,723.693,c)
);
},
{
closed = 1;
nodes = (
(368.401,627.366,l),
(364.818,634.534,o),
(357.495,639.063,o),
(349.466,639.063,cs),
(341.438,639.063,o),
(334.129,634.534,o),
(330.531,627.366,cs),
(17.,0.332,l),
(46.009,0.332,o),
(72.522,16.727,o),
(85.502,42.661,cs),
(169.159,209.974,l),
(529.76,209.974,l),
(613.402,42.661,ls),
(626.369,16.713,o),
(652.895,0.332,o),
(681.89,0.332,c),
(368.387,627.366,l)
);
},
{
closed = 1;
nodes = (
(190.323,252.303,l),
(349.466,570.575,l),
(508.595,252.303,l)
);
}
);
width = 699;
}
);
leftKerningGroup = A2;
rightKerningGroup = A;
unicode = 195;
},
{
glyphname = Adieresis;
layers = (
{
layerId = "C25E9096-038E-4D62-BE1C-C6CD040495C0";
shapes = (
{
closed = 1;
nodes = (
(368.402,627.366,l),
(364.818,634.534,o),
(357.495,639.063,o),
(349.466,639.063,cs),
(341.438,639.063,o),
(334.129,634.534,o),
(330.531,627.366,cs),
(17.,0.332,l),
(46.009,0.332,o),
(72.522,16.727,o),
(85.502,42.661,cs),
(169.159,209.974,l),
(529.76,209.974,l),
(613.402,42.661,ls),
(626.369,16.713,o),
(652.895,0.332,o),
(681.89,0.332,c),
(368.387,627.366,l)
);
},
{
closed = 1;
nodes = (
(190.323,252.303,l),
(349.466,570.575,l),
(508.595,252.303,l)
);
},
{
closed = 1;
nodes = (
(312.993,677.639,o),
(330.912,695.544,o),
(330.912,717.64,cs),
(330.912,739.735,o),
(313.007,757.641,o),
(290.911,757.641,cs),
(268.815,757.641,o),
(250.924,739.735,o),
(250.924,717.64,cs),
(250.924,695.544,o),
(268.83,677.639,o),
(290.911,677.639,cs)
);
},
{
closed = 1;
nodes = (
(432.996,677.639,o),
(450.901,695.544,o),
(450.901,717.64,cs),
(450.901,739.735,o),
(432.996,757.641,o),
(410.9,757.641,cs),
(388.804,757.641,o),
(370.913,739.735,o),
(370.913,717.64,cs),
(370.913,695.544,o),
(388.818,677.639,o),
(410.9,677.639,cs)
);
}
);
width = 699;
}
);
leftKerningGroup = A2;
rightKerningGroup = A;
unicode = 196;
},
{
glyphname = Aring;
layers = (
{
layerId = "C25E9096-038E-4D62-BE1C-C6CD040495C0";
shapes = (
{
closed = 1;
nodes = (
(368.387,627.366,l),
(367.908,628.325,o),
(367.202,629.101,o),
(366.595,629.962,c),
(401.122,638.823,o),
(426.689,670.062,o),
(426.689,707.354,cs),
(426.689,751.531,o),
(390.878,787.342,o),
(346.701,787.342,cs),
(302.523,787.342,o),
(266.713,751.531,o),
(266.713,707.354,cs),
(266.713,668.355,o),
(294.622,635.931,o),
(331.547,628.833,c),
(331.237,628.325,o),
(330.799,627.902,o),
(330.531,627.352,c),
(17.,0.318,l),
(46.009,0.318,o),
(72.522,16.713,o),
(85.502,42.647,cs),
(169.159,209.959,l),
(529.76,209.959,l),
(613.402,42.647,ls),
(626.369,16.699,o),
(652.895,0.318,o),
(681.89,0.318,c),
(368.387,627.352,l)
);
},
{
closed = 1;
nodes = (
(309.028,728.123,o),
(325.931,745.013,o),
(346.687,745.013,cs),
(367.442,745.013,o),
(384.345,728.109,o),
(384.345,707.354,cs),
(384.345,686.598,o),
(367.442,669.695,o),
(346.687,669.695,cs),
(325.931,669.695,o),
(309.028,686.598,o),
(309.028,707.354,cs)
);
},
{
closed = 1;
nodes = (
(190.295,252.303,l),
(349.438,570.575,l),
(508.567,252.303,l)
);
}
);
width = 699;
}
);
leftKerningGroup = A2;
rightKerningGroup = A;
unicode = 197;
},
{
glyphname = AE;
layers = (
{
layerId = "C25E9096-038E-4D62-BE1C-C6CD040495C0";
shapes = (
{
closed = 1;
nodes = (
(323.38,42.56,l),
(323.38,298.75,l),
(558.67,298.75,ls),
(582.05,298.75,o),
(601.,317.7,o),
(601.,341.08,c),
(323.38,341.08,l),
(323.38,597.27,l),
(629.9,597.27,ls),
(653.28,597.27,o),
(672.22,616.22,o),
(672.22,639.6,c),
(304.65,639.6,l),
(304.13,639.61,o),
(303.62,639.61,o),
(303.1,639.6,c),
(302.21,639.6,l),
(295.57,639.6,o),
(289.71,636.48,o),
(285.83,631.68,c),
(283.93,629.64,o),
(282.29,627.3,o),
(281.15,624.57,cs),
(21.05,8.01,l),
(20.92,7.71,o),
(21.05,7.36,o),
(21.36,7.23,c),
(42.59,-1.73,o),
(67.07,8.22,o),
(76.03,29.45,cs),
(164.56,239.31,l),
(281.05,239.31,l),
(281.05,21.4,ls),
(281.05,9.71,o),
(290.52,0.23,o),
(302.21,0.23,cs),
(672.22,0.23,l),
(672.22,23.61,o),
(653.28,42.56,o),
(629.9,42.56,c)
);
},
{
closed = 1;
nodes = (
(182.41,281.64,l),
(281.05,515.46,l),
(281.05,281.64,l)
);
}
);
width = 702;
}
);
leftKerningGroup = AE;
rightKerningGroup = E;
unicode = 198;
},
{
glyphname = Ccedilla;
layers = (
{
layerId = "C25E9096-038E-4D62-BE1C-C6CD040495C0";
shapes = (
{
closed = 1;
nodes = (
(345.53,-29.4,l),
(375.94,1.45,l),
(429.43,3.14,o),
(481.67,18.04,o),
(527.61,45.13,c),
(516.12,64.63,o),
(492.06,72.8,o),
(471.12,64.19,cs),
(437.92,50.53,o),
(402.14,43.44,o),
(365.86,43.44,cs),
(213.38,43.44,o),
(89.33,167.49,o),
(89.33,319.99,cs),
(89.33,472.48,o),
(213.38,596.54,o),
(365.86,596.54,cs),
(402.14,596.54,o),
(437.92,589.43,o),
(471.13,575.78,cs),
(492.07,567.17,o),
(516.12,575.36,o),
(527.61,594.86,c),
(478.78,623.66,o),
(422.85,638.88,o),
(365.86,638.88,cs),
(190.04,638.88,o),
(47.,495.84,o),
(47.,320.,cs),
(47.,159.91,o),
(165.59,27.04,o),
(319.51,4.52,c),
(279.86,-35.7,ls),
(273.88,-41.79,o),
(272.12,-50.86,o),
(275.42,-58.73,cs),
(278.71,-66.6,o),
(286.41,-71.73,o),
(294.95,-71.73,cs),
(389.26,-71.73,ls),
(400.77,-71.73,o),
(411.46,-79.56,o),
(413.34,-90.92,cs),
(415.73,-105.36,o),
(404.58,-117.92,o),
(390.57,-117.92,c),
(316.05,-117.64,ls),
(292.7,-117.55,o),
(273.73,-136.46,o),
(273.73,-159.81,c),
(390.57,-160.25,l),
(428.79,-160.25,o),
(459.48,-127.29,o),
(455.67,-88.29,cs),
(452.35,-54.3,o),
(421.79,-29.41,o),
(387.65,-29.4,c)
);
}
);
width = 554;
}
);
leftKerningGroup = C2;
rightKerningGroup = C;
unicode = 199;
},
{
glyphname = Egrave;
layers = (
{
layerId = "C25E9096-038E-4D62-BE1C-C6CD040495C0";
shapes = (
{
closed = 1;
nodes = (
(279.484,738.282,ls),
(262.962,754.805,o),
(236.154,754.805,o),
(219.631,738.282,c),
(269.692,688.221,ls),
(286.215,671.684,o),
(313.023,671.684,o),
(329.546,688.221,c)
);
},
{
closed = 1;
nodes = (
(121.329,42.562,l),
(121.329,298.752,l),
(356.622,298.752,ls),
(380.002,298.752,o),
(398.951,317.701,o),
(398.951,341.081,c),
(121.329,341.081,l),
(121.329,597.27,l),
(427.848,597.27,ls),
(451.227,597.27,o),
(470.177,616.219,o),
(470.177,639.599,c),
(100.165,639.599,ls),
(88.468,639.599,o),
(79,630.117,o),
(79,618.435,cs),
(79,21.398,ls),
(79,9.715,o),
(88.468,0.233,o),
(100.165,0.233,cs),
(470.177,0.233,l),
(470.177,23.613,o),
(451.227,42.562,o),
(427.848,42.562,c)
);
}
);
width = 500;
}
);
leftKerningGroup = B;
rightKerningGroup = E;
unicode = 200;
},
{
glyphname = Eacute;
layers = (
{
layerId = "C25E9096-038E-4D62-BE1C-C6CD040495C0";
shapes = (
{
closed = 1;
nodes = (
(329.531,738.282,l),
(313.009,754.805,o),
(286.201,754.805,o),
(269.678,738.282,cs),
(219.617,688.221,l),
(236.139,671.684,o),
(262.948,671.684,o),
(279.47,688.221,cs)
);
},
{
closed = 1;
nodes = (
(121.329,42.633,l),
(121.329,298.822,l),
(356.622,298.822,ls),
(380.002,298.822,o),
(398.951,317.771,o),
(398.951,341.151,c),
(121.329,341.151,l),
(121.329,597.341,l),
(427.848,597.341,ls),
(451.227,597.341,o),
(470.177,616.29,o),
(470.177,639.67,c),
(100.165,639.67,ls),
(88.468,639.67,o),
(79,630.188,o),
(79,618.505,cs),
(79,21.468,ls),
(79,9.785,o),
(88.468,0.304,o),
(100.165,0.304,cs),
(470.177,0.304,l),
(470.177,23.683,o),
(451.227,42.633,o),
(427.848,42.633,c)
);
}
);
width = 500;
}
);
leftKerningGroup = B;
rightKerningGroup = E;
unicode = 201;
},
{
glyphname = Ecircumflex;
layers = (
{
layerId = "C25E9096-038E-4D62-BE1C-C6CD040495C0";
shapes = (
{
closed = 1;
nodes = (
(274.602,712.772,l),
(294.779,692.595,ls),
(311.302,676.073,o),
(338.11,676.073,o),
(354.633,692.595,c),
(304.571,742.656,ls),
(296.303,750.924,o),
(285.453,755.059,o),
(274.602,755.044,c),
(263.752,755.044,o),
(252.916,750.924,o),
(244.634,742.656,cs),
(194.572,692.595,l),
(211.095,676.073,o),
(237.903,676.073,o),
(254.426,692.595,c)
);
},
{
closed = 1;
nodes = (
(427.848,42.562,l),
(121.329,42.562,l),
(121.329,298.752,l),
(356.636,298.752,ls),
(380.016,298.752,o),
(398.965,317.701,o),
(398.965,341.081,c),
(121.329,341.081,l),
(121.329,597.256,l),
(427.848,597.256,ls),
(451.227,597.256,o),
(470.177,616.205,o),
(470.177,639.585,c),
(100.165,639.585,ls),
(88.482,639.585,o),
(79.,630.117,o),
(79.,618.42,cs),
(79.,21.384,ls),
(79.,9.701,o),
(88.482,0.219,o),
(100.165,0.219,cs),
(470.177,0.219,l),
(470.177,23.599,o),
(451.227,42.548,o),
(427.848,42.548,c)
);
}
);
width = 500;
}
);
leftKerningGroup = B;
rightKerningGroup = E;
unicode = 202;
},
{
glyphname = Edieresis;
layers = (
{
layerId = "C25E9096-038E-4D62-BE1C-C6CD040495C0";
shapes = (
{
closed = 1;
nodes = (
(121.329,42.633,l),
(121.329,298.822,l),
(356.636,298.822,ls),
(380.016,298.822,o),
(398.965,317.771,o),
(398.965,341.151,c),
(121.329,341.151,l),
(121.329,597.341,l),
(427.848,597.341,ls),
(451.227,597.341,o),
(470.177,616.29,o),
(470.177,639.67,c),
(100.165,639.67,ls),
(88.482,639.67,o),
(79,630.188,o),
(79,618.505,cs),
(79,21.468,ls),
(79,9.785,o),
(88.482,0.304,o),
(100.165,0.304,cs),
(470.177,0.304,l),
(470.177,23.683,o),
(451.227,42.633,o),
(427.848,42.633,c)
);
},
{
closed = 1;
nodes = (
(236.676,677.639,o),
(254.581,695.544,o),
(254.581,717.64,cs),
(254.581,739.735,o),
(236.676,757.641,o),
(214.594,757.641,cs),
(192.512,757.641,o),
(174.593,739.735,o),
(174.593,717.64,cs),
(174.593,695.544,o),
(192.498,677.639,o),
(214.594,677.639,cs)
);
},
{
closed = 1;
nodes = (
(356.664,677.639,o),
(374.584,695.544,o),
(374.584,717.64,cs),
(374.584,739.735,o),
(356.678,757.641,o),
(334.583,757.641,cs),
(312.487,757.641,o),
(294.582,739.735,o),
(294.582,717.64,cs),
(294.582,695.544,o),
(312.487,677.639,o),
(334.583,677.639,cs)
);
}
);
width = 500;
}
);
leftKerningGroup = B;
rightKerningGroup = E;
unicode = 203;
},
{
glyphname = Igrave;
layers = (
{
layerId = "C25E9096-038E-4D62-BE1C-C6CD040495C0";
shapes = (
{
closed = 1;
nodes = (
(104.853,744.829,ls),
(88.317,761.366,o),
(61.522,761.366,o),
(45,744.829,c),
(95.061,694.768,ls),
(111.584,678.231,o),
(138.392,678.231,o),
(154.914,694.768,c)
);
},
{
closed = 1;
nodes = (
(78.793,0.022,l),
(102.172,0.022,o),
(121.122,18.971,o),
(121.122,42.351,cs),
(121.122,639.952,l),
(97.742,639.952,o),
(78.793,621.003,o),
(78.793,597.623,cs)
);
}
);
width = 200;
}
);
unicode = 204;
},
{
glyphname = Iacute;
layers = (
{
layerId = "C25E9096-038E-4D62-BE1C-C6CD040495C0";
shapes = (
{
closed = 1;
nodes = (
(157.914,744.829,l),
(141.392,761.366,o),
(114.584,761.366,o),
(98.061,744.829,cs),
(48,694.768,l),
(64.537,678.231,o),
(91.331,678.231,o),
(107.853,694.768,cs)
);
},
{
closed = 1;
nodes = (
(79.634,0.29,l),
(103.014,0.29,o),
(121.963,19.239,o),
(121.963,42.619,cs),
(121.963,640.22,l),
(98.583,640.22,o),
(79.634,621.271,o),
(79.634,597.891,cs)
);
}
);
width = 201;
}
);
unicode = 205;
},
{
glyphname = Icircumflex;
layers = (
{
layerId = "C25E9096-038E-4D62-BE1C-C6CD040495C0";
shapes = (
{
closed = 1;
nodes = (
(130.999,743.743,ls),
(122.731,752.011,o),
(111.88,756.145,o),
(101.03,756.131,c),
(90.18,756.131,o),
(79.344,752.011,o),
(71.061,743.743,cs),
(21.,693.681,l),
(37.537,677.159,o),
(64.331,677.159,o),
(80.853,693.681,cs),
(101.03,713.858,l),
(121.207,693.681,ls),
(137.729,677.159,o),
(164.538,677.159,o),
(181.06,693.681,c)
);
},
{
closed = 1;
nodes = (
(78.779,0.022,l),
(102.159,0.022,o),
(121.108,18.971,o),
(121.108,42.351,cs),
(121.108,639.952,l),
(97.728,639.952,o),
(78.779,621.003,o),
(78.779,597.623,cs)
);
}
);
width = 201;
}
);
unicode = 206;
},
{
glyphname = Idieresis;
layers = (
{
layerId = "C25E9096-038E-4D62-BE1C-C6CD040495C0";
shapes = (
{
closed = 1;
nodes = (
(79.48,0.022,l),
(102.86,0.022,o),
(121.809,18.971,o),
(121.809,42.351,cs),
(121.809,639.952,l),
(98.429,639.952,o),
(79.48,621.003,o),
(79.48,597.623,cs)
);
},
{
closed = 1;
nodes = (
(62.093,680.291,o),
(80.002,698.2,o),
(80.002,720.292,cs),
(80.002,742.384,o),
(62.093,760.293,o),
(40.001,760.293,cs),
(17.909,760.293,o),
(0,742.384,o),
(0,720.292,cs),
(0,698.2,o),
(17.909,680.291,o),
(40.001,680.291,cs)
);
},
{
closed = 1;
nodes = (
(182.082,680.291,o),
(199.991,698.2,o),
(199.991,720.292,cs),
(199.991,742.384,o),
(182.082,760.293,o),
(159.99,760.293,cs),
(137.898,760.293,o),
(119.989,742.384,o),
(119.989,720.292,cs),
(119.989,698.2,o),
(137.898,680.291,o),
(159.99,680.291,cs)
);
}
);
width = 201;
}
);
unicode = 207;
},
{
glyphname = Eth;
layers = (
{
layerId = "C25E9096-038E-4D62-BE1C-C6CD040495C0";
shapes = (
{
closed = 1;
nodes = (
(157.118,639.818,l),
(157.118,341.017,l),
(62.329,341.017,ls),
(38.949,341.017,o),
(20,322.068,o),
(20,298.688,c),
(157.118,298.688,l),
(157.118,-0.112,l),
(317.107,-0.112,ls),
(493.817,-0.112,o),
(637.073,143.143,o),
(637.073,319.853,cs),
(637.073,496.563,o),
(493.817,639.818,o),
(317.107,639.818,c)
);
},
{
closed = 1;
nodes = (
(199.447,42.217,l),
(199.447,298.688,l),
(377.624,298.688,ls),
(401.004,298.688,o),
(419.953,317.638,o),
(419.953,341.017,c),
(199.447,341.017,l),
(199.447,597.489,l),
(317.107,597.489,ls),
(470.197,597.489,o),
(594.744,472.943,o),
(594.744,319.853,cs),
(594.744,166.763,o),
(470.197,42.217,o),
(317.107,42.217,c)
);
}
);
width = 685;
}
);
rightKerningGroup = D;
unicode = 208;
},
{
glyphname = Ntilde;
layers = (
{
layerId = "C25E9096-038E-4D62-BE1C-C6CD040495C0";
shapes = (
{
closed = 1;
nodes = (
(224.37,723.811,l),
(256.427,739.106,o),
(286.82,724.036,o),
(330.757,699.302,cs),
(360.684,682.441,o),
(394.829,663.21,o),
(431.599,663.21,cs),
(458.563,663.21,o),
(486.951,673.566,o),
(516.116,702.787,c),
(515.552,703.338,l),
(500.285,718.562,o),
(477.357,720.932,o),
(457.899,711.648,cs),
(425.842,696.353,o),
(395.45,711.422,o),
(351.527,736.171,cs),
(299.645,765.392,o),
(235.079,801.738,o),
(166.168,732.672,c),
(166.732,732.107,l),
(181.985,716.883,o),
(204.927,714.512,o),
(224.37,723.797,c)
);
},
{
closed = 1;
nodes = (
(559.955,80.931,l),
(117.659,631.138,ls),
(112.043,638.123,o),
(102.632,640.818,o),
(94.138,637.84,cs),
(85.658,634.863,o),
(80.,626.849,o),
(80.,617.875,cs),
(80.,-0.016,l),
(103.38,-0.016,o),
(122.329,18.934,o),
(122.329,42.313,cs),
(122.329,557.768,l),
(564.625,7.561,ls),
(568.717,2.467,o),
(574.826,-0.34,o),
(581.119,-0.34,cs),
(583.462,-0.34,o),
(585.832,0.055,o),
(588.146,0.859,cs),
(596.626,3.836,o),
(602.284,11.85,o),
(602.284,20.824,cs),
(602.284,639.914,l),
(578.904,639.914,o),
(559.955,620.965,o),
(559.955,597.585,c)
);
}
);
width = 683;
}
);
leftKerningGroup = B;
rightKerningGroup = H;
unicode = 209;
},
{
glyphname = Ograve;
layers = (
{
layerId = "C25E9096-038E-4D62-BE1C-C6CD040495C0";
shapes = (
{
closed = 1;
nodes = (
(368.912,751.743,ls),
(352.39,768.279,o),
(325.581,768.279,o),
(309.059,751.743,c),
(359.12,701.682,ls),
(375.643,685.159,o),
(402.451,685.159,o),
(418.973,701.682,c)
);
},
{
closed = 1;
nodes = (
(190.256,639.67,o),
(47.,496.414,o),
(47.,319.704,cs),
(47.,142.995,o),
(190.256,-0.261,o),
(366.965,-0.261,cs),
(543.675,-0.261,o),
(686.93,142.995,o),
(686.93,319.704,cs),
(686.93,496.414,o),
(543.675,639.67,o),
(366.965,639.67,cs)
);
},
{
closed = 1;
nodes = (
(213.875,42.068,o),
(89.329,166.615,o),
(89.329,319.705,cs),
(89.329,472.795,o),
(213.875,597.341,o),
(366.965,597.341,cs),
(520.055,597.341,o),
(644.601,472.795,o),
(644.601,319.705,cs),
(644.601,166.615,o),
(520.055,42.068,o),
(366.965,42.068,cs)
);
}
);
width = 734;
}
);
leftKerningGroup = C2;
rightKerningGroup = D;
unicode = 210;
},
{
glyphname = Oacute;
layers = (
{
layerId = "C25E9096-038E-4D62-BE1C-C6CD040495C0";
shapes = (
{
closed = 1;
nodes = (
(417.012,751.743,l),
(400.476,768.279,o),
(373.681,768.279,o),
(357.159,751.743,cs),
(307.098,701.682,l),
(323.62,685.159,o),
(350.429,685.159,o),
(366.951,701.682,cs)
);
},
{
closed = 1;
nodes = (
(190.256,639.67,o),
(47,496.414,o),
(47,319.704,cs),
(47,142.995,o),
(190.256,-0.261,o),
(366.965,-0.261,cs),
(543.675,-0.261,o),
(686.93,142.995,o),
(686.93,319.704,cs),
(686.93,496.414,o),
(543.675,639.67,o),
(366.965,639.67,cs)
);
},
{
closed = 1;
nodes = (
(213.875,42.068,o),
(89.329,166.615,o),
(89.329,319.705,cs),
(89.329,472.795,o),
(213.875,597.341,o),
(366.965,597.341,cs),
(520.055,597.341,o),
(644.601,472.795,o),
(644.601,319.705,cs),
(644.601,166.615,o),
(520.055,42.068,o),
(366.965,42.068,cs)
);
}
);
width = 734;
}
);
leftKerningGroup = C2;
rightKerningGroup = D;
unicode = 211;
},
{
glyphname = Ocircumflex;
layers = (
{
layerId = "C25E9096-038E-4D62-BE1C-C6CD040495C0";
shapes = (
{
closed = 1;
nodes = (
(365.272,713.858,l),
(385.449,693.681,ls),
(401.971,677.159,o),
(428.78,677.159,o),
(445.302,693.681,c),
(395.241,743.743,ls),
(386.973,752.011,o),
(376.122,756.145,o),
(365.272,756.131,c),
(354.422,756.131,o),
(343.585,752.011,o),
(335.303,743.743,cs),
(285.242,693.681,l),
(301.778,677.159,o),
(328.573,677.159,o),
(345.095,693.681,c)
);
},
{
closed = 1;
nodes = (
(190.256,639.67,o),
(47,496.414,o),
(47,319.704,cs),
(47,142.995,o),
(190.256,-0.261,o),
(366.965,-0.261,cs),
(543.675,-0.261,o),
(686.93,142.995,o),
(686.93,319.704,cs),
(686.93,496.414,o),
(543.675,639.67,o),
(366.965,639.67,cs)
);
},
{
closed = 1;
nodes = (
(213.875,42.068,o),
(89.329,166.615,o),
(89.329,319.704,cs),
(89.329,472.794,o),
(213.875,597.341,o),
(366.965,597.341,cs),
(520.055,597.341,o),
(644.601,472.794,o),
(644.601,319.704,cs),
(644.601,166.615,o),
(520.055,42.068,o),
(366.965,42.068,cs)
);
}
);
width = 734;
}
);
leftKerningGroup = C2;
rightKerningGroup = D;
unicode = 212;
},
{
glyphname = Otilde;
layers = (
{
layerId = "C25E9096-038E-4D62-BE1C-C6CD040495C0";
shapes = (
{
closed = 1;
nodes = (
(254.991,726.936,l),
(287.048,742.231,o),
(317.44,727.162,o),
(361.364,702.428,cs),
(391.29,685.567,o),
(425.436,666.335,o),
(462.205,666.335,cs),
(489.169,666.335,o),
(517.558,676.692,o),
(546.722,705.913,c),
(546.158,706.477,l),
(530.891,721.702,o),
(507.963,724.072,o),
(488.506,714.788,cs),
(456.449,699.493,o),
(426.056,714.562,o),
(382.133,739.31,cs),
(330.252,768.532,o),
(265.686,804.878,o),
(196.774,735.811,c),
(197.339,735.247,l),
(212.591,720.023,o),
(235.534,717.652,o),
(254.977,726.936,c)
);
},
{
closed = 1;
nodes = (
(190.256,639.795,o),
(47.,496.539,o),
(47.,319.83,cs),
(47.,143.12,o),
(190.256,-0.135,o),
(366.965,-0.135,cs),
(543.675,-0.135,o),
(686.93,143.12,o),
(686.93,319.83,cs),
(686.93,496.539,o),
(543.675,639.795,o),
(366.965,639.795,cs)
);
},
{
closed = 1;
nodes = (
(213.875,42.194,o),
(89.329,166.74,o),
(89.329,319.83,cs),
(89.329,472.92,o),
(213.875,597.466,o),
(366.965,597.466,cs),
(520.055,597.466,o),
(644.601,472.92,o),
(644.601,319.83,cs),
(644.601,166.74,o),
(520.055,42.194,o),
(366.965,42.194,cs)
);
}
);
width = 734;
}
);
leftKerningGroup = C2;
rightKerningGroup = D;
unicode = 213;
},
{
glyphname = Odieresis;
layers = (
{
layerId = "C25E9096-038E-4D62-BE1C-C6CD040495C0";
shapes = (
{
closed = 1;
nodes = (
(190.256,639.67,o),
(47.,496.414,o),
(47.,319.704,cs),
(47.,142.995,o),
(190.256,-0.261,o),
(366.965,-0.261,cs),
(543.675,-0.261,o),
(686.93,142.995,o),
(686.93,319.704,cs),
(686.93,496.414,o),
(543.675,639.67,o),
(366.965,639.67,cs)
);
},
{
closed = 1;
nodes = (
(213.875,42.068,o),
(89.329,166.615,o),
(89.329,319.705,cs),
(89.329,472.795,o),
(213.875,597.341,o),
(366.965,597.341,cs),
(520.055,597.341,o),
(644.601,472.795,o),
(644.601,319.705,cs),
(644.601,166.615,o),
(520.055,42.068,o),
(366.965,42.068,cs)
);
},
{
closed = 1;
nodes = (
(326.057,680.291,o),
(343.966,698.2,o),
(343.966,720.292,cs),
(343.966,742.384,o),
(326.057,760.293,o),
(303.965,760.293,cs),
(281.874,760.293,o),
(263.964,742.384,o),
(263.964,720.292,cs),
(263.964,698.2,o),
(281.874,680.291,o),
(303.965,680.291,cs)
);
},
{
closed = 1;
nodes = (
(446.036,680.291,o),
(463.955,698.197,o),
(463.955,720.292,cs),
(463.955,742.388,o),
(446.05,760.293,o),
(423.954,760.293,cs),
(401.858,760.293,o),
(383.967,742.388,o),
(383.967,720.292,cs),
(383.967,698.197,o),
(401.872,680.291,o),
(423.954,680.291,cs)
);
}
);
width = 734;
}
);
leftKerningGroup = C2;
rightKerningGroup = D;
unicode = 214;
},
{
glyphname = multiply;
layers = (
{
layerId = "C25E9096-038E-4D62-BE1C-C6CD040495C0";
shapes = (
{
closed = 1;
nodes = (
(252.62,392.28,l),
(236.1,408.81,o),
(209.29,408.81,o),
(192.77,392.28,cs),
(152.81,352.33,l),
(112.85,392.28,ls),
(96.33,408.81,o),
(69.52,408.81,o),
(53.,392.28,c),
(122.89,322.4,l),
(53.,252.51,l),
(69.54,235.99,o),
(96.33,235.99,o),
(112.85,252.51,cs),
(152.81,292.47,l),
(192.77,252.51,ls),
(209.31,235.99,o),
(236.1,235.99,o),
(252.62,252.51,c),
(182.74,322.4,l)
);
}
);
width = 306;
}
);
unicode = 215;
},
{
glyphname = Oslash;
layers = (
{
layerId = "C25E9096-038E-4D62-BE1C-C6CD040495C0";
shapes = (
{
closed = 1;
nodes = (
(577.422,562.335,l),
(625.86,626.914,l),
(607.165,640.94,o),
(580.639,637.158,o),
(566.614,618.449,cs),
(543.601,587.76,l),
(493.37,620.551,o),
(433.418,639.684,o),
(368.965,639.684,cs),
(192.256,639.684,o),
(49,496.428,o),
(49,319.719,cs),
(49,222.644,o),
(92.288,135.743,o),
(160.537,77.06,c),
(112.07,12.438,l),
(130.766,-1.587,o),
(157.292,2.194,o),
(171.317,20.904,cs),
(194.372,51.635,l),
(244.588,18.858,o),
(304.54,-0.261,o),
(368.979,-0.261,cs),
(545.689,-0.261,o),
(688.944,142.995,o),
(688.944,319.704,cs),
(688.944,416.751,o),
(645.67,503.652,o),
(577.45,562.335,c)
);
},
{
closed = 1;
nodes = (
(91.315,319.704,l),
(91.315,472.794,o),
(215.861,597.341,o),
(368.951,597.341,cs),
(423.795,597.341,o),
(474.844,581.143,o),
(517.963,553.587,c),
(186.174,111.262,l),
(128.169,162.184,o),
(91.315,236.641,o),
(91.315,319.719,c)
);
},
{
closed = 1;
nodes = (
(314.121,42.068,o),
(263.086,58.252,o),
(219.981,85.808,c),
(551.77,528.133,l),
(609.747,477.211,o),
(646.587,402.768,o),
(646.587,319.705,cs),
(646.587,166.615,o),
(522.041,42.068,o),
(368.951,42.068,cs)
);
}
);
width = 738;
}
);
unicode = 216;
},
{
glyphname = Ugrave;
layers = (
{
layerId = "C25E9096-038E-4D62-BE1C-C6CD040495C0";
shapes = (
{
closed = 1;
nodes = (
(319.63,748.815,ls),
(303.108,765.351,o),
(276.299,765.351,o),
(259.777,748.815,c),
(309.838,698.754,ls),
(326.36,682.217,o),
(353.169,682.217,o),
(369.691,698.754,c)
);
},
{
closed = 1;
nodes = (
(518.153,245.325,ls),
(518.153,129.753,o),
(421.29,36.389,o),
(304.49,42.16,cs),
(195.225,47.55,o),
(111.329,141.817,o),
(111.329,251.223,cs),
(111.329,639.507,l),
(87.949,639.507,o),
(69,620.558,o),
(69,597.178,cs),
(69,251.816,ls),
(69,114.359,o),
(181.468,-2.695,o),
(318.911,-0.395,cs),
(452.501,1.835,o),
(560.482,111.199,o),
(560.482,245.325,cs),
(560.482,639.507,l),
(537.103,639.507,o),
(518.153,620.558,o),
(518.153,597.178,c)
);
}
);
width = 631;
}
);
leftKerningGroup = U2;
rightKerningGroup = U;
unicode = 217;
},
{
glyphname = Uacute;
layers = (
{
layerId = "C25E9096-038E-4D62-BE1C-C6CD040495C0";
shapes = (
{
closed = 1;
nodes = (
(369.691,748.815,l),
(353.169,765.351,o),
(326.36,765.351,o),
(309.838,748.815,cs),
(259.777,698.754,l),
(276.313,682.217,o),
(303.108,682.217,o),
(319.63,698.754,cs)
);
},
{
closed = 1;
nodes = (
(518.153,245.325,ls),
(518.153,129.753,o),
(421.29,36.389,o),
(304.49,42.16,cs),
(195.225,47.55,o),
(111.329,141.817,o),
(111.329,251.223,cs),
(111.329,639.507,l),
(87.949,639.507,o),
(69,620.558,o),
(69,597.178,cs),
(69,251.816,ls),
(69,114.359,o),
(181.468,-2.695,o),
(318.911,-0.395,cs),
(452.501,1.835,o),
(560.482,111.199,o),
(560.482,245.325,cs),
(560.482,639.507,l),
(537.103,639.507,o),
(518.153,620.558,o),
(518.153,597.178,c)
);
}
);
width = 631;
}
);
leftKerningGroup = U2;
rightKerningGroup = U;
unicode = 218;
},
{
glyphname = Ucircumflex;
layers = (
{
layerId = "C25E9096-038E-4D62-BE1C-C6CD040495C0";
shapes = (
{
closed = 1;
nodes = (
(316.173,722.088,l),
(336.35,701.911,ls),
(352.873,685.375,o),
(379.681,685.375,o),
(396.203,701.911,c),
(346.142,751.972,ls),
(337.874,760.241,o),
(327.024,764.375,o),
(316.173,764.361,c),
(305.323,764.361,o),
(294.473,760.241,o),
(286.204,751.972,cs),
(236.143,701.911,l),
(252.666,685.375,o),
(279.474,685.375,o),
(295.996,701.911,c)
);
},
{
closed = 1;
nodes = (
(518.153,245.971,ls),
(518.153,130.399,o),
(421.29,37.035,o),
(304.491,42.806,cs),
(195.225,48.196,o),
(111.329,142.462,o),
(111.329,251.869,cs),
(111.329,640.153,l),
(87.949,640.153,o),
(69.,621.204,o),
(69.,597.824,cs),
(69.,252.462,ls),
(69.,115.005,o),
(181.468,-2.049,o),
(318.911,0.251,cs),
(452.501,2.48,o),
(560.482,111.844,o),
(560.482,245.971,cs),
(560.482,640.153,l),
(537.103,640.153,o),
(518.153,621.204,o),
(518.153,597.824,c)
);
}
);
width = 630;
}
);
leftKerningGroup = U2;
rightKerningGroup = U;
unicode = 219;
},
{
glyphname = Udieresis;
layers = (
{
layerId = "C25E9096-038E-4D62-BE1C-C6CD040495C0";
shapes = (
{
closed = 1;
nodes = (
(518.153,245.971,ls),
(518.153,130.399,o),
(421.29,37.035,o),
(304.49,42.806,cs),
(195.225,48.196,o),
(111.329,142.462,o),
(111.329,251.869,cs),
(111.329,640.153,l),
(87.949,640.153,o),
(69,621.204,o),
(69,597.824,cs),
(69,252.462,ls),
(69,115.005,o),
(181.482,-2.049,o),
(318.911,0.251,cs),
(452.501,2.48,o),
(560.482,111.844,o),
(560.482,245.971,cs),
(560.482,640.153,l),
(537.103,640.153,o),
(518.153,621.204,o),
(518.153,597.824,c)
);
},
{
closed = 1;
nodes = (
(283.411,691.795,o),
(301.316,709.7,o),
(301.316,731.795,cs),
(301.316,753.891,o),
(283.411,771.796,o),
(261.329,771.796,cs),
(239.247,771.796,o),
(221.342,753.891,o),
(221.342,731.795,cs),
(221.342,709.7,o),
(239.247,691.795,o),
(261.329,691.795,cs)
);
},
{
closed = 1;
nodes = (
(403.399,691.795,o),
(421.319,709.7,o),
(421.319,731.795,cs),
(421.319,753.891,o),
(403.413,771.796,o),
(381.318,771.796,cs),
(359.222,771.796,o),
(341.317,753.891,o),
(341.317,731.795,cs),
(341.317,709.7,o),
(359.222,691.795,o),
(381.318,691.795,cs)
);
}
);
width = 630;
}
);
leftKerningGroup = U2;
rightKerningGroup = U;
unicode = 220;
},
{
glyphname = Yacute;
layers = (
{
layerId = "C25E9096-038E-4D62-BE1C-C6CD040495C0";
shapes = (
{
closed = 1;
nodes = (
(320.136,751.972,l),
(303.613,768.509,o),
(276.805,768.509,o),
(260.283,751.972,cs),
(210.221,701.911,l),
(226.744,685.375,o),
(253.552,685.375,o),
(270.075,701.911,cs)
);
},
{
closed = 1;
nodes = (
(265.207,360.457,l),
(74.134,622.587,ls),
(60.363,641.479,o),
(33.893,645.628,o),
(15,631.842,c),
(244.042,317.634,l),
(244.042,0.039,l),
(267.422,0.039,o),
(286.371,18.989,o),
(286.371,42.368,cs),
(286.371,317.634,l),
(515.414,631.842,l),
(496.521,645.614,o),
(470.051,641.465,o),
(456.28,622.587,c)
);
}
);
width = 531;
}
);
leftKerningGroup = Y2;
rightKerningGroup = Y;
unicode = 221;
},
{
glyphname = Thorn;
layers = (
{
layerId = "C25E9096-038E-4D62-BE1C-C6CD040495C0";
shapes = (
{
closed = 1;
nodes = (
(308.05,341.01,l),
(99.33,341.01,l),
(99.33,435.65,ls),
(99.33,459.03,o),
(80.38,477.98,o),
(57,477.98,c),
(57,42.21,ls),
(57,18.83,o),
(75.95,-0.12,o),
(99.33,-0.12,c),
(99.33,136.85,l),
(308.05,136.85,ls),
(364.34,136.85,o),
(410.12,182.64,o),
(410.12,238.92,cs),
(410.12,295.21,o),
(364.34,340.99,o),
(308.05,340.99,c)
);
},
{
closed = 1;
nodes = (
(99.33,179.2,l),
(99.33,298.68,l),
(308.05,298.68,ls),
(341,298.68,o),
(367.79,271.88,o),
(367.79,238.94,cs),
(367.79,205.99,o),
(341,179.2,o),
(308.05,179.2,cs)
);
}
);
width = 441;
}
);
unicode = 222;
},
{
glyphname = germandbls;
layers = (
{
layerId = "C25E9096-038E-4D62-BE1C-C6CD040495C0";
shapes = (
{
closed = 1;
nodes = (
(286.74,301.076,l),
(267.96,317.5,o),
(277.738,340.089,o),
(296.969,390.023,cs),
(302.006,403.103,o),
(304.673,417.368,o),
(302.444,431.209,cs),
(297.759,460.374,o),
(276.284,477.983,o),
(235.352,485.588,c),
(72.005,485.941,l),
(72.005,45.564,ls),
(72.005,22.184,o),
(90.968,3.235,o),
(114.334,3.235,c),
(114.334,443.626,l),
(229.469,443.626,l),
(245.116,440.508,o),
(255.783,435.626,o),
(258.873,430.137,cs),
(263.586,421.77,o),
(256.023,401.777,o),
(249.349,384.14,cs),
(236.566,350.333,o),
(219.056,304.011,o),
(258.859,269.202,cs),
(336.547,201.292,o),
(368.294,135.301,o),
(345.958,88.161,cs),
(330.607,55.751,o),
(290.479,37.07,o),
(250.421,43.828,cs),
(218.9,49.134,o),
(195.605,68.704,o),
(183.429,99.096,cs),
(175.231,119.541,o),
(154.701,132.282,o),
(132.803,129.869,c),
(140.451,60.21,o),
(181.806,12.434,o),
(243.409,2.078,cs),
(251.085,0.78,o),
(258.774,0.159,o),
(266.394,0.159,cs),
(316.666,0.159,o),
(363.99,27.334,o),
(384.209,70.03,cs),
(428.302,163.083,o),
(330.705,262.585,o),
(286.711,301.062,c)
);
}
);
width = 434;
}
);
leftKerningGroup = m2;
unicode = 223;
},
{
glyphname = agrave;
layers = (
{
layerId = "C25E9096-038E-4D62-BE1C-C6CD040495C0";
shapes = (
{
closed = 1;
nodes = (
(484.626,375.955,l),
(441.351,438.743,o),
(369.011,479.957,o),
(286.977,479.957,cs),
(154.431,479.957,o),
(47,372.512,o),
(47,239.98,cs),
(47,107.447,o),
(154.431,0.002,o),
(286.977,0.002,cs),
(368.997,0.002,o),
(441.337,41.217,o),
(484.626,104.005,c),
(484.626,0.002,l),
(508.005,0.002,o),
(526.955,18.952,o),
(526.955,42.331,cs),
(526.955,479.957,l),
(503.575,479.957,o),
(484.626,461.008,o),
(484.626,437.628,c)
);
},
{
closed = 1;
nodes = (
(177.994,42.331,o),
(89.329,130.996,o),
(89.329,239.98,cs),
(89.329,348.963,o),
(177.994,437.628,o),
(286.977,437.628,cs),
(395.96,437.628,o),
(484.626,348.963,o),
(484.626,239.98,cs),
(484.626,130.996,o),
(395.96,42.331,o),
(286.977,42.331,cs)
);
},
{
closed = 1;
nodes = (
(340.735,574.492,l),
(290.674,624.553,ls),
(274.138,641.089,o),
(247.343,641.089,o),
(230.807,624.553,c),
(280.868,574.492,ls),
(297.39,557.969,o),
(324.199,557.969,o),
(340.721,574.492,c)
);
}
);
width = 599;
}
);
unicode = 224;
},
{
glyphname = aacute;
layers = (
{
layerId = "C25E9096-038E-4D62-BE1C-C6CD040495C0";
shapes = (
{
closed = 1;
nodes = (
(484.626,375.955,l),
(441.351,438.743,o),
(369.011,479.957,o),
(286.977,479.957,cs),
(154.445,479.957,o),
(47.,372.512,o),
(47.,239.98,cs),
(47.,107.447,o),
(154.445,0.002,o),
(286.977,0.002,cs),
(368.997,0.002,o),
(441.337,41.217,o),
(484.626,104.005,c),
(484.626,0.002,l),
(508.005,0.002,o),
(526.955,18.952,o),
(526.955,42.331,cs),
(526.955,479.957,l),
(503.575,479.957,o),
(484.626,461.008,o),
(484.626,437.628,c)
);
},
{
closed = 1;
nodes = (
(177.994,42.331,o),
(89.329,130.996,o),
(89.329,239.98,cs),
(89.329,348.963,o),
(177.994,437.628,o),
(286.977,437.628,cs),
(395.96,437.628,o),
(484.626,348.963,o),
(484.626,239.98,cs),
(484.626,130.996,o),
(395.96,42.331,o),
(286.977,42.331,cs)
);
},
{
closed = 1;
nodes = (
(341.935,627.544,l),
(325.412,644.081,o),
(298.604,644.081,o),
(282.081,627.544,cs),
(232.02,577.483,l),
(248.543,560.961,o),
(275.351,560.961,o),
(291.873,577.483,cs)
);
}
);
width = 599;
}
);
leftKerningGroup = aacute;
unicode = 225;
},
{
glyphname = acircumflex;
layers = (
{
layerId = "C25E9096-038E-4D62-BE1C-C6CD040495C0";
shapes = (
{
closed = 1;
nodes = (
(484.626,375.955,l),
(441.351,438.743,o),
(369.011,479.957,o),
(286.977,479.957,cs),
(154.445,479.957,o),
(47.,372.512,o),
(47.,239.98,cs),
(47.,107.447,o),
(154.445,0.002,o),
(286.977,0.002,cs),
(368.997,0.002,o),
(441.337,41.217,o),
(484.626,104.005,c),
(484.626,0.002,l),
(508.005,0.002,o),
(526.955,18.952,o),
(526.955,42.331,cs),
(526.955,479.957,l),
(503.575,479.957,o),
(484.626,461.008,o),
(484.626,437.628,c)
);
},
{
closed = 1;
nodes = (
(177.994,42.331,o),
(89.329,130.996,o),
(89.329,239.98,cs),
(89.329,348.963,o),
(177.994,437.628,o),
(286.977,437.628,cs),
(395.96,437.628,o),
(484.626,348.963,o),
(484.626,239.98,cs),
(484.626,130.996,o),
(395.96,42.331,o),
(286.977,42.331,cs)
);
},
{
closed = 1;
nodes = (
(286.991,597.66,l),
(307.168,577.483,ls),
(323.691,560.961,o),
(350.499,560.961,o),
(367.022,577.483,c),
(316.96,627.544,ls),
(308.692,635.812,o),
(297.842,639.947,o),
(286.991,639.932,c),
(276.141,639.932,o),
(265.305,635.812,o),
(257.023,627.544,cs),
(206.961,577.483,l),
(223.484,560.961,o),
(250.292,560.961,o),
(266.815,577.483,c)
);
}
);
width = 599;
}
);
leftKerningGroup = aacute;
unicode = 226;
},
{
glyphname = atilde;
layers = (
{
layerId = "C25E9096-038E-4D62-BE1C-C6CD040495C0";
shapes = (
{
closed = 1;
nodes = (
(484.626,375.955,l),
(441.351,438.743,o),
(369.011,479.957,o),
(286.977,479.957,cs),
(154.445,479.957,o),
(47.,372.512,o),
(47.,239.98,cs),
(47.,107.447,o),
(154.445,0.002,o),
(286.977,0.002,cs),
(368.997,0.002,o),
(441.337,41.217,o),
(484.626,104.005,c),
(484.626,0.002,l),
(508.005,0.002,o),
(526.955,18.952,o),
(526.955,42.331,cs),
(526.955,479.957,l),
(503.575,479.957,o),
(484.626,461.008,o),
(484.626,437.628,c)
);
},
{
closed = 1;
nodes = (
(177.994,42.331,o),
(89.329,130.996,o),
(89.329,239.98,cs),
(89.329,348.963,o),
(177.994,437.628,o),
(286.977,437.628,cs),
(395.96,437.628,o),
(484.626,348.963,o),
(484.626,239.98,cs),
(484.626,130.996,o),
(395.96,42.331,o),
(286.977,42.331,cs)
);
},
{
closed = 1;
nodes = (
(170.22,591.48,l),
(202.277,606.775,o),
(232.669,591.706,o),
(276.593,566.971,cs),
(306.519,550.11,o),
(340.665,530.879,o),
(377.434,530.879,cs),
(404.398,530.879,o),
(432.787,541.235,o),
(461.951,570.456,c),
(461.387,571.007,l),
(446.12,586.231,o),
(423.192,588.602,o),
(403.735,579.317,cs),
(371.678,564.022,o),
(341.286,579.092,o),
(297.362,603.84,cs),
(245.481,633.061,o),
(180.915,669.408,o),
(112.003,600.341,c),
(112.568,599.776,l),
(127.82,584.552,o),
(150.763,582.182,o),
(170.206,591.466,c)
);
}
);
width = 599;
}
);
leftKerningGroup = atilde;
unicode = 227;
},
{
glyphname = adieresis;
layers = (
{
layerId = "C25E9096-038E-4D62-BE1C-C6CD040495C0";
shapes = (
{
closed = 1;
nodes = (
(484.626,375.955,l),
(441.351,438.743,o),
(369.011,479.957,o),
(286.977,479.957,cs),
(154.445,479.957,o),
(47.,372.512,o),
(47.,239.98,cs),
(47.,107.447,o),
(154.445,0.002,o),
(286.977,0.002,cs),
(368.997,0.002,o),
(441.337,41.217,o),
(484.626,104.005,c),
(484.626,0.002,l),
(508.005,0.002,o),
(526.955,18.952,o),
(526.955,42.331,cs),
(526.955,479.957,l),
(503.575,479.957,o),
(484.626,461.008,o),
(484.626,437.628,c)
);
},
{
closed = 1;
nodes = (
(177.994,42.331,o),
(89.329,130.996,o),
(89.329,239.98,cs),
(89.329,348.963,o),
(177.994,437.628,o),
(286.977,437.628,cs),
(395.96,437.628,o),
(484.626,348.963,o),
(484.626,239.98,cs),
(484.626,130.996,o),
(395.96,42.331,o),
(286.977,42.331,cs)
);
},
{
closed = 1;
nodes = (
(249.079,559.888,o),
(266.984,577.793,o),
(266.984,599.889,cs),
(266.984,621.985,o),
(249.079,639.89,o),
(226.983,639.89,cs),
(204.887,639.89,o),
(186.996,621.985,o),
(186.996,599.889,cs),
(186.996,577.793,o),
(204.901,559.888,o),
(226.983,559.888,cs)
);
},
{
closed = 1;
nodes = (
(369.053,559.888,o),
(386.959,577.793,o),
(386.959,599.889,cs),
(386.959,621.985,o),
(369.053,639.89,o),
(346.972,639.89,cs),
(324.89,639.89,o),
(306.971,621.985,o),
(306.971,599.889,cs),
(306.971,577.793,o),
(324.876,559.888,o),
(346.972,559.888,cs)
);
}
);
width = 599;
}
);
leftKerningGroup = adieresis;
unicode = 228;
},
{
glyphname = aring;
layers = (
{
layerId = "C25E9096-038E-4D62-BE1C-C6CD040495C0";
shapes = (
{
closed = 1;
nodes = (
(484.626,375.955,l),
(441.351,438.743,o),
(369.011,479.957,o),
(286.977,479.957,cs),
(154.445,479.957,o),
(47.,372.512,o),
(47.,239.98,cs),
(47.,107.447,o),
(154.445,0.002,o),
(286.977,0.002,cs),
(368.997,0.002,o),
(441.337,41.217,o),
(484.626,104.005,c),
(484.626,0.002,l),
(508.005,0.002,o),
(526.955,18.952,o),
(526.955,42.331,cs),
(526.955,479.957,l),
(503.575,479.957,o),
(484.626,461.008,o),
(484.626,437.628,c)
);
},
{
closed = 1;
nodes = (
(177.994,42.331,o),
(89.329,130.996,o),
(89.329,239.98,cs),
(89.329,348.963,o),
(177.994,437.628,o),
(286.977,437.628,cs),
(395.96,437.628,o),
(484.626,348.963,o),
(484.626,239.98,cs),
(484.626,130.996,o),
(395.96,42.331,o),
(286.977,42.331,cs)
);
},
{
closed = 1;
nodes = (
(320.107,516.967,o),
(346.972,543.831,o),
(346.972,576.961,cs),
(346.972,610.091,o),
(320.107,636.955,o),
(286.977,636.955,cs),
(253.848,636.955,o),
(226.983,610.091,o),
(226.983,576.961,cs),
(226.983,543.831,o),
(253.848,516.967,o),
(286.977,516.967,cs)
);
},
{
closed = 1;
nodes = (
(296.713,594.626,o),
(304.643,586.697,o),
(304.643,576.961,cs),
(304.643,567.225,o),
(296.713,559.296,o),
(286.977,559.296,cs),
(277.242,559.296,o),
(269.312,567.225,o),
(269.312,576.961,cs),
(269.312,586.697,o),
(277.242,594.626,o),
(286.977,594.626,cs)
);
}
);
width = 599;
}
);
unicode = 229;
},
{
glyphname = ae;
layers = (
{
layerId = "C25E9096-038E-4D62-BE1C-C6CD040495C0";
shapes = (
{
closed = 1;
nodes = (
(886.794,127.356,l),
(851.082,76.025,o),
(791.737,42.331,o),
(724.603,42.331,cs),
(615.634,42.331,o),
(526.969,130.982,o),
(526.955,239.951,c),
(931.423,239.965,l),
(964.581,239.98,l),
(964.581,381.514,o),
(842.038,494.434,o),
(697.259,478.433,cs),
(627.035,470.673,o),
(565.517,431.561,o),
(526.955,375.729,c),
(526.955,479.957,l),
(503.575,479.957,o),
(484.626,461.008,o),
(484.626,437.628,cs),
(484.626,375.955,l),
(441.351,438.743,o),
(369.011,479.957,o),
(286.977,479.957,cs),
(154.445,479.957,o),
(47,372.512,o),
(47,239.98,cs),
(47,107.447,o),
(154.445,0.002,o),
(286.977,0.002,cs),
(368.997,0.002,o),
(441.337,41.217,o),
(484.626,104.005,c),
(484.626,0.002,l),
(508.005,0.002,o),
(526.955,18.952,o),
(526.955,42.331,cs),
(526.955,104.287,l),
(570.215,41.386,o),
(642.485,0.002,o),
(724.603,0.002,cs),
(829.099,0.002,o),
(917.75,66.91,o),
(950.682,160.133,c),
(947.197,160.133,ls),
(922.802,160.133,o),
(900.72,147.364,o),
(886.78,127.342,c)
);
},
{
closed = 1;
nodes = (
(819.053,437.628,o),
(898.124,371.002,o),
(917.567,282.295,c),
(531.625,282.295,l),
(551.068,370.988,o),
(630.153,437.628,o),
(724.603,437.628,c)
);
},
{
closed = 1;
nodes = (
(177.994,42.331,o),
(89.329,130.996,o),
(89.329,239.98,cs),
(89.329,348.963,o),
(177.994,437.628,o),
(286.977,437.628,cs),
(395.961,437.628,o),
(484.626,348.963,o),
(484.626,239.98,cs),
(484.626,130.996,o),
(395.961,42.331,o),
(286.977,42.331,cs)
);
}
);
width = 1010;
}
);
leftKerningGroup = a2;
rightKerningGroup = e;
unicode = 230;
},
{
glyphname = ccedilla;
layers = (
{
layerId = "C25E9096-038E-4D62-BE1C-C6CD040495C0";
shapes = (
{
closed = 1;
nodes = (
(405.005,82.445,l),
(371.113,57.062,o),
(329.603,42.994,o),
(286.653,42.994,cs),
(167.976,42.994,o),
(73.442,148.295,o),
(91.572,270.358,cs),
(101.181,335.079,o),
(143.524,391.771,o),
(202.968,419.116,cs),
(272.543,451.131,o),
(349.131,440.027,o),
(405.005,398.177,cs),
(423.235,384.533,o),
(448.307,384.9,o),
(465.267,400.096,c),
(419.834,450.849,o),
(354.746,479.971,o),
(286.653,479.971,cs),
(154.502,479.971,o),
(47.,372.469,o),
(47.,240.318,cs),
(47.,130.206,o),
(121.753,37.435,o),
(223.103,9.498,c),
(178.925,-35.314,ls),
(172.943,-41.396,o),
(171.179,-50.468,o),
(174.481,-58.341,cs),
(177.769,-66.215,o),
(185.472,-71.336,o),
(194.009,-71.336,cs),
(288.318,-71.336,ls),
(299.831,-71.336,o),
(310.526,-79.167,o),
(312.403,-90.525,cs),
(314.788,-104.974,o),
(303.641,-117.531,o),
(289.63,-117.531,c),
(215.117,-117.249,ls),
(191.765,-117.165,o),
(172.788,-136.057,o),
(172.788,-159.423,c),
(289.63,-159.86,l),
(327.867,-159.86,o),
(358.542,-126.9,o),
(354.732,-87.901,cs),
(351.416,-53.911,o),
(320.869,-29.021,o),
(286.709,-29.021,cs),
(244.592,-29.021,l),
(274.476,1.286,l),
(278.54,1.075,o),
(282.547,0.665,o),
(286.667,0.665,cs),
(354.746,0.665,o),
(419.834,29.774,o),
(465.267,80.526,c),
(448.307,95.708,o),
(423.235,96.103,o),
(405.019,82.445,c)
);
}
);
width = 503;
}
);
leftKerningGroup = a2;
rightKerningGroup = c;
unicode = 231;
},
{
glyphname = egrave;
layers = (
{
layerId = "C25E9096-038E-4D62-BE1C-C6CD040495C0";
shapes = (
{
closed = 1;
nodes = (
(290.081,624.55,ls),
(273.561,641.08,o),
(246.751,641.08,o),
(230.231,624.55,c),
(280.291,574.49,ls),
(296.831,557.97,o),
(323.621,557.97,o),
(340.141,574.49,c)
);
},
{
closed = 1;
nodes = (
(449.171,127.36,l),
(413.461,76.03,o),
(354.111,42.33,o),
(286.981,42.33,cs),
(178.001,42.33,o),
(89.331,130.98,o),
(89.331,239.97,c),
(493.801,239.97,l),
(526.961,239.98,l),
(526.961,381.51,o),
(404.411,494.43,o),
(259.631,478.43,cs),
(149.611,466.27,o),
(60.661,377.32,o),
(48.511,267.28,cs),
(32.531,122.52,o),
(145.451,0,o),
(286.981,0,cs),
(391.481,0,o),
(480.131,66.91,o),
(513.061,160.13,c),
(509.571,160.13,ls),
(485.181,160.13,o),
(463.081,147.36,o),
(449.161,127.34,c)
);
},
{
closed = 1;
nodes = (
(381.431,437.63,o),
(460.501,371.,o),
(479.941,282.29,c),
(94.001,282.29,l),
(113.441,370.99,o),
(192.531,437.63,o),
(286.981,437.63,c)
);
}
);
width = 572;
}
);
unicode = 232;
},
{
glyphname = eacute;
layers = (
{
layerId = "C25E9096-038E-4D62-BE1C-C6CD040495C0";
shapes = (
{
closed = 1;
nodes = (
(341.921,627.54,l),
(325.401,644.08,o),
(298.591,644.08,o),
(282.071,627.54,cs),
(232.011,577.48,l),
(248.531,560.96,o),
(275.341,560.96,o),
(291.861,577.48,cs)
);
},
{
closed = 1;
nodes = (
(449.171,127.36,l),
(413.461,76.03,o),
(354.111,42.33,o),
(286.981,42.33,cs),
(178.001,42.33,o),
(89.331,130.98,o),
(89.331,239.97,c),
(493.801,239.97,l),
(526.961,239.98,l),
(526.961,381.51,o),
(404.411,494.43,o),
(259.631,478.43,cs),
(149.611,466.27,o),
(60.661,377.32,o),
(48.511,267.28,cs),
(32.531,122.52,o),
(145.451,0,o),
(286.981,0,cs),
(391.481,0,o),
(480.131,66.91,o),
(513.061,160.13,c),
(509.571,160.13,ls),
(485.181,160.13,o),
(463.101,147.36,o),
(449.171,127.34,c)
);
},
{
closed = 1;
nodes = (
(381.431,437.63,o),
(460.501,371.,o),
(479.941,282.29,c),
(94.001,282.29,l),
(113.441,370.99,o),
(192.531,437.63,o),
(286.981,437.63,c)
);
}
);
width = 572;
}
);
leftKerningGroup = aacute;
unicode = 233;
},
{
glyphname = ecircumflex;
layers = (
{
layerId = "C25E9096-038E-4D62-BE1C-C6CD040495C0";
shapes = (
{
closed = 1;
nodes = (
(284.451,597.66,l),
(304.631,577.48,ls),
(321.171,560.96,o),
(347.961,560.96,o),
(364.481,577.48,c),
(314.421,627.54,ls),
(306.151,635.81,o),
(295.301,639.95,o),
(284.451,639.93,c),
(273.601,639.93,o),
(262.771,635.81,o),
(254.481,627.54,cs),
(204.421,577.48,l),
(220.951,560.96,o),
(247.751,560.96,o),
(264.281,577.48,c)
);
},
{
closed = 1;
nodes = (
(449.171,127.36,l),
(413.461,76.03,o),
(354.111,42.33,o),
(286.981,42.33,cs),
(178.001,42.33,o),
(89.331,130.98,o),
(89.331,239.97,c),
(493.801,239.97,l),
(526.961,239.98,l),
(526.961,381.51,o),
(404.411,494.43,o),
(259.631,478.43,cs),
(149.611,466.27,o),
(60.661,377.32,o),
(48.511,267.28,cs),
(32.531,122.52,o),
(145.451,0,o),
(286.981,0,cs),
(391.481,0,o),
(480.131,66.91,o),
(513.061,160.13,c),
(509.571,160.13,ls),
(485.181,160.13,o),
(463.081,147.36,o),
(449.161,127.34,c)
);
},
{
closed = 1;
nodes = (
(381.431,437.63,o),
(460.501,371.,o),
(479.941,282.29,c),
(94.001,282.29,l),
(113.441,370.99,o),
(192.531,437.63,o),
(286.981,437.63,c)
);
}
);
width = 572;
}
);
leftKerningGroup = aacute;
unicode = 234;
},
{
glyphname = edieresis;
layers = (
{
layerId = "C25E9096-038E-4D62-BE1C-C6CD040495C0";
shapes = (
{
closed = 1;
nodes = (
(449.161,127.36,l),
(413.441,76.03,o),
(354.101,42.33,o),
(286.971,42.33,cs),
(177.981,42.33,o),
(89.321,130.98,o),
(89.321,239.97,c),
(493.781,239.97,l),
(526.961,239.98,l),
(526.961,381.51,o),
(404.411,494.43,o),
(259.631,478.43,cs),
(149.591,466.27,o),
(60.661,377.32,o),
(48.511,267.28,cs),
(32.531,122.52,o),
(145.451,0,o),
(286.981,0,cs),
(391.481,0,o),
(480.131,66.91,o),
(513.061,160.13,c),
(509.571,160.13,ls),
(485.181,160.13,o),
(463.101,147.36,o),
(449.171,127.34,c)
);
},
{
closed = 1;
nodes = (
(381.401,437.63,o),
(460.491,371.,o),
(479.931,282.29,c),
(93.991,282.29,l),
(113.431,370.99,o),
(192.521,437.63,o),
(286.971,437.63,c)
);
},
{
closed = 1;
nodes = (
(249.081,559.89,o),
(266.991,577.8,o),
(266.991,599.89,cs),
(266.991,621.98,o),
(249.081,639.89,o),
(226.991,639.89,cs),
(204.891,639.89,o),
(186.981,621.98,o),
(186.981,599.89,cs),
(186.981,577.8,o),
(204.891,559.89,o),
(226.991,559.89,cs)
);
},
{
closed = 1;
nodes = (
(369.071,559.89,o),
(386.971,577.8,o),
(386.971,599.89,cs),
(386.971,621.98,o),
(369.071,639.89,o),
(346.971,639.89,cs),
(324.881,639.89,o),
(306.971,621.98,o),
(306.971,599.89,cs),
(306.971,577.8,o),
(324.881,559.89,o),
(346.971,559.89,cs)
);
}
);
width = 572;
}
);
leftKerningGroup = adieresis;
unicode = 235;
},
{
glyphname = igrave;
layers = (
{
layerId = "C25E9096-038E-4D62-BE1C-C6CD040495C0";
shapes = (
{
closed = 1;
nodes = (
(98.853,616.553,ls),
(82.331,633.075,o),
(55.522,633.075,o),
(39,616.553,c),
(89.061,566.492,ls),
(105.584,549.969,o),
(132.392,549.969,o),
(148.914,566.492,c)
);
},
{
closed = 1;
nodes = (
(72.793,-0.139,l),
(96.172,-0.139,o),
(115.122,18.811,o),
(115.122,42.19,cs),
(115.122,479.59,l),
(91.742,479.59,o),
(72.793,460.641,o),
(72.793,437.261,cs)
);
}
);
width = 188;
}
);
unicode = 236;
},
{
glyphname = iacute;
layers = (
{
layerId = "C25E9096-038E-4D62-BE1C-C6CD040495C0";
shapes = (
{
closed = 1;
nodes = (
(149.914,619.53,l),
(133.392,636.053,o),
(106.584,636.053,o),
(90.061,619.53,cs),
(40,569.469,l),
(56.537,552.932,o),
(83.331,552.932,o),
(99.853,569.469,cs)
);
},
{
closed = 1;
nodes = (
(73.003,-0.139,l),
(96.382,-0.139,o),
(115.332,18.811,o),
(115.332,42.19,cs),
(115.332,479.59,l),
(91.952,479.59,o),
(73.003,460.641,o),
(73.003,437.261,cs)
);
}
);
width = 188;
}
);
leftKerningGroup = iacute;
unicode = 237;
},
{
glyphname = icircumflex;
layers = (
{
layerId = "C25E9096-038E-4D62-BE1C-C6CD040495C0";
shapes = (
{
closed = 1;
nodes = (
(124,619.54,ls),
(115.73,627.81,o),
(104.88,631.95,o),
(94.03,631.93,c),
(83.18,631.93,o),
(72.34,627.81,o),
(64.06,619.54,cs),
(14.,569.48,l),
(30.53,552.96,o),
(57.33,552.96,o),
(73.85,569.48,cs),
(94.03,589.66,l),
(114.2,569.48,ls),
(130.73,552.96,o),
(157.53,552.96,o),
(174.06,569.48,c)
);
},
{
closed = 1;
nodes = (
(72.86,-0.14,l),
(96.24,-0.14,o),
(115.19,18.81,o),
(115.19,42.19,cs),
(115.19,479.59,l),
(91.81,479.59,o),
(72.86,460.64,o),
(72.86,437.26,cs)
);
}
);
width = 189;
}
);
leftKerningGroup = iacute;
unicode = 238;
},
{
glyphname = idieresis;
layers = (
{
layerId = "C25E9096-038E-4D62-BE1C-C6CD040495C0";
shapes = (
{
closed = 1;
nodes = (
(71.81,0.06,l),
(95.19,0.06,o),
(114.14,19.01,o),
(114.14,42.39,cs),
(114.14,479.79,l),
(90.76,479.79,o),
(71.81,460.84,o),
(71.81,437.46,cs)
);
},
{
closed = 1;
nodes = (
(55.09,559.89,o),
(73,577.8,o),
(73,599.89,cs),
(73,621.98,o),
(55.09,639.89,o),
(33,639.89,cs),
(10.91,639.89,o),
(-7,621.98,o),
(-7,599.89,cs),
(-7,577.8,o),
(10.91,559.89,o),
(33,559.89,cs)
);
},
{
closed = 1;
nodes = (
(130.89,639.88,o),
(112.99,621.97,o),
(112.99,599.88,cs),
(112.99,577.78,o),
(130.89,559.87,o),
(152.99,559.87,cs),
(175.08,559.87,o),
(192.97,577.78,o),
(192.97,599.88,cs),
(192.97,621.97,o),
(175.07,639.88,o),
(152.99,639.88,cs)
);
}
);
width = 186;
}
);
unicode = 239;
},
{
glyphname = eth;
layers = (
{
layerId = "C25E9096-038E-4D62-BE1C-C6CD040495C0";
shapes = (
{
closed = 1;
nodes = (
(440.629,172.209,l),
(440.756,174.988,o),
(441.053,177.725,o),
(441.053,180.533,cs),
(441.053,190.918,o),
(439.98,201.035,o),
(438.287,210.954,c),
(428.975,301.933,o),
(394.815,384.446,o),
(343.16,443.594,c),
(367.696,468.131,l),
(352.994,482.833,o),
(330.221,484.371,o),
(313.727,472.942,c),
(300.238,484.71,o),
(285.973,495.207,o),
(270.805,503.913,c),
(270.636,503.631,l),
(259.278,483.849,o),
(264.54,459.214,o),
(282.093,444.624,c),
(282.502,444.286,o),
(282.869,443.905,o),
(283.278,443.566,c),
(257.782,418.07,l),
(272.809,403.043,o),
(296.259,401.83,o),
(312.824,414.133,c),
(334.299,389.244,o),
(352.387,359.613,o),
(366.285,326.54,c),
(336.528,348.156,o),
(300.054,361.067,o),
(260.533,361.067,c),
(160.99,361.053,o),
(80.,280.063,o),
(80.,180.519,cs),
(80.,80.975,o),
(160.99,0.,o),
(260.533,0.,cs),
(353.319,0.,o),
(429.906,70.393,o),
(439.895,160.554,c),
(440.968,160.554,l),
(440.968,164.462,o),
(440.728,168.314,o),
(440.643,172.209,c)
);
},
{
closed = 1;
nodes = (
(184.313,42.329,o),
(122.315,104.327,o),
(122.315,180.519,cs),
(122.315,256.711,o),
(184.313,318.723,o),
(260.519,318.723,cs),
(328.655,318.723,o),
(385.291,269.1,o),
(396.551,204.139,c),
(397.538,193.839,o),
(398.046,183.383,o),
(398.328,172.858,c),
(394.321,100.235,o),
(334.129,42.329,o),
(260.519,42.329,c)
);
}
);
width = 521;
}
);
unicode = 240;
},
{
glyphname = ntilde;
layers = (
{
layerId = "C25E9096-038E-4D62-BE1C-C6CD040495C0";
shapes = (
{
closed = 1;
nodes = (
(177.383,591.48,l),
(209.441,606.775,o),
(239.833,591.706,o),
(283.756,566.971,cs),
(313.683,550.11,o),
(347.828,530.879,o),
(384.598,530.879,cs),
(411.562,530.879,o),
(439.95,541.235,o),
(469.115,570.456,c),
(468.551,571.007,l),
(453.298,586.231,o),
(430.356,588.602,o),
(410.899,579.317,cs),
(378.841,564.022,o),
(348.449,579.092,o),
(304.526,603.84,cs),
(252.644,633.061,o),
(188.079,669.408,o),
(119.167,600.341,c),
(119.731,599.776,l),
(134.984,584.552,o),
(157.926,582.182,o),
(177.369,591.466,c)
);
},
{
closed = 1;
nodes = (
(282.994,479.689,l),
(213.236,476.246,o),
(153.185,439.349,o),
(115.329,385.493,c),
(115.329,479.957,l),
(91.949,479.957,o),
(73.,461.008,o),
(73.,437.628,cs),
(73.,0.002,l),
(96.38,0.002,o),
(115.329,18.952,o),
(115.329,42.331,cs),
(115.329,258.816,ls),
(115.329,363.101,o),
(205.067,446.813,o),
(311.383,436.81,cs),
(404.027,428.09,o),
(472.967,346.635,o),
(472.967,253.567,cs),
(472.967,-0.012,l),
(496.347,-0.012,o),
(515.296,18.937,o),
(515.296,42.317,cs),
(515.296,258.802,ls),
(515.296,384.435,o),
(409.981,485.94,o),
(282.994,479.661,c)
);
}
);
width = 578;
}
);
unicode = 241;
},
{
glyphname = ograve;
layers = (
{
layerId = "C25E9096-038E-4D62-BE1C-C6CD040495C0";
shapes = (
{
closed = 1;
nodes = (
(291.873,627.53,ls),
(275.351,644.053,o),
(248.543,644.053,o),
(232.02,627.53,c),
(282.081,577.469,ls),
(298.618,560.932,o),
(325.412,560.932,o),
(341.935,577.469,c)
);
},
{
closed = 1;
nodes = (
(154.445,479.943,o),
(47,372.498,o),
(47,239.965,cs),
(47,107.433,o),
(154.445,-0.012,o),
(286.977,-0.012,cs),
(419.51,-0.012,o),
(526.955,107.433,o),
(526.955,239.965,cs),
(526.955,372.498,o),
(419.51,479.943,o),
(286.977,479.943,cs)
);
},
{
closed = 1;
nodes = (
(177.994,42.317,o),
(89.329,130.982,o),
(89.329,239.965,cs),
(89.329,348.949,o),
(177.994,437.614,o),
(286.977,437.614,cs),
(395.961,437.614,o),
(484.626,348.949,o),
(484.626,239.965,cs),
(484.626,130.982,o),
(395.961,42.317,o),
(286.977,42.317,cs)
);
}
);
width = 574;
}
);
unicode = 242;
},
{
glyphname = oacute;
layers = (
{
layerId = "C25E9096-038E-4D62-BE1C-C6CD040495C0";
shapes = (
{
closed = 1;
nodes = (
(341.935,627.53,l),
(325.398,644.053,o),
(298.604,644.053,o),
(282.081,627.53,cs),
(232.02,577.469,l),
(248.543,560.932,o),
(275.351,560.932,o),
(291.873,577.469,cs)
);
},
{
closed = 1;
nodes = (
(154.445,479.943,o),
(47,372.498,o),
(47,239.965,cs),
(47,107.433,o),
(154.445,-0.012,o),
(286.977,-0.012,cs),
(419.51,-0.012,o),
(526.955,107.433,o),
(526.955,239.965,cs),
(526.955,372.498,o),
(419.51,479.943,o),
(286.977,479.943,cs)
);
},
{
closed = 1;
nodes = (
(177.994,42.317,o),
(89.329,130.982,o),
(89.329,239.965,cs),
(89.329,348.949,o),
(177.994,437.614,o),
(286.977,437.614,cs),
(395.961,437.614,o),
(484.626,348.949,o),
(484.626,239.965,cs),
(484.626,130.982,o),
(395.961,42.317,o),
(286.977,42.317,cs)
);
}
);
width = 574;
}
);
leftKerningGroup = aacute;
unicode = 243;
},
{
glyphname = ocircumflex;
layers = (
{
layerId = "C25E9096-038E-4D62-BE1C-C6CD040495C0";
shapes = (
{
closed = 1;
nodes = (
(286.977,597.66,l),
(307.154,577.483,ls),
(323.677,560.961,o),
(350.485,560.961,o),
(367.007,577.483,c),
(316.946,627.544,ls),
(308.678,635.812,o),
(297.828,639.947,o),
(286.977,639.932,c),
(276.127,639.932,o),
(265.277,635.812,o),
(257.008,627.544,cs),
(206.947,577.483,l),
(223.47,560.961,o),
(250.278,560.961,o),
(266.801,577.483,c)
);
},
{
closed = 1;
nodes = (
(154.445,479.943,o),
(47,372.498,o),
(47,239.965,cs),
(47,107.433,o),
(154.445,-0.012,o),
(286.977,-0.012,cs),
(419.51,-0.012,o),
(526.955,107.433,o),
(526.955,239.965,cs),
(526.955,372.498,o),
(419.51,479.943,o),
(286.977,479.943,cs)
);
},
{
closed = 1;
nodes = (
(177.994,42.317,o),
(89.329,130.982,o),
(89.329,239.965,cs),
(89.329,348.949,o),
(177.994,437.614,o),
(286.977,437.614,cs),
(395.961,437.614,o),
(484.626,348.949,o),
(484.626,239.965,cs),
(484.626,130.982,o),
(395.961,42.317,o),
(286.977,42.317,cs)
);
}
);
width = 574;
}
);
leftKerningGroup = aacute;
unicode = 244;
},
{
glyphname = otilde;
layers = (
{
layerId = "C25E9096-038E-4D62-BE1C-C6CD040495C0";
shapes = (
{
closed = 1;
nodes = (
(154.445,479.957,o),
(47,372.512,o),
(47,239.98,cs),
(47,107.447,o),
(154.445,0.002,o),
(286.977,0.002,cs),
(419.51,0.002,o),
(526.955,107.447,o),
(526.955,239.98,cs),
(526.955,372.512,o),
(419.51,479.957,o),
(286.977,479.957,cs)
);
},
{
closed = 1;
nodes = (
(177.994,42.331,o),
(89.329,130.996,o),
(89.329,239.98,cs),
(89.329,348.963,o),
(177.994,437.628,o),
(286.977,437.628,cs),
(395.961,437.628,o),
(484.626,348.963,o),
(484.626,239.98,cs),
(484.626,130.996,o),
(395.961,42.331,o),
(286.977,42.331,cs)
);
},
{
closed = 1;
nodes = (
(170.206,591.48,l),
(202.263,606.775,o),
(232.655,591.706,o),
(276.593,566.971,cs),
(306.519,550.11,o),
(340.665,530.879,o),
(377.435,530.879,cs),
(404.398,530.879,o),
(432.787,541.235,o),
(461.951,570.456,c),
(461.387,571.007,l),
(446.12,586.231,o),
(423.192,588.602,o),
(403.735,579.317,cs),
(371.678,564.022,o),
(341.286,579.092,o),
(297.362,603.84,cs),
(245.481,633.061,o),
(180.915,669.408,o),
(112.003,600.341,c),
(112.568,599.776,l),
(127.82,584.552,o),
(150.763,582.182,o),
(170.206,591.466,c)
);
}
);
width = 574;
}
);
leftKerningGroup = atilde;
unicode = 245;
},
{
glyphname = divide;
layers = (
{
layerId = "C25E9096-038E-4D62-BE1C-C6CD040495C0";
shapes = (
{
closed = 1;
nodes = (
(191.07,399.93,o),
(208.98,417.84,o),
(208.98,439.94,cs),
(208.98,462.03,o),
(191.07,479.94,o),
(168.97,479.94,cs),
(146.88,479.94,o),
(128.99,462.03,o),
(128.99,439.94,cs),
(128.99,417.84,o),
(146.89,399.93,o),
(168.97,399.93,cs)
);
},
{
closed = 1;
nodes = (
(146.89,239.95,o),
(128.99,222.04,o),
(128.99,199.94,cs),
(128.99,177.85,o),
(146.89,159.94,o),
(168.97,159.94,cs),
(191.06,159.94,o),
(208.98,177.85,o),
(208.98,199.94,cs),
(208.98,222.04,o),
(191.07,239.95,o),
(168.97,239.95,cs)
);
},
{
closed = 1;
nodes = (
(91.33,345.84,ls),
(67.95,345.84,o),
(49.,326.89,o),
(49.,303.51,c),
(246.65,303.51,ls),
(270.03,303.51,o),
(288.98,322.46,o),
(288.98,345.84,c)
);
}
);
width = 338;
}
);
unicode = 247;
},
{
glyphname = oslash;
layers = (
{
layerId = "C25E9096-038E-4D62-BE1C-C6CD040495C0";
shapes = (
{
closed = 1;
nodes = (
(543.88,464.99,l),
(527.36,481.51,o),
(500.55,481.51,o),
(484.03,464.99,cs),
(442.95,423.91,l),
(401.27,458.85,o),
(347.59,479.96,o),
(288.95,479.96,cs),
(156.42,479.96,o),
(48.97,372.51,o),
(48.97,239.98,cs),
(48.97,181.34,o),
(70.06,127.65,o),
(105.,85.97,c),
(34.,14.97,l),
(50.54,-1.56,o),
(77.33,-1.56,o),
(93.85,14.97,cs),
(134.93,56.05,l),
(176.62,21.11,o),
(230.29,0.,o),
(288.93,0.,cs),
(421.47,0.,o),
(528.91,107.45,o),
(528.91,239.98,cs),
(528.91,298.62,o),
(507.82,352.31,o),
(472.88,393.99,c)
);
},
{
closed = 1;
nodes = (
(91.3,239.98,l),
(91.3,348.96,o),
(179.96,437.63,o),
(288.95,437.63,cs),
(335.83,437.63,o),
(378.9,421.15,o),
(412.82,393.78,c),
(135.17,116.12,l),
(107.79,150.04,o),
(91.31,193.11,o),
(91.31,239.99,c)
);
},
{
closed = 1;
nodes = (
(486.6,239.98,l),
(486.6,131.,o),
(397.93,42.33,o),
(288.95,42.33,cs),
(242.06,42.33,o),
(199.,58.81,o),
(165.08,86.18,c),
(442.73,363.83,l),
(470.1,329.91,o),
(486.58,286.85,o),
(486.58,239.97,c)
);
}
);
width = 564;
}
);
unicode = 248;
},
{
glyphname = ugrave;
layers = (
{
layerId = "C25E9096-038E-4D62-BE1C-C6CD040495C0";
shapes = (
{
closed = 1;
nodes = (
(273.956,627.53,ls),
(257.433,644.053,o),
(230.625,644.053,o),
(214.102,627.53,c),
(264.163,577.469,ls),
(280.7,560.932,o),
(307.494,560.932,o),
(324.017,577.469,c)
);
},
{
closed = 1;
nodes = (
(433.748,207.034,ls),
(433.748,110.975,o),
(351.079,33.851,o),
(253.158,43.079,cs),
(167.823,51.122,o),
(104.329,126.143,o),
(104.329,211.859,cs),
(104.329,479.957,l),
(80.949,479.957,o),
(62.,461.008,o),
(62.,437.628,cs),
(62.,213.044,ls),
(62.,101.691,o),
(147.392,5.745,o),
(258.604,0.256,cs),
(330.027,-3.271,o),
(393.944,29.788,o),
(433.748,82.121,c),
(433.748,0.002,l),
(457.127,0.002,o),
(476.077,18.952,o),
(476.077,42.331,cs),
(476.077,437.628,ls),
(476.077,461.008,o),
(457.127,479.957,o),
(433.748,479.957,c)
);
}
);
width = 549;
}
);
unicode = 249;
},
{
glyphname = uacute;
layers = (
{
layerId = "C25E9096-038E-4D62-BE1C-C6CD040495C0";
shapes = (
{
closed = 1;
nodes = (
(323.579,627.939,l),
(307.043,644.462,o),
(280.248,644.462,o),
(263.726,627.939,cs),
(213.665,577.878,l),
(230.187,561.356,o),
(256.996,561.356,o),
(273.518,577.878,cs)
);
},
{
closed = 1;
nodes = (
(433.748,207.048,ls),
(433.748,110.989,o),
(351.079,33.865,o),
(253.158,43.093,cs),
(167.823,51.136,o),
(104.329,126.171,o),
(104.329,211.873,cs),
(104.329,479.957,l),
(80.949,479.957,o),
(62.,461.008,o),
(62.,437.628,cs),
(62.,213.044,ls),
(62.,101.705,o),
(147.392,5.745,o),
(258.604,0.256,cs),
(330.027,-3.271,o),
(393.958,29.788,o),
(433.748,82.121,c),
(433.748,0.002,l),
(457.127,0.002,o),
(476.077,18.952,o),
(476.077,42.331,cs),
(476.077,437.628,ls),
(476.077,461.008,o),
(457.127,479.957,o),
(433.748,479.957,c)
);
}
);
width = 549;
}
);
leftKerningGroup = uacute;
unicode = 250;
},
{
glyphname = ucircumflex;
layers = (
{
layerId = "C25E9096-038E-4D62-BE1C-C6CD040495C0";
shapes = (
{
closed = 1;
nodes = (
(248.84,577.716,l),
(269.017,597.892,l),
(289.194,577.716,ls),
(305.716,561.193,o),
(332.525,561.193,o),
(349.047,577.716,c),
(298.986,627.777,ls),
(290.704,636.059,o),
(279.853,640.193,o),
(269.017,640.179,c),
(258.167,640.179,o),
(247.331,636.059,o),
(239.048,627.791,cs),
(188.987,577.73,l),
(205.51,561.207,o),
(232.304,561.207,o),
(248.84,577.73,c)
);
},
{
closed = 1;
nodes = (
(433.734,480.175,l),
(433.734,207.266,ls),
(433.734,111.207,o),
(351.065,34.084,o),
(253.144,43.312,cs),
(167.808,51.354,o),
(104.329,126.389,o),
(104.329,212.092,cs),
(104.329,480.175,l),
(80.949,480.175,o),
(62.,461.226,o),
(62.,437.846,cs),
(62.,213.263,ls),
(62.,101.909,o),
(147.392,5.963,o),
(258.604,0.475,cs),
(330.027,-3.053,o),
(393.958,30.006,o),
(433.748,82.339,c),
(433.748,0.221,l),
(457.127,0.221,o),
(476.077,19.17,o),
(476.077,42.55,cs),
(476.077,437.846,ls),
(476.077,461.226,o),
(457.127,480.175,o),
(433.748,480.175,c)
);
}
);
width = 549;
}
);
leftKerningGroup = uacute;
unicode = 251;
},
{
glyphname = udieresis;
layers = (
{
layerId = "C25E9096-038E-4D62-BE1C-C6CD040495C0";
shapes = (
{
closed = 1;
nodes = (
(433.734,480.175,l),
(433.734,207.266,ls),
(433.734,111.207,o),
(351.065,34.084,o),
(253.144,43.312,cs),
(167.808,51.354,o),
(104.329,126.389,o),
(104.329,212.092,cs),
(104.329,480.175,l),
(80.949,480.175,o),
(62.,461.226,o),
(62.,437.846,cs),
(62.,213.263,ls),
(62.,101.909,o),
(147.392,5.963,o),
(258.604,0.475,cs),
(330.027,-3.053,o),
(393.958,30.006,o),
(433.748,82.339,c),
(433.748,0.221,l),
(457.127,0.221,o),
(476.077,19.17,o),
(476.077,42.55,cs),
(476.077,437.846,ls),
(476.077,461.226,o),
(457.127,480.175,o),
(433.748,480.175,c)
);
},
{
closed = 1;
nodes = (
(231.119,560.234,o),
(249.024,578.139,o),
(249.024,600.235,cs),
(249.024,622.33,o),
(231.119,640.236,o),
(209.023,640.236,cs),
(186.927,640.236,o),
(169.036,622.33,o),
(169.036,600.235,cs),
(169.036,578.139,o),
(186.941,560.234,o),
(209.023,560.234,cs)
);
},
{
closed = 1;
nodes = (
(351.103,560.22,o),
(369.012,578.129,o),
(369.012,600.221,cs),
(369.012,622.312,o),
(351.103,640.221,o),
(329.012,640.221,cs),
(306.92,640.221,o),
(289.011,622.312,o),
(289.011,600.221,cs),
(289.011,578.129,o),
(306.92,560.22,o),
(329.012,560.22,cs)
);
}
);
width = 549;
}
);
unicode = 252;
},
{
glyphname = yacute;
layers = (
{
layerId = "C25E9096-038E-4D62-BE1C-C6CD040495C0";
shapes = (
{
closed = 1;
nodes = (
(299.42,628.78,l),
(282.9,645.3,o),
(256.09,645.3,o),
(239.57,628.78,cs),
(189.51,578.72,l),
(206.05,562.19,o),
(232.84,562.19,o),
(249.36,578.72,c)
);
},
{
closed = 1;
nodes = (
(408.32,455.48,l),
(244.45,72.77,l),
(80.58,455.48,ls),
(71.38,476.97,o),
(46.49,486.93,o),
(25,477.73,c),
(222.13,17.35,l),
(164.89,-117.27,ls),
(149.2,-154.97,o),
(117.39,-182.36,o),
(79.37,-192.86,cs),
(58.49,-198.63,o),
(44.46,-218.24,o),
(44.46,-239.9,c),
(114.45,-239.9,o),
(177.05,-198.16,o),
(203.9,-133.7,cs),
(463.89,477.72,l),
(463.89,477.76,l),
(442.4,486.93,o),
(417.52,476.96,o),
(408.32,455.45,c)
);
}
);
width = 489;
}
);
unicode = 253;
},
{
glyphname = thorn;
layers = (
{
layerId = "C25E9096-038E-4D62-BE1C-C6CD040495C0";
shapes = (
{
closed = 1;
nodes = (
(212.264,480.19,l),
(171.784,480.19,o),
(136.058,453.381,o),
(114.329,412.449,c),
(114.329,597.85,ls),
(114.329,621.23,o),
(95.38,640.179,o),
(72,640.179,c),
(72,42.578,ls),
(72,19.198,o),
(90.949,0.249,o),
(114.329,0.249,c),
(114.329,227.979,l),
(136.058,187.033,o),
(171.784,160.238,o),
(212.264,160.238,cs),
(278.537,160.238,o),
(332.253,231.859,o),
(332.253,320.228,cs),
(332.253,408.597,o),
(278.537,480.218,o),
(212.264,480.218,c)
);
},
{
closed = 1;
nodes = (
(170.161,202.553,o),
(134.605,256.438,o),
(134.605,320.214,cs),
(134.605,383.99,o),
(170.175,437.875,o),
(212.264,437.875,cs),
(254.353,437.875,o),
(289.924,383.99,o),
(289.924,320.214,cs),
(289.924,256.438,o),
(254.353,202.553,o),
(212.264,202.553,cs)
);
}
);
width = 376;
}
);
leftKerningGroup = B;
unicode = 254;
},
{
glyphname = ydieresis;
layers = (
{
layerId = "C25E9096-038E-4D62-BE1C-C6CD040495C0";
shapes = (
{
closed = 1;
nodes = (
(206.56,561.22,o),
(224.47,579.13,o),
(224.47,601.22,cs),
(224.47,623.31,o),
(206.56,641.22,o),
(184.46,641.22,cs),
(162.37,641.22,o),
(144.46,623.31,o),
(144.46,601.22,cs),
(144.46,579.13,o),
(162.37,561.22,o),
(184.46,561.22,cs)
);
},
{
closed = 1;
nodes = (
(326.55,561.22,o),
(344.45,579.13,o),
(344.45,601.22,cs),
(344.45,623.31,o),
(326.55,641.22,o),
(304.45,641.22,cs),
(282.36,641.22,o),
(264.45,623.31,o),
(264.45,601.22,cs),
(264.45,579.13,o),
(282.36,561.22,o),
(304.45,561.22,cs)
);
},
{
closed = 1;
nodes = (
(408.3,455.48,l),
(244.43,72.77,l),
(80.56,455.48,ls),
(71.36,476.97,o),
(46.47,486.93,o),
(25.,477.73,c),
(222.12,17.35,l),
(164.88,-117.27,ls),
(149.18,-154.97,o),
(117.39,-182.36,o),
(79.36,-192.86,cs),
(58.48,-198.63,o),
(44.47,-218.24,o),
(44.47,-239.9,c),
(114.45,-239.9,o),
(177.06,-198.16,o),
(203.91,-133.7,cs),
(463.89,477.72,l),
(463.89,477.76,l),
(442.4,486.93,o),
(417.53,476.96,o),
(408.31,455.45,c)
);
}
);
width = 489;
}
);
unicode = 255;
},
{
glyphname = dotlessi;
layers = (
{
layerId = "C25E9096-038E-4D62-BE1C-C6CD040495C0";
shapes = (
{
closed = 1;
nodes = (
(60,42.578,ls),
(60,19.198,o),
(78.949,0.249,o),
(102.329,0.249,c),
(102.329,357.873,ls),
(102.329,381.252,o),
(83.38,400.202,o),
(60,400.202,c)
);
}
);
width = 163;
}
);
unicode = 305;
},
{
glyphname = Lslash;
layers = (
{
layerId = "C25E9096-038E-4D62-BE1C-C6CD040495C0";
shapes = (
{
closed = 1;
nodes = (
(398.613,42.206,l),
(142.128,42.206,l),
(142.128,296.209,l),
(313.603,462.802,l),
(297.306,479.564,o),
(270.512,479.959,o),
(253.749,463.662,cs),
(142.128,355.215,l),
(142.128,639.808,l),
(118.748,639.808,o),
(99.799,620.858,o),
(99.799,597.479,cs),
(99.799,314.1,l),
(39.,255.023,l),
(55.297,238.26,o),
(82.091,237.879,o),
(98.867,254.162,cs),
(99.813,255.079,l),
(99.813,21.028,ls),
(99.813,9.345,o),
(109.294,-0.137,o),
(120.977,-0.137,cs),
(440.956,-0.137,l),
(440.956,23.243,o),
(422.007,42.192,o),
(398.627,42.192,c)
);
}
);
width = 455;
}
);
unicode = 321;
},
{
glyphname = lslash;
layers = (
{
layerId = "C25E9096-038E-4D62-BE1C-C6CD040495C0";
shapes = (
{
closed = 1;
nodes = (
(219.916,305.103,l),
(203.394,321.625,o),
(176.585,321.625,o),
(160.063,305.103,cs),
(146.123,291.162,l),
(146.123,437.733,ls),
(146.123,461.113,o),
(127.173,480.063,o),
(103.794,480.063,c),
(103.794,248.833,l),
(30,175.025,l),
(46.537,158.503,o),
(73.331,158.503,o),
(89.853,175.025,cs),
(103.794,188.966,l),
(103.794,42.38,ls),
(103.794,19.001,o),
(122.743,0.051,o),
(146.123,0.051,c),
(146.123,231.295,l),
(219.902,305.088,l)
);
}
);
width = 250;
}
);
unicode = 322;
},
{
glyphname = OE;
layers = (
{
layerId = "C25E9096-038E-4D62-BE1C-C6CD040495C0";
shapes = (
{
closed = 1;
nodes = (
(762.16,42.56,l),
(455.64,42.56,l),
(455.64,298.75,l),
(690.93,298.75,ls),
(714.31,298.75,o),
(733.26,317.7,o),
(733.26,341.08,c),
(455.64,341.08,l),
(455.64,597.27,l),
(762.16,597.27,ls),
(785.54,597.27,o),
(804.49,616.22,o),
(804.49,639.6,c),
(434.48,639.6,ls),
(422.78,639.6,o),
(413.31,630.12,o),
(413.31,618.43,cs),
(413.31,515.32,l),
(376.74,591.1,o),
(319.44,639.97,o),
(254.97,639.97,cs),
(144.52,639.97,o),
(55,496.71,o),
(55,320,cs),
(55,143.29,o),
(144.52,0.04,o),
(254.97,0.04,cs),
(319.44,0.04,o),
(376.74,48.9,o),
(413.31,124.68,c),
(413.31,21.41,ls),
(413.31,9.73,o),
(422.78,0.25,o),
(434.48,0.25,cs),
(804.49,0.25,l),
(804.49,23.63,o),
(785.54,42.58,o),
(762.16,42.58,c)
);
},
{
closed = 1;
nodes = (
(169.51,42.35,o),
(97.31,169.49,o),
(97.31,319.99,cs),
(97.31,470.48,o),
(169.51,597.62,o),
(254.96,597.62,cs),
(340.41,597.62,o),
(412.61,470.48,o),
(412.61,319.99,cs),
(412.61,169.49,o),
(340.41,42.35,o),
(254.96,42.35,cs)
);
}
);
width = 834;
}
);
leftKerningGroup = Q;
rightKerningGroup = E;
unicode = 338;
},
{
glyphname = oe;
layers = (
{
layerId = "C25E9096-038E-4D62-BE1C-C6CD040495C0";
shapes = (
{
closed = 1;
nodes = (
(889.122,127.356,l),
(853.41,76.025,o),
(794.065,42.331,o),
(726.931,42.331,cs),
(617.948,42.331,o),
(529.283,130.982,o),
(529.283,239.965,c),
(933.751,239.965,l),
(966.909,239.98,l),
(966.909,381.514,o),
(844.366,494.434,o),
(699.587,478.433,cs),
(613.574,468.923,o),
(540.627,412.4,o),
(507.004,335.643,c),
(470.036,420.541,o),
(385.491,479.943,o),
(286.977,479.943,cs),
(154.445,479.943,o),
(47.,372.498,o),
(47.,239.965,cs),
(47.,107.433,o),
(154.445,-0.012,o),
(286.977,-0.012,cs),
(385.463,-0.012,o),
(469.994,59.376,o),
(506.975,144.231,c),
(543.971,59.376,o),
(628.46,-0.012,o),
(726.931,-0.012,cs),
(831.427,-0.012,o),
(920.079,66.896,o),
(953.011,160.119,c),
(949.525,160.119,ls),
(925.13,160.119,o),
(903.034,147.35,o),
(889.108,127.328,c)
);
},
{
closed = 1;
nodes = (
(821.381,437.628,o),
(900.452,371.002,o),
(919.895,282.295,c),
(533.953,282.295,l),
(553.396,370.988,o),
(632.481,437.628,o),
(726.931,437.628,c)
);
},
{
closed = 1;
nodes = (
(177.994,42.331,o),
(89.329,130.996,o),
(89.329,239.98,cs),
(89.329,348.963,o),
(177.994,437.628,o),
(286.977,437.628,cs),
(395.961,437.628,o),
(484.626,348.963,o),
(484.626,239.98,cs),
(484.626,130.996,o),
(395.961,42.331,o),
(286.977,42.331,cs)
);
}
);
width = 1012;
}
);
leftKerningGroup = a2;
rightKerningGroup = e;
unicode = 339;
},
{
glyphname = Scaron;
layers = (
{
layerId = "C25E9096-038E-4D62-BE1C-C6CD040495C0";
shapes = (
{
closed = 1;
nodes = (
(332.86,687.52,o),
(343.7,691.64,o),
(351.98,699.91,cs),
(402.04,749.97,l),
(385.52,766.51,o),
(358.71,766.51,o),
(342.19,749.97,cs),
(322.01,729.8,l),
(301.84,749.97,ls),
(285.31,766.51,o),
(258.51,766.51,o),
(241.98,749.97,c),
(292.05,699.91,ls),
(300.31,691.64,o),
(311.16,687.51,o),
(322.01,687.52,c)
);
},
{
closed = 1;
nodes = (
(324.46,343.02,l),
(189.37,362.94,o),
(100.38,382.67,o),
(94.33,470.46,c),
(94.27,505.42,o),
(114.36,534.79,o),
(154.05,557.73,cs),
(243.78,609.6,o),
(405.35,610.67,o),
(493.02,559.97,cs),
(518.12,545.45,o),
(534.97,528.06,o),
(543.39,508.01,cs),
(551.31,489.14,o),
(568.59,475.93,o),
(589.05,475.89,c),
(592.02,475.89,l),
(592.1,525.39,o),
(565.21,567.14,o),
(514.22,596.63,cs),
(413.7,654.75,o),
(235.51,653.7,o),
(132.87,594.38,cs),
(79.88,563.75,o),
(51.91,520.87,o),
(52.04,468.99,c),
(60.9,339.08,o),
(197.64,318.94,o),
(318.28,301.14,cs),
(454.26,281.09,o),
(543.85,261.17,o),
(549.69,171.87,c),
(549.74,135.85,o),
(529.12,105.65,o),
(488.41,82.12,cs),
(398.88,30.36,o),
(238.27,28.94,o),
(151.44,79.13,cs),
(126.14,93.75,o),
(109.17,111.35,o),
(100.68,131.71,cs),
(92.68,150.89,o),
(75.14,164.32,o),
(54.35,164.35,c),
(52.,164.35,l),
(51.93,114.25,o),
(79.,72.1,o),
(130.26,42.47,cs),
(179.17,14.21,o),
(246.74,0.16,o),
(314.99,0.16,cs),
(385.85,0.16,o),
(457.44,15.31,o),
(509.6,45.46,cs),
(563.6,76.67,o),
(592.1,120.41,o),
(591.99,173.27,c),
(583.44,304.83,o),
(445.85,325.1,o),
(324.46,343.01,c)
);
}
);
width = 645;
}
);
leftKerningGroup = S2;
rightKerningGroup = S;
unicode = 352;
},
{
glyphname = scaron;
layers = (
{
layerId = "C25E9096-038E-4D62-BE1C-C6CD040495C0";
shapes = (
{
closed = 1;
nodes = (
(276.95,565.37,o),
(287.79,569.49,o),
(296.07,577.76,cs),
(346.13,627.82,l),
(329.61,644.34,o),
(302.8,644.34,o),
(286.28,627.82,cs),
(266.1,607.64,l),
(245.92,627.82,ls),
(229.39,644.34,o),
(202.59,644.34,o),
(186.07,627.82,c),
(236.13,577.76,ls),
(244.4,569.49,o),
(255.25,565.36,o),
(266.1,565.37,c)
);
},
{
closed = 1;
nodes = (
(268.51,262.66,l),
(162.9,277.31,o),
(98.29,290.61,o),
(93.35,351.23,c),
(93.61,373.18,o),
(107.18,392.09,o),
(133.74,407.44,cs),
(201.87,446.82,o),
(334.05,447.71,o),
(400.63,409.2,cs),
(414.74,401.05,o),
(424.99,391.74,o),
(431.3,381.38,cs),
(440.99,365.46,o),
(457.,354.49,o),
(475.63,354.46,c),
(481.17,354.46,l),
(481.24,391.75,o),
(460.71,423.36,o),
(421.8,445.86,cs),
(341.7,492.18,o),
(194.28,491.35,o),
(112.54,444.1,cs),
(72.22,420.79,o),
(50.93,388.39,o),
(51.,350.42,c),
(51.05,348.94,l),
(58.31,249.09,o),
(166.87,234.03,o),
(262.67,220.74,cs),
(369.03,206,o),
(434.07,192.55,o),
(438.83,130.88,c),
(438.58,108.16,o),
(424.61,88.63,o),
(397.29,72.84,cs),
(328.04,32.81,o),
(199.08,31.67,o),
(131.9,70.49,cs),
(117.67,78.71,o),
(107.32,88.15,o),
(100.96,98.68,cs),
(91.15,114.89,o),
(74.88,126.05,o),
(55.95,126.08,c),
(51.,126.08,l),
(50.94,88.35,o),
(71.6,56.45,o),
(110.72,33.84,cs),
(149.72,11.31,o),
(204.88,0.09,o),
(260.61,0.09,cs),
(318.46,0.09,o),
(376.92,12.17,o),
(418.47,36.2,cs),
(459.54,59.95,o),
(481.22,92.95,o),
(481.14,131.65,cs),
(481.1,133.08,l),
(474.12,234.16,o),
(364.87,249.31,o),
(268.47,262.69,c)
);
}
);
width = 533;
}
);
unicode = 353;
},
{
glyphname = Ydieresis;
layers = (
{
layerId = "C25E9096-038E-4D62-BE1C-C6CD040495C0";
shapes = (
{
closed = 1;
nodes = (
(265.207,360.457,l),
(74.134,622.587,ls),
(60.363,641.479,o),
(33.893,645.628,o),
(15,631.842,c),
(244.042,317.634,l),
(244.042,0.039,l),
(267.422,0.039,o),
(286.371,18.989,o),
(286.371,42.368,cs),
(286.371,317.634,l),
(515.414,631.842,l),
(496.521,645.614,o),
(470.051,641.465,o),
(456.28,622.587,c)
);
},
{
closed = 1;
nodes = (
(229.382,691.795,o),
(247.288,709.7,o),
(247.288,731.795,cs),
(247.288,753.891,o),
(229.382,771.796,o),
(207.287,771.796,cs),
(185.191,771.796,o),
(167.286,753.891,o),
(167.286,731.795,cs),
(167.286,709.7,o),
(185.191,691.795,o),
(207.287,691.795,cs)
);
},
{
closed = 1;
nodes = (
(349.371,691.795,o),
(367.276,709.7,o),
(367.276,731.795,cs),
(367.276,753.891,o),
(349.371,771.796,o),
(327.289,771.796,cs),
(305.208,771.796,o),
(287.289,753.891,o),
(287.289,731.795,cs),
(287.289,709.7,o),
(305.194,691.795,o),
(327.289,691.795,cs)
);
}
);
width = 531;
}
);
leftKerningGroup = Y2;
rightKerningGroup = Y;
unicode = 376;
},
{
glyphname = Zcaron;
layers = (
{
layerId = "C25E9096-038E-4D62-BE1C-C6CD040495C0";
shapes = (
{
closed = 1;
nodes = (
(298.872,685.52,o),
(309.702,689.64,o),
(317.992,697.91,cs),
(368.052,747.97,l),
(351.512,764.51,o),
(324.722,764.51,o),
(308.192,747.97,cs),
(288.022,727.8,l),
(267.842,747.97,ls),
(251.322,764.51,o),
(224.512,764.51,o),
(207.992,747.97,c),
(258.052,697.91,ls),
(266.322,689.64,o),
(277.172,685.51,o),
(288.022,685.52,c)
);
},
{
closed = 1;
nodes = (
(536.532,635.38,o),
(529.122,640.03,o),
(521.002,640.03,cs),
(46.162,640.03,l),
(46.162,616.65,o),
(65.112,597.7,o),
(88.492,597.7,cs),
(477.162,597.7,l),
(29.582,34.21,ls),
(24.532,27.83,o),
(23.572,19.14,o),
(27.122,11.81,cs),
(30.662,4.51,o),
(38.052,-0.12,o),
(46.162,-0.12,c),
(46.222,-0.12,l),
(526.172,1.22,l),
(526.102,24.6,o),
(507.102,43.49,o),
(483.722,43.43,cs),
(90.102,42.33,l),
(537.582,605.7,ls),
(542.632,612.07,o),
(543.592,620.76,o),
(540.062,628.07,cs)
);
}
);
width = 569;
}
);
leftKerningGroup = Z2;
rightKerningGroup = Z;
unicode = 381;
},
{
glyphname = zcaron;
layers = (
{
layerId = "C25E9096-038E-4D62-BE1C-C6CD040495C0";
shapes = (
{
closed = 1;
nodes = (
(295.43,566.37,o),
(306.27,570.49,o),
(314.55,578.76,cs),
(364.61,628.82,l),
(348.09,645.34,o),
(321.28,645.34,o),
(304.76,628.82,cs),
(284.58,608.64,l),
(264.4,628.82,ls),
(247.87,645.34,o),
(221.07,645.34,o),
(204.55,628.82,c),
(254.61,578.76,ls),
(262.88,570.49,o),
(273.73,566.36,o),
(284.58,566.37,c)
);
},
{
closed = 1;
nodes = (
(532.53,477.1,o),
(524.75,482.36,o),
(516.09,482.36,cs),
(83.45,482.36,ls),
(60.07,482.36,o),
(41.12,463.41,o),
(41.12,440.03,c),
(463.12,440.03,l),
(38.58,36.28,ls),
(32.3,30.31,o),
(30.29,21.12,o),
(33.53,13.07,cs),
(36.74,5.04,o),
(44.52,-0.22,o),
(53.17,-0.22,c),
(53.21,-0.22,l),
(478.78,0.68,ls),
(502.16,0.73,o),
(521.07,19.72,o),
(521.03,43.1,c),
(106.25,42.22,l),
(530.68,445.86,ls),
(536.96,451.83,o),
(538.96,461.01,o),
(535.75,469.06,cs)
);
}
);
width = 569;
}
);
unicode = 382;
},
{
glyphname = circumflex;
layers = (
{
layerId = "C25E9096-038E-4D62-BE1C-C6CD040495C0";
shapes = (
{
closed = 1;
nodes = (
(147,542.8,ls),
(138.73,551.07,o),
(127.88,555.2,o),
(117.03,555.19,c),
(106.18,555.19,o),
(95.34,551.07,o),
(87.06,542.8,cs),
(37.,492.74,l),
(53.53,476.22,o),
(80.33,476.22,o),
(96.85,492.74,cs),
(117.03,512.92,l),
(137.2,492.74,ls),
(153.73,476.22,o),
(180.53,476.22,o),
(197.06,492.74,c)
);
}
);
width = 235;
}
);
unicode = 710;
},
{
glyphname = caron;
layers = (
{
layerId = "C25E9096-038E-4D62-BE1C-C6CD040495C0";
shapes = (
{
closed = 1;
nodes = (
(91.03,522.62,l),
(70.85,542.8,ls),
(54.33,559.32,o),
(27.52,559.32,o),
(11.,542.8,c),
(61.06,492.74,ls),
(69.33,484.47,o),
(80.18,480.34,o),
(91.03,480.35,c),
(101.88,480.35,o),
(112.72,484.47,o),
(121.,492.74,cs),
(171.06,542.8,l),
(154.54,559.32,o),
(127.73,559.32,o),
(111.21,542.8,c)
);
}
);
width = 183;
}
);
unicode = 711;
},
{
glyphname = ilde;
layers = (
{
layerId = "C25E9096-038E-4D62-BE1C-C6CD040495C0";
shapes = (
{
closed = 1;
nodes = (
(379.38,519.94,l),
(364.13,535.17,o),
(341.19,537.54,o),
(321.73,528.25,cs),
(289.67,512.96,o),
(259.28,528.03,o),
(215.36,552.78,cs),
(163.47,582.,o),
(98.91,618.34,o),
(30,549.28,c),
(30.56,548.71,l),
(45.81,533.49,o),
(68.76,531.12,o),
(88.2,540.4,cs),
(120.26,555.7,o),
(150.65,540.63,o),
(194.57,515.89,cs),
(224.5,499.03,o),
(258.64,479.8,o),
(295.41,479.8,cs),
(322.38,479.8,o),
(350.77,490.16,o),
(379.93,519.38,c),
(379.37,519.93,l)
);
}
);
width = 415;
}
);
unicode = 732;
},
{
glyphname = endash;
layers = (
{
layerId = "C25E9096-038E-4D62-BE1C-C6CD040495C0";
shapes = (
{
closed = 1;
nodes = (
(39,362.02,l),
(39,338.64,o),
(57.95,319.69,o),
(81.33,319.69,cs),
(358.97,319.69,l),
(358.97,343.07,o),
(340.02,362.02,o),
(316.64,362.02,cs)
);
}
);
width = 399;
}
);
unicode = 8211;
},
{
glyphname = emdash;
layers = (
{
layerId = "C25E9096-038E-4D62-BE1C-C6CD040495C0";
shapes = (
{
closed = 1;
nodes = (
(39,362.019,l),
(39,338.64,o),
(57.949,319.69,o),
(81.329,319.69,cs),
(758.918,319.69,l),
(758.918,343.07,o),
(739.969,362.019,o),
(716.589,362.019,cs)
);
}
);
width = 799;
}
);
unicode = 8212;
},
{
glyphname = quoteleft;
layers = (
{
layerId = "C25E9096-038E-4D62-BE1C-C6CD040495C0";
shapes = (
{
closed = 1;
nodes = (
(80,480,l),
(103.38,480,o),
(122.329,498.949,o),
(122.329,522.329,cs),
(122.329,639.99,l),
(98.949,639.99,o),
(80,621.04,o),
(80,597.661,cs)
);
}
);
width = 202;
}
);
leftKerningGroup = asterisk;
rightKerningGroup = quotedbl;
unicode = 8216;
},
{
glyphname = quoteright;
layers = (
{
layerId = "C25E9096-038E-4D62-BE1C-C6CD040495C0";
shapes = (
{
closed = 1;
nodes = (
(75.98,652.77,l),
(40.72,532.54,ls),
(34.14,510.1,o),
(47,486.58,o),
(69.43,479.99,c),
(104.69,600.21,ls),
(111.28,622.64,o),
(98.43,646.16,o),
(75.99,652.75,c)
);
}
);
width = 120;
}
);
leftKerningGroup = asterisk;
rightKerningGroup = quotedbl;
unicode = 8217;
},
{
glyphname = quotesinglbase;
layers = (
{
layerId = "C25E9096-038E-4D62-BE1C-C6CD040495C0";
shapes = (
{
closed = 1;
nodes = (
(6,-65.66,l),
(26.91,-76.11,o),
(52.34,-67.63,o),
(62.79,-46.72,cs),
(123.86,75.4,l),
(102.95,85.85,o),
(77.52,77.37,o),
(67.07,56.46,cs)
);
}
);
width = 167;
}
);
leftKerningGroup = comma2;
rightKerningGroup = comma;
unicode = 8218;
},
{
glyphname = quoteleftreversed;
layers = (
{
layerId = "C25E9096-038E-4D62-BE1C-C6CD040495C0";
shapes = (
{
closed = 1;
nodes = (
(40,479.7,l),
(63.38,479.7,o),
(82.33,498.65,o),
(82.33,522.03,cs),
(82.33,639.69,l),
(58.95,639.69,o),
(40,620.74,o),
(40,597.36,cs)
);
}
);
width = 122;
}
);
rightKerningGroup = quotedbl;
unicode = 8219;
},
{
glyphname = quotedblleft;
layers = (
{
layerId = "C25E9096-038E-4D62-BE1C-C6CD040495C0";
shapes = (
{
closed = 1;
nodes = (
(42.43,652.77,l),
(19.99,646.18,o),
(7.14,622.66,o),
(13.73,600.22,cs),
(48.99,480.01,l),
(71.42,486.6,o),
(84.27,510.12,o),
(77.7,532.55,cs)
);
},
{
closed = 1;
nodes = (
(122.43,652.77,l),
(99.99,646.18,o),
(87.14,622.66,o),
(93.73,600.22,cs),
(128.99,480.01,l),
(151.42,486.6,o),
(164.28,510.12,o),
(157.69,532.54,c)
);
}
);
width = 198;
}
);
leftKerningGroup = asterisk;
rightKerningGroup = quotedbl;
unicode = 8220;
},
{
glyphname = quotedblright;
layers = (
{
layerId = "C25E9096-038E-4D62-BE1C-C6CD040495C0";
shapes = (
{
closed = 1;
nodes = (
(155.99,652.77,l),
(120.73,532.54,ls),
(114.15,510.1,o),
(126.99,486.58,o),
(149.43,479.99,c),
(184.69,600.21,ls),
(191.27,622.64,o),
(178.42,646.16,o),
(155.99,652.75,c)
);
},
{
closed = 1;
nodes = (
(75.98,652.77,l),
(40.72,532.54,ls),
(34.15,510.1,o),
(46.99,486.58,o),
(69.42,479.99,c),
(104.68,600.21,ls),
(111.27,622.64,o),
(98.42,646.16,o),
(75.98,652.75,c)
);
}
);
width = 200;
}
);
leftKerningGroup = asterisk;
rightKerningGroup = quotedbl;
unicode = 8221;
},
{
glyphname = quotedblbase;
layers = (
{
layerId = "C25E9096-038E-4D62-BE1C-C6CD040495C0";
shapes = (
{
closed = 1;
nodes = (
(6,-65.66,l),
(26.91,-76.11,o),
(52.34,-67.63,o),
(62.81,-46.72,cs),
(123.86,75.4,l),
(102.95,85.85,o),
(77.52,77.37,o),
(67.07,56.46,cs)
);
},
{
closed = 1;
nodes = (
(104.91,-65.66,l),
(125.82,-76.11,o),
(151.25,-67.63,o),
(161.7,-46.72,cs),
(222.77,75.4,l),
(201.86,85.85,o),
(176.43,77.37,o),
(165.98,56.46,cs)
);
}
);
width = 266;
}
);
leftKerningGroup = comma2;
rightKerningGroup = comma;
unicode = 8222;
},
{
glyphname = dagger;
layers = (
{
layerId = "C25E9096-038E-4D62-BE1C-C6CD040495C0";
shapes = (
{
closed = 1;
nodes = (
(201.153,483.265,l),
(201.153,560.22,l),
(177.773,560.22,o),
(158.824,541.27,o),
(158.824,517.891,cs),
(158.824,483.265,l),
(102.329,483.265,ls),
(78.949,483.265,o),
(60.,464.316,o),
(60.,440.936,c),
(158.824,440.936,l),
(158.824,0.249,l),
(182.204,0.249,o),
(201.153,19.198,o),
(201.153,42.578,cs),
(201.153,440.936,l),
(257.648,440.936,ls),
(281.028,440.936,o),
(299.977,459.886,o),
(299.977,483.265,c)
);
}
);
width = 360;
}
);
unicode = 8224;
},
{
glyphname = daggerdbl;
layers = (
{
layerId = "C25E9096-038E-4D62-BE1C-C6CD040495C0";
shapes = (
{
closed = 1;
nodes = (
(207.153,440.936,l),
(263.648,440.936,ls),
(287.028,440.936,o),
(305.977,459.886,o),
(305.977,483.265,c),
(207.153,483.265,l),
(207.153,560.22,l),
(183.773,560.22,o),
(164.824,541.27,o),
(164.824,517.891,cs),
(164.824,483.265,l),
(108.329,483.265,ls),
(84.949,483.265,o),
(66.,464.316,o),
(66.,440.936,c),
(164.824,440.936,l),
(164.824,120.534,l),
(108.329,120.534,ls),
(84.949,120.534,o),
(66.,101.585,o),
(66.,78.205,c),
(164.824,78.205,l),
(164.824,0.249,l),
(188.204,0.249,o),
(207.153,19.198,o),
(207.153,42.578,cs),
(207.153,78.205,l),
(263.648,78.205,ls),
(287.028,78.205,o),
(305.977,97.154,o),
(305.977,120.534,c),
(207.153,120.534,l)
);
}
);
width = 372;
}
);
unicode = 8225;
},
{
glyphname = bullet;
layers = (
{
layerId = "C25E9096-038E-4D62-BE1C-C6CD040495C0";
shapes = (
{
closed = 1;
nodes = (
(90.81,479.843,o),
(55,444.032,o),
(55,399.855,cs),
(55,355.677,o),
(90.81,319.867,o),
(134.988,319.867,cs),
(179.165,319.867,o),
(214.976,355.677,o),
(214.976,399.855,cs),
(214.976,444.032,o),
(179.165,479.843,o),
(134.988,479.843,cs)
);
}
);
width = 270;
}
);
unicode = 8226;
},
{
glyphname = ellipsis;
layers = (
{
layerId = "C25E9096-038E-4D62-BE1C-C6CD040495C0";
shapes = (
{
closed = 1;
nodes = (
(108.093,0.204,o),
(126.002,18.113,o),
(126.002,40.205,cs),
(126.002,62.297,o),
(108.093,80.206,o),
(86.001,80.206,cs),
(63.909,80.206,o),
(46,62.297,o),
(46,40.205,cs),
(46,18.113,o),
(63.909,0.204,o),
(86.001,0.204,cs)
);
},
{
closed = 1;
nodes = (
(268.082,0.204,o),
(285.991,18.113,o),
(285.991,40.205,cs),
(285.991,62.297,o),
(268.082,80.206,o),
(245.991,80.206,cs),
(223.899,80.206,o),
(205.99,62.297,o),
(205.99,40.205,cs),
(205.99,18.113,o),
(223.899,0.204,o),
(245.991,0.204,cs)
);
},
{
closed = 1;
nodes = (
(383.884,80.206,o),
(365.979,62.301,o),
(365.979,40.205,cs),
(365.979,18.109,o),
(383.884,0.204,o),
(405.966,0.204,cs),
(428.048,0.204,o),
(445.967,18.109,o),
(445.967,40.205,cs),
(445.967,62.301,o),
(428.062,80.206,o),
(405.966,80.206,cs)
);
}
);
width = 492;
}
);
leftKerningGroup = period;
rightKerningGroup = comma;
unicode = 8230;
},
{
glyphname = perthousand;
layers = (
{
layerId = "C25E9096-038E-4D62-BE1C-C6CD040495C0";
shapes = (
{
closed = 1;
nodes = (
(62,14.834,l),
(78.537,-1.689,o),
(105.331,-1.689,o),
(121.853,14.834,cs),
(731.857,624.837,l),
(715.334,641.374,o),
(688.526,641.374,o),
(672.004,624.837,cs)
);
},
{
closed = 1;
nodes = (
(201.121,479.832,o),
(236.932,515.643,o),
(236.932,559.82,cs),
(236.932,603.997,o),
(201.121,639.808,o),
(156.944,639.808,cs),
(112.767,639.808,o),
(76.956,603.997,o),
(76.956,559.82,cs),
(76.956,515.643,o),
(112.767,479.832,o),
(156.944,479.832,cs)
);
},
{
closed = 1;
nodes = (
(177.713,597.479,o),
(194.603,580.589,o),
(194.603,559.82,cs),
(194.603,539.05,o),
(177.699,522.161,o),
(156.944,522.161,cs),
(136.189,522.161,o),
(119.285,539.05,o),
(119.285,559.82,cs),
(119.285,580.589,o),
(136.175,597.479,o),
(156.944,597.479,cs)
);
},
{
closed = 1;
nodes = (
(352.758,159.853,o),
(316.948,124.043,o),
(316.948,79.865,cs),
(316.948,35.688,o),
(352.758,-0.123,o),
(396.936,-0.123,cs),
(441.113,-0.123,o),
(476.923,35.688,o),
(476.923,79.865,cs),
(476.923,124.043,o),
(441.113,159.853,o),
(396.936,159.853,cs)
);
},
{
closed = 1;
nodes = (
(376.166,42.206,o),
(359.277,59.096,o),
(359.277,79.865,cs),
(359.277,100.635,o),
(376.166,117.524,o),
(396.936,117.524,cs),
(417.705,117.524,o),
(434.594,100.635,o),
(434.594,79.865,cs),
(434.594,59.096,o),
(417.705,42.206,o),
(396.936,42.206,cs)
);
},
{
closed = 1;
nodes = (
(592.721,159.853,o),
(556.911,124.043,o),
(556.911,79.865,cs),
(556.911,35.688,o),
(592.721,-0.123,o),
(636.899,-0.123,cs),
(681.076,-0.123,o),
(716.887,35.688,o),
(716.887,79.865,cs),
(716.887,124.043,o),
(681.076,159.853,o),
(636.899,159.853,cs)
);
},
{
closed = 1;
nodes = (
(616.129,42.206,o),
(599.24,59.096,o),
(599.24,79.865,cs),
(599.24,100.635,o),
(616.129,117.524,o),
(636.899,117.524,cs),
(657.668,117.524,o),
(674.558,100.635,o),
(674.558,79.865,cs),
(674.558,59.096,o),
(657.668,42.206,o),
(636.899,42.206,cs)
);
}
);
width = 795;
}
);
unicode = 8240;
},
{
glyphname = guilsinglleft;
layers = (
{
layerId = "C25E9096-038E-4D62-BE1C-C6CD040495C0";
shapes = (
{
closed = 1;
nodes = (
(253.053,542.87,l),
(236.533,559.41,o),
(209.723,559.41,o),
(193.202,542.87,cs),
(64.952,414.63,ls),
(55.682,405.36,o),
(55.682,390.33,o),
(64.952,381.08,cs),
(193.202,252.83,ls),
(209.723,236.31,o),
(236.533,236.31,o),
(253.053,252.83,c),
(108.033,397.85,l)
);
}
);
width = 311;
}
);
leftKerningGroup = guillemotleft2;
rightKerningGroup = guillemotleft;
unicode = 8249;
},
{
glyphname = guilsinglright;
layers = (
{
layerId = "C25E9096-038E-4D62-BE1C-C6CD040495C0";
shapes = (
{
closed = 1;
nodes = (
(116.853,542.872,ls),
(100.331,559.409,o),
(73.522,559.409,o),
(57,542.872,c),
(202.019,397.853,l),
(57,252.834,l),
(73.537,236.311,o),
(100.331,236.311,o),
(116.853,252.834,cs),
(245.096,381.076,ls),
(254.366,390.347,o),
(254.366,405.359,o),
(245.096,414.629,cs)
);
}
);
width = 311;
}
);
leftKerningGroup = guillemotright2;
rightKerningGroup = guillemotright;
unicode = 8250;
},
{
glyphname = fraction;
layers = (
{
layerId = "C25E9096-038E-4D62-BE1C-C6CD040495C0";
shapes = (
{
closed = 1;
nodes = (
(356.03,606.405,l),
(55,4.345,l),
(75.911,-6.11,o),
(101.336,2.37,o),
(111.806,23.28,cs),
(412.836,625.34,l),
(391.925,635.795,o),
(366.499,627.315,o),
(356.044,606.405,c)
);
}
);
width = 468;
}
);
unicode = 8260;
},
{
glyphname = foursuperior;
layers = (
{
layerId = "C25E9096-038E-4D62-BE1C-C6CD040495C0";
shapes = (
{
closed = 1;
nodes = (
(229.101,574.683,l),
(229.101,700.527,ls),
(229.101,709.684,o),
(223.203,717.826,o),
(214.469,720.662,cs),
(205.778,723.484,o),
(196.197,720.38,o),
(190.807,712.972,cs),
(84.039,565.963,ls),
(79.369,559.515,o),
(78.692,550.993,o),
(82.304,543.924,cs),
(85.916,536.827,o),
(93.197,532.368,o),
(101.154,532.368,cs),
(186.758,532.368,l),
(186.758,480.007,l),
(210.138,480.007,o),
(229.087,498.956,o),
(229.087,522.336,cs),
(229.087,532.368,l),
(257.137,532.368,l),
(257.137,546.647,ls),
(257.137,562.139,o),
(244.579,574.697,o),
(229.087,574.697,c)
);
},
{
closed = 1;
nodes = (
(186.772,574.683,l),
(142.693,574.683,l),
(186.772,635.369,l)
);
}
);
width = 337;
}
);
unicode = 8308;
},
{
glyphname = eightsuperior;
layers = (
{
layerId = "C25E9096-038E-4D62-BE1C-C6CD040495C0";
shapes = (
{
closed = 1;
nodes = (
(207.636,609.294,l),
(218.43,621.428,o),
(225.203,637.217,o),
(225.203,654.699,cs),
(225.203,692.555,o),
(194.401,723.343,o),
(156.559,723.343,cs),
(118.717,723.343,o),
(87.916,692.541,o),
(87.916,654.699,cs),
(87.916,637.217,o),
(94.674,621.428,o),
(105.482,609.294,c),
(89.891,595.706,o),
(80,576.066,o),
(80,554.196,cs),
(80,513.292,o),
(114.343,480.007,o),
(156.559,480.007,cs),
(198.775,480.007,o),
(233.132,513.292,o),
(233.132,554.196,cs),
(233.132,576.08,o),
(223.256,595.706,o),
(207.65,609.294,c)
);
},
{
closed = 1;
nodes = (
(130.23,669.204,o),
(142.04,681.014,o),
(156.545,681.014,cs),
(171.05,681.014,o),
(182.86,669.204,o),
(182.86,654.699,cs),
(182.86,640.194,o),
(171.05,628.384,o),
(156.545,628.384,cs),
(142.04,628.384,o),
(130.23,640.194,o),
(130.23,654.699,cs)
);
},
{
closed = 1;
nodes = (
(137.666,522.322,o),
(122.315,536.615,o),
(122.315,554.182,cs),
(122.315,571.748,o),
(137.666,586.041,o),
(156.545,586.041,cs),
(175.424,586.041,o),
(190.789,571.748,o),
(190.789,554.182,cs),
(190.789,536.615,o),
(175.424,522.322,o),
(156.545,522.322,cs)
);
}
);
width = 313;
}
);
unicode = 8312;
},
{
glyphname = Euro;
layers = (
{
layerId = "C25E9096-038E-4D62-BE1C-C6CD040495C0";
shapes = (
{
closed = 1;
nodes = (
(522.734,64.508,l),
(492.567,49.65,o),
(459.946,41.918,o),
(426.661,41.918,cs),
(322.151,41.918,o),
(233.104,117.899,o),
(198.846,223.975,c),
(426.859,223.975,ls),
(450.238,223.975,o),
(469.188,242.924,o),
(469.188,266.304,c),
(188.25,266.304,l),
(185.273,283.645,o),
(183.622,301.508,o),
(183.622,319.822,cs),
(183.622,338.136,o),
(185.273,356.013,o),
(188.25,373.354,c),
(426.844,373.354,ls),
(450.224,373.354,o),
(469.173,392.304,o),
(469.173,415.683,c),
(198.832,415.683,l),
(233.076,521.76,o),
(322.137,597.74,o),
(426.647,597.74,cs),
(459.932,597.74,o),
(492.567,590.008,o),
(522.72,575.137,cs),
(543.207,565.034,o),
(567.899,570.551,o),
(581.303,589.049,c),
(535.235,622.432,o),
(481.759,640.069,o),
(426.647,640.069,cs),
(299.053,640.069,o),
(190.761,545.577,o),
(154.372,415.683,c),
(106.329,415.683,ls),
(82.949,415.683,o),
(64,396.734,o),
(64,373.354,c),
(145.356,373.354,l),
(142.732,355.929,o),
(141.293,338.066,o),
(141.293,319.822,cs),
(141.293,301.578,o),
(142.732,283.715,o),
(145.356,266.304,c),
(106.329,266.304,ls),
(82.949,266.304,o),
(64,247.355,o),
(64,223.975,c),
(154.372,223.975,l),
(190.761,94.081,o),
(299.053,-0.411,o),
(426.647,-0.411,cs),
(481.759,-0.411,o),
(535.235,17.226,o),
(581.289,50.61,c),
(567.885,69.107,o),
(543.193,74.61,o),
(522.706,64.522,c)
);
}
);
width = 644;
}
);
unicode = 8364;
},
{
glyphname = trademark;
layers = (
{
layerId = "C25E9096-038E-4D62-BE1C-C6CD040495C0";
shapes = (
{
closed = 1;
nodes = (
(366.47,641.75,l),
(364.14,650.69,o),
(356.28,657.1,o),
(347.05,657.56,cs),
(337.78,658.11,o),
(329.34,652.44,o),
(326.14,643.76,cs),
(286.51,536.54,l),
(246.89,643.76,ls),
(243.66,652.48,o),
(235.03,658.04,o),
(225.86,657.56,cs),
(216.58,657.04,o),
(208.73,650.54,o),
(206.49,641.52,cs),
(147.02,401.54,l),
(169.71,395.91,o),
(192.65,409.75,o),
(198.28,432.44,cs),
(231.03,564.57,l),
(266.65,468.15,ls),
(269.73,459.84,o),
(277.65,454.33,o),
(286.51,454.33,cs),
(295.37,454.33,o),
(303.28,459.84,o),
(306.36,468.15,cs),
(342.47,565.82,l),
(377.19,432.1,ls),
(383.06,409.47,o),
(406.17,395.9,o),
(428.79,401.78,c),
(366.48,641.76,l)
);
},
{
closed = 1;
nodes = (
(167.55,615.26,l),
(167.55,638.64,o),
(148.6,657.59,o),
(125.22,657.59,cs),
(-13,657.59,l),
(-13,634.21,o),
(5.95,615.26,o),
(29.33,615.26,cs),
(56.11,615.26,l),
(56.11,442.62,ls),
(56.11,419.24,o),
(75.06,400.29,o),
(98.44,400.29,c),
(98.44,615.26,l)
);
}
);
width = 482;
}
);
unicode = 8482;
},
{
glyphname = minus;
layers = (
{
layerId = "C25E9096-038E-4D62-BE1C-C6CD040495C0";
shapes = (
{
closed = 1;
nodes = (
(82.329,402.019,ls),
(58.949,402.019,o),
(40,383.07,o),
(40,359.69,c),
(317.622,359.69,ls),
(341.002,359.69,o),
(359.951,378.64,o),
(359.951,402.019,c)
);
}
);
width = 399;
}
);
unicode = 8722;
},
{
glyphname = quoteleft.alt1;
layers = (
{
layerId = "C25E9096-038E-4D62-BE1C-C6CD040495C0";
shapes = (
{
closed = 1;
nodes = (
(42.43,652.77,l),
(19.99,646.18,o),
(7.14,622.66,o),
(13.73,600.22,cs),
(48.99,480.01,l),
(71.42,486.6,o),
(84.28,510.12,o),
(77.69,532.54,c)
);
}
);
width = 118;
}
);
leftKerningGroup = asterisk;
rightKerningGroup = quotedbl;
unicode = 61440;
},
{
glyphname = A.alt1;
layers = (
{
layerId = "C25E9096-038E-4D62-BE1C-C6CD040495C0";
shapes = (
{
closed = 1;
nodes = (
(510.55,46.29,l),
(470.41,52.58,o),
(439.21,71.75,o),
(406.61,91.83,cs),
(361.09,119.84,o),
(314.03,148.76,o),
(242.78,145.59,c),
(195.44,145.59,o),
(150.39,134.18,o),
(113.17,114.29,c),
(315.13,566.96,l),
(485.73,184.55,ls),
(495.26,163.2,o),
(520.29,153.6,o),
(541.63,163.14,c),
(334.46,627.53,ls),
(331.06,635.17,o),
(323.49,640.08,o),
(315.13,640.08,cs),
(306.78,640.08,o),
(299.2,635.17,o),
(295.8,627.53,cs),
(20,9.33,l),
(36.1,2.15,ls),
(48.56,-3.41,o),
(63.16,2.18,o),
(68.72,14.64,c),
(94.3,67.42,o),
(164.54,103.25,o),
(243.74,103.26,c),
(302.9,106.,o),
(342.52,81.56,o),
(384.42,55.77,cs),
(427.6,29.2,o),
(472.14,1.77,o),
(538.26,1.77,cs),
(541.85,1.77,o),
(545.51,1.85,o),
(549.24,2.02,c),
(548.25,23.99,o),
(532.28,42.87,o),
(510.57,46.27,c)
);
}
);
width = 582;
}
);
leftKerningGroup = AE;
unicode = 61441;
},
{
glyphname = B.alt1;
layers = (
{
layerId = "C25E9096-038E-4D62-BE1C-C6CD040495C0";
shapes = (
{
closed = 1;
nodes = (
(559.955,439.954,l),
(559.955,550.404,o),
(452.51,639.93,o),
(319.977,639.93,cs),
(190.775,639.93,o),
(85.7,554.764,o),
(80.494,448.152,c),
(80.,448.152,l),
(80.,196.731,l),
(80.198,196.731,l),
(82.3,87.805,o),
(188.757,-0.,o),
(319.992,-0.,cs),
(452.524,-0.,o),
(559.969,89.54,o),
(559.969,199.976,cs),
(559.969,245.057,o),
(541.852,286.511,o),
(511.643,319.965,c),
(541.852,353.419,o),
(559.969,394.873,o),
(559.969,439.954,c)
);
},
{
closed = 1;
nodes = (
(517.626,113.047,o),
(428.961,42.329,o),
(319.977,42.329,cs),
(210.994,42.329,o),
(122.329,113.047,o),
(122.329,199.976,cs),
(122.329,439.954,ls),
(122.329,526.884,o),
(210.994,597.601,o),
(319.977,597.601,cs),
(428.961,597.601,o),
(517.626,526.884,o),
(517.626,439.954,cs),
(517.626,405.766,o),
(503.77,374.189,o),
(480.503,348.326,c),
(437.962,380.312,o),
(381.792,399.953,o),
(319.977,399.953,cs),
(258.163,399.953,o),
(201.992,380.312,o),
(159.452,348.326,cs),
(148.009,339.719,o),
(137.596,330.237,o),
(128.312,319.965,c),
(137.596,309.693,o),
(148.009,300.212,o),
(159.452,291.605,cs),
(201.992,259.618,o),
(258.163,239.977,o),
(319.977,239.977,cs),
(381.792,239.977,o),
(437.963,259.618,o),
(480.503,291.605,c),
(503.77,265.742,o),
(517.626,234.164,o),
(517.626,199.976,cs)
);
},
{
closed = 1;
nodes = (
(413.341,296.529,o),
(368.74,282.306,o),
(319.977,282.306,cs),
(271.214,282.306,o),
(226.6,296.543,o),
(192.101,319.965,c),
(226.6,343.401,o),
(271.214,357.624,o),
(319.977,357.624,cs),
(368.74,357.624,o),
(413.355,343.401,o),
(447.853,319.965,c)
);
}
);
width = 640;
}
);
unicode = 61442;
},
{
glyphname = C.alt1;
layers = (
{
layerId = "C25E9096-038E-4D62-BE1C-C6CD040495C0";
shapes = (
{
closed = 1;
nodes = (
(610.453,140.293,l),
(559.009,80.214,o),
(482.718,42.315,o),
(399.641,42.315,cs),
(263.948,42.315,o),
(146.118,143.256,o),
(125.546,277.128,cs),
(123.401,291.097,o),
(122.315,305.39,o),
(122.315,319.641,cs),
(122.315,363.,o),
(132.601,403.904,o),
(150.421,440.49,c),
(209.005,367.585,o),
(298.841,320.868,o),
(399.641,320.868,cs),
(518.374,320.868,o),
(621.868,385.674,o),
(676.995,481.761,c),
(675.033,481.761,l),
(614.46,584.451,o),
(498.225,650.386,o),
(367.767,637.743,cs),
(280.555,629.292,o),
(203.135,584.677,o),
(150.562,519.391,c),
(138.555,543.801,o),
(129.849,570.13,o),
(125.56,598.01,c),
(125.419,598.899,o),
(125.292,599.788,o),
(125.165,600.691,c),
(121.906,623.394,o),
(102.942,640.523,o),
(80,640.523,c),
(80,623.888,o),
(81.27,607.535,o),
(83.725,591.591,cs),
(89.891,551.434,o),
(103.69,513.846,o),
(123.345,480.082,c),
(101.56,442.818,o),
(86.998,400.926,o),
(82.046,356.269,cs),
(78.787,326.907,o),
(79.506,298.236,o),
(83.725,270.708,cs),
(107.274,117.407,o),
(239.75,0.,o),
(399.655,0.,cs),
(518.247,0.,o),
(621.642,64.665,o),
(676.811,160.582,c),
(653.601,160.582,ls),
(636.909,160.582,o),
(621.318,152.977,o),
(610.453,140.307,c)
);
},
{
closed = 1;
nodes = (
(492.567,596.966,o),
(574.742,550.884,o),
(625.099,480.533,c),
(625.607,480.533,l),
(574.728,409.364,o),
(491.325,363.197,o),
(399.655,363.197,cs),
(307.984,363.197,o),
(224.878,409.237,o),
(173.97,480.209,c),
(224.3,550.743,o),
(306.601,596.966,o),
(399.655,596.966,c)
);
}
);
width = 757;
}
);
unicode = 61443;
},
{
glyphname = D.alt1;
layers = (
{
layerId = "C25E9096-038E-4D62-BE1C-C6CD040495C0";
shapes = (
{
closed = 1;
nodes = (
(89.214,642.47,o),
(80,632.819,o),
(80,621.305,cs),
(80,221.973,l),
(80.79,221.973,l),
(83.739,185.57,o),
(95.549,150.818,o),
(115.613,119.989,c),
(92.261,84.122,o),
(80,42.95,o),
(80,-0.,c),
(81.228,-0.,ls),
(103.422,-0.,o),
(121.638,16.057,o),
(126.336,37.743,cs),
(129.892,54.125,o),
(135.761,69.928,o),
(143.846,84.771,c),
(185.216,42.555,o),
(241.133,18.836,o),
(301.127,18.836,cs),
(371.083,18.836,o),
(435.451,51.063,o),
(477.752,107.262,cs),
(483.466,114.853,o),
(483.466,125.139,o),
(477.752,132.716,cs),
(435.465,188.914,o),
(371.097,221.141,o),
(301.127,221.141,cs),
(241.118,221.141,o),
(185.216,197.408,o),
(143.846,155.206,c),
(129.694,181.196,o),
(122.315,210.065,o),
(122.315,239.977,cs),
(122.315,599.661,l),
(352.006,589.192,o),
(538.184,409.025,o),
(558.163,181.902,cs),
(560.166,159.129,o),
(578.608,141.365,o),
(601.465,141.365,c),
(602.27,141.365,l),
(602.284,417.816,o),
(377.249,642.71,o),
(100.727,642.47,c)
);
},
{
closed = 1;
nodes = (
(352.176,178.826,o),
(399.542,157.577,o),
(433.447,120.003,c),
(399.542,82.415,o),
(352.162,61.18,o),
(301.141,61.18,cs),
(250.12,61.18,o),
(202.74,82.429,o),
(168.835,120.003,c),
(202.74,157.577,o),
(250.106,178.826,o),
(301.141,178.826,cs)
);
}
);
width = 682;
}
);
unicode = 61444;
},
{
glyphname = E.alt1;
layers = (
{
layerId = "C25E9096-038E-4D62-BE1C-C6CD040495C0";
shapes = (
{
closed = 1;
nodes = (
(522.621,182.064,l),
(503.685,102.415,o),
(422.075,42.336,o),
(324.549,42.336,cs),
(213.04,42.336,o),
(122.329,120.871,o),
(122.329,217.395,cs),
(122.329,309.644,o),
(205.167,385.441,o),
(309.833,391.988,cs),
(318.171,392.51,o),
(324.549,399.664,o),
(324.549,408.017,cs),
(324.549,419.756,ls),
(324.549,427.855,o),
(318.51,434.642,o),
(310.467,435.643,cs),
(263.948,441.457,o),
(228.109,475.687,o),
(228.109,516.901,cs),
(228.109,551.54,o),
(253.408,581.241,o),
(289.105,593.291,cs),
(310.002,600.346,o),
(324.535,619.309,o),
(324.535,641.362,c),
(248.032,641.377,o),
(185.78,585.545,o),
(185.78,516.915,cs),
(185.78,478.015,o),
(205.774,443.234,o),
(237.027,420.391,c),
(145.285,389.039,o),
(80.,309.87,o),
(80.,217.395,cs),
(80.,97.519,o),
(189.703,0.007,o),
(324.549,0.007,cs),
(459.395,0.007,o),
(569.098,97.533,o),
(569.098,217.395,c),
(547.425,217.395,o),
(527.644,203.144,o),
(522.635,182.064,c)
);
}
);
width = 649;
}
);
unicode = 61445;
},
{
glyphname = F.alt1;
layers = (
{
layerId = "C25E9096-038E-4D62-BE1C-C6CD040495C0";
shapes = (
{
closed = 1;
nodes = (
(447.585,318.667,l),
(447.585,342.047,o),
(428.636,360.996,o),
(405.256,360.996,cs),
(245.633,360.996,l),
(245.633,468.23,ls),
(245.633,538.044,o),
(302.749,595.584,o),
(372.55,596.12,cs),
(405.411,596.374,ls),
(428.791,596.557,o),
(447.599,615.648,o),
(447.416,639.027,c),
(372.225,638.449,ls),
(279.313,637.743,o),
(203.304,561.142,o),
(203.304,468.23,cs),
(203.304,360.996,l),
(141.109,360.996,l),
(141.109,337.616,o),
(160.058,318.667,o),
(183.438,318.667,cs),
(203.304,318.667,l),
(203.304,165.633,ls),
(203.304,110.126,o),
(166.436,63.07,o),
(115.895,47.662,cs),
(94.73,41.214,o),
(80.,22.124,o),
(80.,-0.,c),
(171.332,-0.,o),
(245.633,74.302,o),
(245.633,165.619,cs),
(245.633,318.653,l),
(447.585,318.653,l)
);
}
);
width = 528;
}
);
unicode = 61446;
},
{
glyphname = G.alt1;
layers = (
{
layerId = "C25E9096-038E-4D62-BE1C-C6CD040495C0";
shapes = (
{
closed = 1;
nodes = (
(629.619,155.99,l),
(581.73,238.658,o),
(492.839,290.017,o),
(397.656,290.017,cs),
(305.533,290.017,o),
(219.323,241.917,o),
(170.447,163.877,c),
(140.098,208.379,o),
(122.333,262.094,o),
(122.333,319.916,cs),
(122.333,472.963,o),
(246.851,597.481,o),
(399.913,597.481,cs),
(450.651,597.481,o),
(500.43,583.456,o),
(543.479,557.48,cs),
(562.922,545.741,o),
(587.995,550.03,o),
(602.373,567.597,c),
(545.483,614.173,o),
(473.58,639.81,o),
(399.913,639.81,cs),
(223.514,639.81,o),
(80.004,496.301,o),
(80.004,319.902,cs),
(80.004,245.12,o),
(105.797,176.237,o),
(148.958,121.717,c),
(136.175,89.999,o),
(129.515,56.079,o),
(129.515,21.877,c),
(129.967,21.877,l),
(152.683,21.877,o),
(171.322,38.625,o),
(175.301,61.003,cs),
(176.839,69.596,o),
(178.857,78.104,o),
(181.382,86.471,c),
(238.611,32.868,o),
(315.495,0.007,o),
(399.899,0.007,cs),
(401.945,0.007,o),
(403.92,0.303,o),
(405.797,0.84,c),
(497.877,3.69,o),
(583.085,54.442,o),
(629.605,134.74,cs),
(633.386,141.259,o),
(633.386,149.471,o),
(629.605,155.99,c)
);
},
{
closed = 1;
nodes = (
(397.656,43.042,l),
(395.906,43.042,o),
(394.213,42.83,o),
(392.576,42.435,c),
(316.483,44.41,o),
(247.924,77.159,o),
(198.893,128.673,c),
(238.343,201.888,o),
(315.199,247.702,o),
(397.641,247.702,cs),
(473.636,247.702,o),
(544.876,208.788,o),
(586.443,145.379,c),
(544.862,81.97,o),
(473.622,43.056,o),
(397.641,43.056,c)
);
}
);
width = 712;
}
);
unicode = 61447;
},
{
glyphname = H.alt1;
layers = (
{
layerId = "C25E9096-038E-4D62-BE1C-C6CD040495C0";
shapes = (
{
closed = 1;
nodes = (
(559.108,319.965,l),
(582.488,319.965,o),
(601.437,338.914,o),
(601.437,362.294,cs),
(601.437,639.93,l),
(578.057,639.93,o),
(559.108,620.981,o),
(559.108,597.601,cs)
);
},
{
closed = 1;
nodes = (
(559.108,0,l),
(582.488,0,o),
(601.437,18.949,o),
(601.437,42.329,cs),
(601.437,160.681,l),
(578.057,160.681,o),
(559.108,141.732,o),
(559.108,118.352,cs)
);
},
{
closed = 1;
nodes = (
(466.45,189.803,o),
(409.362,221.959,o),
(344.627,258.419,cs),
(277.874,296.007,o),
(203.53,337.814,o),
(122.752,289.051,c),
(122.752,639.93,l),
(99.387,639.93,o),
(80.423,620.981,o),
(80.423,597.601,cs),
(80.423,255.329,l),
(80.282,255.188,o),
(80.141,255.061,o),
(80.,254.92,c),
(80.423,254.496,l),
(80.423,0,l),
(103.803,0,o),
(122.752,18.949,o),
(122.752,42.329,cs),
(122.752,236.774,l),
(192.116,295.626,o),
(253.464,261.17,o),
(323.858,221.536,cs),
(368.994,196.125,o),
(417.588,168.752,o),
(469.3,168.752,cs),
(507.396,168.752,o),
(547.186,183.609,o),
(588.499,225.021,c),
(572.625,240.852,o),
(547.947,242.898,o),
(529.167,230.665,cs)
);
}
);
width = 681;
}
);
unicode = 61448;
},
{
glyphname = I.alt1;
layers = (
{
layerId = "C25E9096-038E-4D62-BE1C-C6CD040495C0";
shapes = (
{
closed = 1;
nodes = (
(181.054,615.513,l),
(149.73,631.486,o),
(115.048,639.937,o),
(80.,639.937,c),
(80.,617.926,o),
(95.027,598.314,o),
(116.586,593.827,cs),
(131.543,590.709,o),
(146.104,585.686,o),
(159.903,578.871,c),
(159.903,0.007,l),
(183.283,0.007,o),
(202.232,18.956,o),
(202.232,42.336,cs),
(202.232,578.772,l),
(216.045,585.601,o),
(230.593,590.709,o),
(245.563,593.827,cs),
(267.108,598.314,o),
(282.135,617.94,o),
(282.135,639.937,c),
(247.087,639.937,o),
(212.405,631.486,o),
(181.068,615.513,c)
);
}
);
width = 362;
}
);
unicode = 61449;
},
{
glyphname = J.alt1;
layers = (
{
layerId = "C25E9096-038E-4D62-BE1C-C6CD040495C0";
shapes = (
{
closed = 1;
nodes = (
(473.669,618.561,l),
(473.669,630.244,o),
(464.187,639.726,o),
(452.504,639.726,cs),
(276.811,639.726,l),
(276.811,616.346,o),
(295.76,597.397,o),
(319.14,597.397,cs),
(431.34,597.397,l),
(431.34,209.55,ls),
(431.34,191.885,o),
(428.475,174.318,o),
(422.959,157.556,c),
(383.508,203.398,o),
(325.489,230.714,o),
(264.112,230.714,cs),
(189.712,230.714,o),
(120.25,190.586,o),
(82.831,125.978,cs),
(79.049,119.474,o),
(79.063,111.248,o),
(82.831,104.743,cs),
(120.264,40.135,o),
(189.726,0.007,o),
(264.112,0.007,cs),
(325.489,0.007,o),
(383.508,27.323,o),
(422.959,73.166,c),
(424.44,68.665,o),
(425.738,64.107,o),
(426.825,59.508,cs),
(432.102,37.369,o),
(450.91,21.172,o),
(473.669,21.172,c),
(473.669,53.807,o),
(465.923,86.133,o),
(451.15,115.368,c),
(465.908,144.603,o),
(473.669,176.928,o),
(473.669,209.564,c)
);
},
{
closed = 1;
nodes = (
(208.943,42.322,o),
(157.161,70.005,o),
(126.133,115.354,c),
(157.161,160.688,o),
(208.943,188.385,o),
(264.112,188.385,cs),
(319.281,188.385,o),
(371.063,160.702,o),
(402.09,115.354,c),
(371.049,70.019,o),
(319.267,42.322,o),
(264.112,42.322,cs)
);
}
);
width = 554;
}
);
unicode = 61450;
},
{
glyphname = K.alt1;
layers = (
{
layerId = "C25E9096-038E-4D62-BE1C-C6CD040495C0";
shapes = (
{
closed = 1;
nodes = (
(602.284,641.217,l),
(579.468,641.217,o),
(560.561,624.695,o),
(556.131,602.317,cs),
(527.827,459.442,o),
(345.812,347.651,o),
(122.329,340.187,c),
(122.329,641.217,l),
(98.949,641.217,o),
(80,622.268,o),
(80,598.888,cs),
(80,1.287,l),
(103.38,1.287,o),
(122.329,20.236,o),
(122.329,43.616,cs),
(122.329,280.532,l),
(534.148,7.072,ls),
(553.62,-5.852,o),
(579.892,-0.547,o),
(592.816,18.924,c),
(168.284,300.807,l),
(413.144,324.074,o),
(602.27,467.809,o),
(602.27,641.217,c)
);
}
);
width = 682;
}
);
unicode = 61451;
},
{
glyphname = L.alt1;
layers = (
{
layerId = "C25E9096-038E-4D62-BE1C-C6CD040495C0";
shapes = (
{
closed = 1;
nodes = (
(477.766,132.716,l),
(435.479,188.914,o),
(371.111,221.141,o),
(301.141,221.141,cs),
(241.133,221.141,o),
(185.23,197.423,o),
(143.86,155.206,c),
(129.723,181.196,o),
(122.343,210.065,o),
(122.343,239.977,cs),
(122.343,597.573,l),
(122.329,620.953,o),
(103.38,639.902,o),
(80.,639.902,c),
(80.,239.977,ls),
(80.,197.028,o),
(92.261,155.855,o),
(115.599,119.989,c),
(92.261,84.122,o),
(80,42.95,o),
(80,-0.,c),
(81.228,-0.,ls),
(103.422,-0.,o),
(121.652,16.057,o),
(126.336,37.743,cs),
(129.892,54.125,o),
(135.761,69.928,o),
(143.846,84.771,c),
(185.216,42.555,o),
(241.133,18.836,o),
(301.127,18.836,cs),
(371.083,18.836,o),
(435.465,51.077,o),
(477.752,107.262,cs),
(483.466,114.853,o),
(483.466,125.139,o),
(477.752,132.716,c)
);
},
{
closed = 1;
nodes = (
(250.106,61.151,o),
(202.74,82.4,o),
(168.835,119.975,c),
(202.74,157.549,o),
(250.106,178.798,o),
(301.141,178.798,cs),
(352.176,178.798,o),
(399.556,157.549,o),
(433.447,119.975,c),
(399.542,82.386,o),
(352.176,61.151,o),
(301.141,61.151,cs)
);
}
);
width = 562;
}
);
unicode = 61452;
},
